<svg xmlns="http://www.w3.org/2000/svg" viewBox="0 0 150 90"><defs><style>.a{fill:#e6e6e6;}.b{fill:#ccc;}.c{fill:#534741;opacity:0.74;}.d{opacity:0.14;}.e{fill:#39b54a;}.f{fill:#31993b;}.g{fill:#cc832b;}.h{fill:#e59033;}.i{opacity:0.2;}</style></defs><title>album</title><path class="a" d="M27.68,9a6.89,6.89,0,0,0-6.87,6.87V78.13A6.89,6.89,0,0,0,27.68,85H74.35V9Z"/><path class="b" d="M121,9H74.35V85H121a6.89,6.89,0,0,0,6.87-6.87V15.87A6.89,6.89,0,0,0,121,9Z"/><rect class="c" x="29.85" y="17" width="89" height="52"/><path class="d" d="M123.35,81.24h-98a6.46,6.46,0,0,1-4.41-1.75A6.52,6.52,0,0,0,27.35,85h94a6.52,6.52,0,0,0,6.42-5.51A6.47,6.47,0,0,1,123.35,81.24Z"/><path class="a" d="M51.05,22.7h0a4.22,4.22,0,0,0-4.21,4.21v.32l-.27,0A2.7,2.7,0,0,0,47,32.63h5V22.82A4.07,4.07,0,0,0,51.05,22.7Z"/><path class="b" d="M58,27.38l-.19-.06,0-.2a2.26,2.26,0,0,0-2.22-1.9,2,2,0,0,0-.35,0l-.24,0-.11-.22A4.17,4.17,0,0,0,52,22.82v9.81H57.1A2.7,2.7,0,0,0,58,27.38Z"/><path class="a" d="M61.55,22.86h0a6,6,0,0,0-6,6v.46l-.39.06A3.84,3.84,0,0,0,55.81,37H63V23A6,6,0,0,0,61.55,22.86Z"/><path class="b" d="M71.4,29.53l-.26-.1,0-.27a3.2,3.2,0,0,0-3.15-2.71,2.92,2.92,0,0,0-.51,0l-.34.05-.15-.31A6,6,0,0,0,63,23V37h7.2a3.84,3.84,0,0,0,1.24-7.47Z"/><polygon class="e" points="74.35 27 60.06 46.1 65.47 46.1 54.53 60 68.85 60 74.35 60 74.35 27"/><polygon class="f" points="83.23 46.1 88.65 46.1 74.35 27 74.35 60 79.85 60 94.17 60 83.23 46.1"/><rect class="g" x="74.35" y="60" width="5.5" height="9"/><rect class="h" x="68.85" y="60" width="5.5" height="9"/><rect class="i" x="68.85" y="60" width="11" height="2"/><polygon class="e" points="44.77 51.55 38.83 59.48 41.08 59.48 36.53 65.26 42.48 65.26 44.77 65.26 44.77 51.55"/><polygon class="f" points="48.45 59.48 50.7 59.48 44.77 51.55 44.77 65.26 47.05 65.26 53 65.26 48.45 59.48"/><rect class="g" x="44.77" y="65.26" width="2.28" height="3.74"/><rect class="h" x="42.48" y="65.26" width="2.28" height="3.74"/><rect class="i" x="42.48" y="65.26" width="4.57" height="0.83"/><polygon class="e" points="103.35 38 92.8 52.1 96.8 52.1 88.72 62.36 99.29 62.36 103.35 62.36 103.35 38"/><polygon class="f" points="109.9 52.1 113.89 52.1 103.35 38 103.35 62.36 107.41 62.36 117.97 62.36 109.9 52.1"/><rect class="g" x="103.35" y="62.36" width="4.06" height="6.64"/><rect class="h" x="99.29" y="62.36" width="4.06" height="6.64"/><rect class="i" x="99.29" y="62.36" width="8.12" height="1.48"/></svg>