<svg id="图层_1" data-name="图层 1" xmlns="http://www.w3.org/2000/svg" viewBox="0 0 150 90"><defs><style>.cls-1{fill:#e6e6e6;}.cls-2{fill:#ccc;}.cls-3{opacity:0.14;}.cls-4{opacity:0.76;}.cls-5{fill:#534741;opacity:0.74;}.cls-6{opacity:0.69;}.cls-7{fill:#333;}.cls-8{opacity:0.88;}.cls-9{fill:none;}.cls-10{fill:#d63636;}.cls-11{fill:#ff9a3e;}.cls-12{fill:#ad2a2a;}.cls-13{fill:#cc7e2f;}</style></defs><title>bib</title><path class="cls-1" d="M29,7.62a6.89,6.89,0,0,0-6.87,6.87V76.76A6.89,6.89,0,0,0,29,83.62H75.67v-76Zm3.5,70.24a3.45,3.45,0,1,1,3.45-3.45A3.45,3.45,0,0,1,32.49,77.87Zm0-56.42A3.45,3.45,0,1,1,35.94,18,3.45,3.45,0,0,1,32.49,21.44Z"/><path class="cls-2" d="M122.35,7.62H75.67v76h46.68a6.89,6.89,0,0,0,6.87-6.87V14.49A6.89,6.89,0,0,0,122.35,7.62ZM120,77.87a3.45,3.45,0,1,1,3.45-3.45A3.45,3.45,0,0,1,120,77.87Zm0-56.42A3.45,3.45,0,1,1,123.46,18,3.45,3.45,0,0,1,120,21.44Z"/><path class="cls-3" d="M124.67,79.87h-98a6.47,6.47,0,0,1-4.42-1.75,6.52,6.52,0,0,0,6.42,5.51h94a6.52,6.52,0,0,0,6.42-5.51A6.47,6.47,0,0,1,124.67,79.87Z"/><g class="cls-4"><rect class="cls-5" x="22.17" y="24.89" width="53.62" height="40.73"/><rect class="cls-5" x="75.79" y="24.89" width="53.38" height="40.73"/></g><g class="cls-6"><path class="cls-7" d="M58.64,68.12h.48v9h-.48Zm1.68,0h.48v9h-.48Zm1,0h1.2v9h-1.2Zm1.68,0h1.2v9H63Zm1.68,0h.48v9h-.48Z"/><path class="cls-7" d="M65.6,68.12h1.2v9H65.6Zm1.68,0h.48v9h-.48Zm1.68,0h.48v9H69Zm1,0h.48v9h-.48Zm1,0h1.2v9h-1.2Z"/><rect class="cls-7" x="72.56" y="68.12" width="0.48" height="9"/><rect class="cls-7" x="73.52" y="68.12" width="1.2" height="9"/><rect x="75.92" y="68.12" width="0.48" height="9"/><rect x="76.88" y="68.12" width="0.48" height="9"/><rect x="77.84" y="68.12" width="1.2" height="9"/><path d="M79.52,68.12h1.2v9h-1.2Zm1.68,0h1.2v9H81.2Zm2.4,0h.48v9H83.6Zm1,0H85v9h-.48Zm1,0H86v9h-.48Z"/><path d="M86.48,68.12H87v9h-.48Zm1.68,0h.48v9h-.48Zm1,0h1.2v9h-1.2Zm1.68,0H92v9H90.8Zm1.68,0H93v9h-.48Z"/></g><g class="cls-8"><polygon class="cls-9" points="75.79 52.23 75.79 50.95 74.35 52.23 75.79 52.23"/><path class="cls-10" d="M56.24,31h-8l-3.35,3.35v4.82h2.61V52.23H45.21V60H58.53V52.23H56.24Zm-.32,26.45H47.8V54.75h2.35V36.6H47.54V35.47l2-2h4.09V54.75h2.29Z"/><polygon class="cls-11" points="53.63 33.52 49.53 33.52 47.54 35.47 47.54 36.6 50.15 36.6 50.15 54.75 47.8 54.75 47.8 57.45 55.92 57.45 55.92 54.75 53.63 54.75 53.63 33.52"/><polygon class="cls-10" points="64.53 57.45 64.53 53.42 75.79 43.55 75.79 36.73 75.31 36.26 69.71 36.26 68.01 37.83 68.01 39.54 64.53 39.54 64.53 37.17 68.22 33.52 75.79 33.52 75.79 31 67.06 31 61.92 36.26 61.92 42.03 70.62 42.03 70.62 38.78 74.27 38.78 74.27 41.52 61.92 52.23 61.92 59.97 75.79 59.97 75.79 57.45 64.53 57.45"/><polygon class="cls-12" points="76.88 37.83 75.79 36.73 75.79 43.55 76.88 42.6 76.88 37.83"/><polygon class="cls-12" points="80.06 54.75 80.06 57.45 75.79 57.45 75.79 59.97 82.6 59.97 82.6 52.23 75.79 52.23 75.79 54.75 80.06 54.75"/><polygon class="cls-12" points="75.79 31 75.79 33.52 76.83 33.52 80.36 37.17 80.36 43.38 75.79 47.45 75.79 50.95 82.97 44.55 82.97 36.26 77.96 31 75.79 31"/><polygon class="cls-10" points="67.59 54.75 75.79 54.75 75.79 52.23 74.35 52.23 75.79 50.95 75.79 47.45 67.59 54.75"/><polygon class="cls-11" points="64.53 53.42 64.53 57.45 75.79 57.45 75.79 54.75 67.59 54.75 75.79 47.45 75.79 43.55 64.53 53.42"/><rect class="cls-13" x="75.79" y="54.75" width="4.27" height="2.69"/><polygon class="cls-11" points="64.53 37.17 64.53 39.54 68.01 39.54 68.01 37.83 69.71 36.26 75.31 36.26 75.79 36.73 75.79 33.52 68.22 33.52 64.53 37.17"/><polygon class="cls-13" points="76.88 37.83 76.88 42.6 75.79 43.55 75.79 47.45 80.36 43.38 80.36 37.17 76.83 33.52 75.79 33.52 75.79 36.73 76.88 37.83"/><path class="cls-12" d="M106.4,36.26,101.3,31H90.74l-4.51,4.69v5.26h8V38.33h3.52v2.61H95.1v6.64h2.65v4.65H94.23V48H85.66v6.77L90.74,60H101.3l5.11-5.22V45.38l-1.27-1.27,1.27-1.34Zm-2.57,5.81L101.91,44l1.93,1.91v8l-3.56,3.61H91.79l-3.52-3.61V50.23H91.7v3l1.44,1.51H98.7l1.57-1.51V46.37l-.87-1H97.3V42.77h2.1l.87-1V37.83L98.7,36.26H93.15L91.7,37.51v1.27H88.84V36.6l2.95-3.08h8.48l3.56,3.65Z"/><polygon class="cls-13" points="91.79 33.52 88.84 36.6 88.84 38.78 91.7 38.78 91.7 37.51 93.15 36.26 98.7 36.26 100.27 37.83 100.27 41.77 99.4 42.77 97.3 42.77 97.3 45.38 99.4 45.38 100.27 46.37 100.27 53.25 98.7 54.75 93.15 54.75 91.7 53.25 91.7 50.23 88.27 50.23 88.27 53.84 91.79 57.45 100.27 57.45 103.84 53.84 103.84 45.89 101.91 43.98 103.84 42.07 103.84 37.17 100.27 33.52 91.79 33.52"/></g></svg>