<svg xmlns="http://www.w3.org/2000/svg" viewBox="0 0 150 90"><defs><style>.a{fill:#e6e6e6;}.b{fill:#ccc;}.c{opacity:0.14;}.d{fill:#c1272d;}.e{fill:#d82e3a;}.f{opacity:0.2;}</style></defs><title>cert</title><path class="a" d="M34.26,6a6.17,6.17,0,0,0-6.16,6.15V68a6.18,6.18,0,0,0,6.16,6.16H76.09V6Z"/><path class="b" d="M117.92,6H76.09V74.11h41.83A6.17,6.17,0,0,0,124.07,68V12.15A6.17,6.17,0,0,0,117.92,6Z"/><path class="c" d="M120.39,70.73H32.22a5.8,5.8,0,0,1-4-1.58,5.87,5.87,0,0,0,5.78,5h84.57a5.87,5.87,0,0,0,5.78-5A5.8,5.8,0,0,1,120.39,70.73Z"/><path class="d" d="M120.86,76l5.7.06a2.16,2.16,0,0,0,1.88-1,2.14,2.14,0,0,0,0-2.16L125.5,68l5-2.78a2.06,2.06,0,0,0,1.07-1.86,2.09,2.09,0,0,0-1.07-1.86l-5-2.78,2.92-4.93a2.13,2.13,0,0,0-1.86-3.19l-5.72.08L95.45,76l-.06,5.7a2.11,2.11,0,0,0,.6,1.53,3.55,3.55,0,0,0,.44.35,2.14,2.14,0,0,0,2.16,0l4.93-2.92,2.78,5a2.15,2.15,0,0,0,3.72,0l2.77-5,4.94,2.92a2.12,2.12,0,0,0,2.15,0,2.15,2.15,0,0,0,1-1.88Z"/><path class="e" d="M120.92,44.91a2.13,2.13,0,0,0-3.19-1.86L112.79,46,110,41a2.09,2.09,0,0,0-1.86-1.07A2.06,2.06,0,0,0,106.3,41l-2.78,5-4.93-2.92a2.14,2.14,0,0,0-2.16,0,2.16,2.16,0,0,0-1,1.88l.06,5.7-5.7-.06a2.1,2.1,0,0,0-1.86,3.19l2.92,4.93-5,2.78a2.1,2.1,0,0,0-1.07,1.86,2.06,2.06,0,0,0,1.07,1.86l5,2.78-2.92,4.93a2.09,2.09,0,0,0,0,2.16,2.16,2.16,0,0,0,1.88,1l5.7-.06,25.39-25.39Z"/><rect class="f" x="56.37" y="17.89" width="39.79" height="4.32" rx="1.02" ry="1.02"/><rect class="f" x="40.04" y="32.67" width="72.43" height="4.32" rx="1.04" ry="1.04"/><rect class="f" x="40.04" y="43.84" width="47.95" height="4.32" rx="0.91" ry="0.91"/><rect class="f" x="40.04" y="55.01" width="43.24" height="4.32" rx="0.92" ry="0.92"/></svg>