<svg xmlns="http://www.w3.org/2000/svg" viewBox="0 0 150 90"><defs><style>.a{fill:#e6e6e6;}.b{fill:#ccc;}.c{opacity:0.14;}.d{fill:#e53553;}.e{fill:#cc2e41;}.f{fill:#c69c6d;}.g{fill:#ddac7c;}.h{fill:#0071bc;}.i{opacity:0.55;}.j{fill:#00adea;}.k{fill:#0088d3;}.l{opacity:0.8;}.m{fill:#7f7f7f;}.n{fill:#606060;}.o{fill:#e5e5e5;}.p{fill:#fff;}.q{fill:#ef9f50;}.r{fill:#e59033;}</style></defs><title>checkin</title><path class="a" d="M28.53,9a6.89,6.89,0,0,0-6.87,6.87V78.13A6.89,6.89,0,0,0,28.53,85H75.21V9Z"/><path class="b" d="M121.88,9H75.21V85h46.67a6.89,6.89,0,0,0,6.87-6.87V15.87A6.89,6.89,0,0,0,121.88,9Z"/><path class="c" d="M124.21,81.24h-98a6.47,6.47,0,0,1-4.42-1.75A6.52,6.52,0,0,0,28.21,85h94a6.52,6.52,0,0,0,6.41-5.51A6.46,6.46,0,0,1,124.21,81.24Z"/><path d="M75.2,32C67,32,60.33,40.57,59.76,51.42a33.32,33.32,0,0,0,30.9.22C90.16,40.68,83.43,32,75.2,32Z"/><path class="d" d="M48.49,81H75.21V59.29C61.55,59.29,50.27,68.74,48.49,81Z"/><path class="e" d="M75.21,59.29V81h26.72C100.15,68.74,88.87,59.29,75.21,59.29Z"/><path class="f" d="M86.12,47.08a38.45,38.45,0,0,1-10.77,1.5h-.14V57A11,11,0,0,0,86.12,47.08Z"/><path class="g" d="M64.29,47A11,11,0,0,0,75.21,57V48.58A38.61,38.61,0,0,1,64.29,47Z"/><polygon class="h" points="94 34 94 51.47 102 34 94 34"/><g class="i"><path d="M59.08,76.88a.2.2,0,0,1-.13,0,44.41,44.41,0,0,0-4.73-2.48.26.26,0,0,1,.21-.47,46.29,46.29,0,0,1,4.78,2.51.27.27,0,0,1,.09.36A.26.26,0,0,1,59.08,76.88Z"/><path d="M91,76.88a.26.26,0,0,1-.22-.12.27.27,0,0,1,.09-.36,46.29,46.29,0,0,1,4.78-2.51.26.26,0,0,1,.21.47,44.41,44.41,0,0,0-4.73,2.48A.2.2,0,0,1,91,76.88Z"/></g><path class="j" d="M93.16,15.5a4.42,4.42,0,0,0-4.41,4.41V35.09a4.42,4.42,0,0,0,4.41,4.41h.09l24-24Z"/><path class="k" d="M117.34,15.5h-.09l-24,24h24.09a4.42,4.42,0,0,0,4.41-4.41V19.91A4.42,4.42,0,0,0,117.34,15.5Z"/><polygon class="e" points="61.83 45.85 54.19 39.3 51.88 44.34 61.83 45.85"/><g class="l"><path class="a" d="M110.64,26.84A5.66,5.66,0,0,0,107.29,32H113V27.78A3.46,3.46,0,0,1,110.64,26.84Z"/><path class="b" d="M115.33,26.88a3.43,3.43,0,0,1-2.32.9V32h5.59A5.65,5.65,0,0,0,115.33,26.88Z"/><path class="a" d="M113,19.39a3.44,3.44,0,0,0-3.18,2.12,3.38,3.38,0,0,0-.26,1.32.81.81,0,0,0,0,.16c0,.1,0,.2,0,.3a3.44,3.44,0,0,0,3.41,3h0V19.39Z"/><path class="b" d="M116.23,21.51a3.43,3.43,0,0,0-3.17-2.12H113v6.88h.06a3.44,3.44,0,0,0,3.4-3l0-.3s0-.1,0-.16A3.38,3.38,0,0,0,116.23,21.51Z"/></g><g class="l"><rect class="b" x="92" y="35.02" width="27" height="1.44" rx="0.72" ry="0.72"/></g><g class="l"><rect class="b" x="92" y="20.17" width="13" height="1.44" rx="0.72" ry="0.72"/></g><g class="l"><rect class="b" x="92" y="25.12" width="13" height="1.44" rx="0.72" ry="0.72"/></g><g class="l"><rect class="b" x="92" y="30.07" width="13" height="1.44" rx="0.72" ry="0.72"/></g><path class="m" d="M72.79,70.22A2.25,2.25,0,0,1,75,68h0a2.24,2.24,0,0,1,1.59.66l9.19-9.19H61a2.12,2.12,0,0,0-2.11,2.11V78.88A2.12,2.12,0,0,0,61,81h3.29l9.19-9.19A2.21,2.21,0,0,1,72.79,70.22Z"/><path class="n" d="M89.1,59.44H85.81l-9.19,9.19A2.24,2.24,0,0,1,75,72.46h0a2.23,2.23,0,0,1-1.58-.66L64.26,81H89.1a2.12,2.12,0,0,0,2.11-2.11V61.55A2.12,2.12,0,0,0,89.1,59.44Z"/><path class="o" d="M75,72.46h0a2.24,2.24,0,0,0,1.59-3.83L73.45,71.8A2.23,2.23,0,0,0,75,72.46Z"/><path class="p" d="M75,68a2.25,2.25,0,0,0-2.24,2.25,2.21,2.21,0,0,0,.66,1.58l3.17-3.17A2.24,2.24,0,0,0,75,68Z"/><path class="d" d="M34.92,39l-2-10.24,10.24-2,1.11,5.57,2-2a2.86,2.86,0,0,1-.85-2.05,2.9,2.9,0,0,1,2.9-2.9,2.86,2.86,0,0,1,2.05.85l2.4-2.4a14.5,14.5,0,1,0-20.5,20.5l5.92-5.92Z"/><path class="e" d="M50.35,26.15a2.86,2.86,0,0,1,.85,2.05,2.9,2.9,0,0,1-2.9,2.9,2.86,2.86,0,0,1-2-.85l-2,2,.93,4.67-7,1.39-5.92,5.92a14.5,14.5,0,1,0,20.5-20.5Zm1.77,13.18-9.19,6.15a1.43,1.43,0,0,1-2-.39l-.35-.52a1.42,1.42,0,0,1,.4-2l9.19-6.15a1.43,1.43,0,0,1,2,.39l.35.52A1.42,1.42,0,0,1,52.12,39.33Z"/><path class="q" d="M45.4,28.2a2.86,2.86,0,0,0,.85,2.05l4.1-4.1a2.86,2.86,0,0,0-2.05-.85A2.9,2.9,0,0,0,45.4,28.2Z"/><path class="r" d="M48.3,31.1a2.9,2.9,0,0,0,2.9-2.9,2.86,2.86,0,0,0-.85-2.05l-4.1,4.1A2.86,2.86,0,0,0,48.3,31.1Z"/><polygon class="r" points="45.16 36.94 44.23 32.27 38.17 38.33 45.16 36.94"/><polygon class="q" points="32.88 28.74 34.92 38.98 38.17 38.33 44.23 32.27 43.12 26.7 32.88 28.74"/><rect class="r" x="39.6" y="39.22" width="13.92" height="3.48" rx="1.43" ry="1.43" transform="translate(-14.91 32.8) rotate(-33.78)"/></svg>