<svg xmlns="http://www.w3.org/2000/svg" viewBox="0 0 150 90"><defs><style>.a{fill:#e6e6e6;}.b{fill:#ccc;}.c{opacity:0.14;}.d{fill:#f2a966;}.e{fill:#e59033;}.f{fill:#996022;}.g{opacity:0.56;}.h{fill:#e5303e;}.i{fill:#c1272d;}.j{fill:#a5232d;}.k{fill:#cc832b;}.l{fill:#39b54a;}.m{fill:#31993b;}</style></defs><title>exit</title><path class="a" d="M48.2,44.88a9.46,9.46,0,0,0-6.34,2.8L20.21,73.13c-1.31,1.55.92,2.81,5,2.81h50l-.1-31Z"/><path class="b" d="M101.89,45,75,44.94l.1,31h50c4,0,6.27-1.26,4.94-2.8l-21.8-25.35A9.58,9.58,0,0,0,101.89,45Z"/><path class="c" d="M126.37,74.26H23.62a7.69,7.69,0,0,1-3.93-.81C19,74.88,20.92,76,24.41,76H125.59c3.49,0,5.44-1.11,4.71-2.55A7.66,7.66,0,0,1,126.37,74.26Z"/><path class="d" d="M99.85,14.19H48.15A1.14,1.14,0,0,0,47,15.34V76.06h2.25V16.44h49.5V76.06H101V15.34A1.14,1.14,0,0,0,99.85,14.19Z"/><path class="e" d="M49.25,16.44V76.06h2.87a.62.62,0,0,1-.62-.62V21.56a.62.62,0,0,1,.62-.62H95.88a.62.62,0,0,1,.62.62V75.44a.62.62,0,0,1-.62.62h2.87V16.44Z"/><rect class="f" x="51.5" y="18.69" width="45" height="4.5"/><rect class="g" x="51.5" y="20.94" width="45" height="55.13" rx="0.62" ry="0.62"/><polygon class="h" points="80.75 82.81 51.5 75.85 51.5 19 80.75 25.96 80.75 82.81"/><polygon class="i" points="51.5 19 54.88 19 81.88 24.8 80.75 25.96 51.5 19"/><polygon class="j" points="81.88 24.8 80.75 25.96 80.75 82.81 81.88 81.65 81.88 24.8"/><ellipse class="k" cx="75.81" cy="53.27" rx="1.57" ry="1.62"/><ellipse class="e" cx="75.57" cy="53.35" rx="1.57" ry="1.62"/><rect class="k" x="96.5" y="18.69" width="2.25" height="57.37"/><polygon class="l" points="119 41.97 108.88 41.97 108.88 36.68 88.63 48.37 119 48.37 119 41.97"/><polygon class="m" points="108.88 54.77 119 54.77 119 48.37 88.63 48.37 108.88 60.07 108.88 54.77"/></svg>