<svg xmlns="http://www.w3.org/2000/svg" viewBox="0 0 150 90"><defs><style>.a{fill:#e6e6e6;}.b{fill:#534741;opacity:0.74;}.c{fill:#ccc;}.d{fill:#39b54a;}.e{fill:#31993b;}.f{fill:#cc832b;}.g{fill:#e59033;}.h{opacity:0.2;}.i{fill:#0071bc;}.j{fill:#0088d3;}.k{opacity:0.14;}.l{fill:#e53553;}.m{fill:#c1272d;}.n{fill:#cc2e41;}.o{fill:#fff;}.p{fill:#dbdbdb;}</style></defs><title>feed</title><rect class="a" x="21.46" y="7.5" width="106.83" height="76" rx="6.96" ry="6.96"/><rect class="b" x="62.11" y="19" width="57" height="33" rx="3.32" ry="3.32"/><path class="a" d="M75.69,22.62h0A2.68,2.68,0,0,0,73,25.29v.2l-.18,0a1.71,1.71,0,0,0,.29,3.4h3.22V22.69A2.73,2.73,0,0,0,75.69,22.62Z"/><path class="c" d="M80.12,25.59l-.12,0,0-.13a1.42,1.42,0,0,0-1.42-1.2h-.22l-.16,0-.06-.14a2.7,2.7,0,0,0-1.79-1.43v6.23h3.23a1.71,1.71,0,0,0,.56-3.33Z"/><path class="a" d="M82.41,22.72h0a3.83,3.83,0,0,0-3.84,3.8v.29l-.25,0a2.44,2.44,0,0,0,.41,4.84h4.58V22.83A4,4,0,0,0,82.41,22.72Z"/><path class="c" d="M88.72,27l-.17-.06,0-.18a2.05,2.05,0,0,0-2-1.71l-.32,0-.22,0-.1-.2a3.79,3.79,0,0,0-2.54-2v8.86h4.61A2.43,2.43,0,0,0,88.72,27Z"/><polygon class="d" points="90.61 25.34 81.46 37.47 84.93 37.47 77.92 46.29 87.09 46.29 90.61 46.29 90.61 25.34"/><polygon class="e" points="96.3 37.47 99.77 37.47 90.61 25.34 90.61 46.29 94.14 46.29 103.31 46.29 96.3 37.47"/><rect class="f" x="90.61" y="46.29" width="3.52" height="5.71"/><rect class="g" x="87.09" y="46.29" width="3.52" height="5.71"/><rect class="h" x="87.09" y="46.29" width="7.04" height="1.27"/><polygon class="d" points="71.66 40.93 67.86 45.96 69.3 45.96 66.39 49.63 70.2 49.63 71.66 49.63 71.66 40.93"/><polygon class="e" points="74.03 45.96 75.47 45.96 71.66 40.93 71.66 49.63 73.13 49.63 76.94 49.63 74.03 45.96"/><rect class="f" x="71.66" y="49.63" width="1.46" height="2.37"/><rect class="g" x="70.2" y="49.63" width="1.46" height="2.37"/><rect class="h" x="70.2" y="49.63" width="2.93" height="0.53"/><polygon class="d" points="109.18 32.33 102.43 41.27 104.98 41.27 99.81 47.78 106.58 47.78 109.18 47.78 109.18 32.33"/><polygon class="e" points="113.38 41.27 115.94 41.27 109.18 32.33 109.18 47.78 111.78 47.78 118.55 47.78 113.38 41.27"/><rect class="f" x="109.18" y="47.78" width="2.6" height="4.22"/><rect class="g" x="106.58" y="47.78" width="2.6" height="4.22"/><rect class="h" x="106.58" y="47.78" width="5.2" height="0.94"/><path class="i" d="M49.51,24.38l-2.13,2.14-6,6L34.91,39a10.32,10.32,0,0,0,14.6-14.6Z"/><path class="j" d="M49.51,24.38A10.32,10.32,0,0,0,34.91,39h0l6.46-6.46,6-6,2.13-2.14Z"/><path class="k" d="M123.88,79.74h-98A6.49,6.49,0,0,1,21.46,78a6.53,6.53,0,0,0,6.42,5.51h94A6.51,6.51,0,0,0,128.29,78,6.46,6.46,0,0,1,123.88,79.74Z"/><path class="l" d="M80.62,69.12V57.31h3.66v11.2l4.13-4.13-2.68-7.07h3.82L91,61.83l3.58-3.58.29-.94h.65l2.8-2.8H63.57a2.5,2.5,0,0,0-2.5,2.5V69.43a2.5,2.5,0,0,0,2.5,2.5H80.86l2.81-2.81Zm-1.8,0H69.47V57.31h3.65v8.9h5.7Z"/><polygon class="m" points="94.54 58.25 90.96 61.83 92.21 65.81 94.54 58.25"/><path class="n" d="M115.57,54.51H98.28l-2.8,2.8h3.06L94.15,69.12h-4l-1.78-4.74-4.13,4.13v.61h-.61l-2.81,2.81h34.71a2.5,2.5,0,0,0,2.5-2.5V57A2.5,2.5,0,0,0,115.57,54.51Zm-5.89,14.61h-10V57.31h9.78v2.52h-6.12v1.88h5.68v2.41h-5.68v2.33h6.3Z"/><polygon class="o" points="73.12 57.31 69.47 57.31 69.47 69.12 78.81 69.12 78.81 66.21 73.12 66.21 73.12 57.31"/><polygon class="o" points="80.62 57.31 80.62 69.12 83.67 69.12 84.28 68.51 84.28 57.31 80.62 57.31"/><polygon class="o" points="84.28 69.12 84.28 68.51 83.67 69.12 84.28 69.12"/><polygon class="o" points="94.54 58.25 95.48 57.31 94.83 57.31 94.54 58.25"/><polygon class="o" points="89.55 57.31 85.73 57.31 88.41 64.39 90.96 61.83 89.55 57.31"/><polygon class="p" points="92.21 65.81 90.96 61.83 88.41 64.39 90.19 69.12 94.15 69.12 98.53 57.31 95.48 57.31 94.54 58.25 92.21 65.81"/><polygon class="p" points="103.38 64.12 109.06 64.12 109.06 61.71 103.38 61.71 103.38 59.83 109.5 59.83 109.5 57.31 99.72 57.31 99.72 69.12 109.68 69.12 109.68 66.45 103.38 66.45 103.38 64.12"/><rect class="h" x="30.76" y="47" width="22.9" height="4" rx="1.02" ry="1.02"/></svg>