<svg id="图层_1" data-name="图层 1" xmlns="http://www.w3.org/2000/svg" viewBox="0 0 150 90"><defs><style>.cls-1{fill:#968b84;}.cls-2{fill:#d82e3a;}.cls-3{fill:#e6e6e6;}.cls-4{fill:#c1272d;}.cls-5{fill:#ccc;}.cls-6{fill:#606060;}.cls-7{fill:#afafaf;}.cls-8{fill:#1a1a1a;}.cls-9{fill:#4d4d4d;}.cls-10{opacity:0.81;}.cls-11{fill:#f2f2f2;}.cls-12{fill:#0071bc;}.cls-13{fill:#0088d3;}.cls-14{fill:#374546;}.cls-15{fill:#516666;}.cls-16{fill:#565758;}.cls-17{fill:#333;}.cls-18{fill:#aae1f7;}.cls-19{fill:#87cfe4;}</style></defs><title>gear</title><rect class="cls-1" x="39.81" y="17.26" width="90.62" height="62.65" rx="12" ry="12"/><path class="cls-2" d="M118.72,23.41v-.06h-7.54L98.35,10.52A1.68,1.68,0,0,0,97.17,10H93.53A1.7,1.7,0,0,0,91.9,11.4a6.66,6.66,0,0,1-13.05,0A1.69,1.69,0,0,0,77.21,10h-3.5a1.65,1.65,0,0,0-1.15.52,1.73,1.73,0,0,0-.46,1.21v25A3.24,3.24,0,0,0,75.38,40H122a3.32,3.32,0,0,0,3.38-3.27V30.07A6.9,6.9,0,0,0,118.72,23.41Z"/><path class="cls-3" d="M122,33H75.38a1.67,1.67,0,0,0,0,3.33H122A1.67,1.67,0,0,0,122,33Z"/><path class="cls-3" d="M95.85,22.93a1.66,1.66,0,0,0,2.35,0h0l5.07-5.07a1.66,1.66,0,1,0-2.35-2.35l-5.07,5.07A1.67,1.67,0,0,0,95.85,22.93Z"/><path class="cls-3" d="M102.51,23.9a1.66,1.66,0,0,0,2.35,2.35h0l3.4-3.4a1.66,1.66,0,1,0-2.35-2.35h0Z"/><path class="cls-4" d="M112.5,33.72v-.06H105L92.13,20.82A1.68,1.68,0,0,0,91,20.34H87.31a1.7,1.7,0,0,0-1.63,1.36,6.66,6.66,0,0,1-13.05,0A1.69,1.69,0,0,0,71,20.34H67.5a1.65,1.65,0,0,0-1.15.52,1.73,1.73,0,0,0-.46,1.21V47a3.24,3.24,0,0,0,3.28,3.27h46.62A3.32,3.32,0,0,0,119.16,47V40.38A6.9,6.9,0,0,0,112.5,33.72Z"/><path class="cls-5" d="M115.79,43.34H69.16a1.67,1.67,0,0,0,0,3.33h46.62a1.67,1.67,0,0,0,0-3.33Z"/><path class="cls-5" d="M89.63,33.23a1.66,1.66,0,0,0,2.35,0h0l5.07-5.07a1.66,1.66,0,1,0-2.35-2.35l-5.07,5.07A1.67,1.67,0,0,0,89.63,33.23Z"/><path class="cls-5" d="M96.29,34.2a1.66,1.66,0,0,0,2.35,2.35h0l3.4-3.4a1.66,1.66,0,1,0-2.35-2.35h0Z"/><path class="cls-3" d="M47.33,8.36H30.08a3.35,3.35,0,0,0-3.34,3.34V79a3.35,3.35,0,0,0,3.34,3.34H47.33A3.35,3.35,0,0,0,50.66,79V11.69A3.35,3.35,0,0,0,47.33,8.36Z"/><rect class="cls-5" x="26.74" y="15.15" width="23.92" height="59.8"/><path class="cls-6" d="M61.5,44.89v1.69a1,1,0,0,0,.29,0h.91a1,1,0,0,0,1-1v-.7Z"/><path class="cls-5" d="M63.73,43.94a1,1,0,0,0-1-1h-.91a1,1,0,0,0-.29,0v1.93h2.23Z"/><path class="cls-3" d="M24.67,30.91a20.11,20.11,0,0,1,28.45,0l2.11-2.11A23.38,23.38,0,0,0,22.17,61.85l2.5-2.5A20.11,20.11,0,0,1,24.67,30.91Z"/><path class="cls-7" d="M55.23,28.8l-2.11,2.11A20.11,20.11,0,0,1,24.67,59.36l-2.5,2.5A23.38,23.38,0,0,0,55.23,28.8Z"/><path class="cls-8" d="M53.12,59.36a20.11,20.11,0,0,0,0-28.45L24.67,59.36A20.11,20.11,0,0,0,53.12,59.36Z"/><path class="cls-9" d="M24.67,30.91a20.11,20.11,0,0,0,0,28.45L53.12,30.91A20.11,20.11,0,0,0,24.67,30.91Z"/><g class="cls-10"><path class="cls-11" d="M25,44.93V41.65l.47-1.25a1,1,0,0,1,.78.78v4.38l-.31.31ZM26,46.18l.31.31v4.38a1,1,0,0,1-.78.78L25,50.4V47.12Z"/><path class="cls-11" d="M27.51,50.56V46.49l.31-.31.94.94v3Zm5.94,1.09H28.29a1,1,0,0,1-.78-.78l1.25-.47H33Zm-.94-10H28.78l-1.25-.47a1,1,0,0,1,.78-.78H33Zm.31,3.75.63.63-.63.62H28.76L28.14,46l.63-.63Zm0-.47V41.65l.47-1.25a1,1,0,0,1,.78.78v4.38l-.31.31Z"/><path class="cls-11" d="M37.06,44.15H35.81V42.9h1.25Zm0,5H35.81V47.9h1.25Z"/><path class="cls-11" d="M38.78,50.56V46.49l.31-.31.94.94v3Zm5.94,1.09H39.56a1,1,0,0,1-.78-.78L40,50.4h4.22Zm-.94-10H40l-1.25-.47a1,1,0,0,1,.78-.78h4.67Zm.31,3.75.63.63-.63.62H40L39.41,46,40,45.4Zm0-.47V41.65l.47-1.25a1,1,0,0,1,.78.78v4.38l-.31.31Z"/><path class="cls-11" d="M47.85,42v3l-.94.94-.31-.31V41.49Zm4.22,9.69H47.38a1,1,0,0,1-.78-.78l1.25-.47H51.6Zm-.47-10H47.86l-1.25-.47a1,1,0,0,1,.78-.78h4.67Zm.31,3.75.63.63-.63.62H47.85L47.22,46l.63-.63Zm0-.47V41.65l.47-1.25a1,1,0,0,1,.78.78v4.38l-.31.31Zm.94,1.25.31.31v4.38a1,1,0,0,1-.78.78l-.47-1.25V47.12Z"/></g><path class="cls-12" d="M90.33,71.33H59.6a2.07,2.07,0,0,1,0-4.14h9.57a21.69,21.69,0,0,1,5.24-11.3,91,91,0,0,0,15.92,4.54Z"/><path class="cls-13" d="M90.33,60.43A91.1,91.1,0,0,0,107.25,62c1.18,0,2.34,0,3.5-.09a21.68,21.68,0,0,1,1.68,8.38c0,.35,0,.69-.05,1H90.33Z"/><path class="cls-14" d="M128.46,44.49v-.61a.48.48,0,0,0-.48-.48h-.61v1.09Z"/><path class="cls-15" d="M127.37,43.39h-.88a.48.48,0,0,0-.48.48v.61h1.37Z"/><path class="cls-16" d="M126,45h-1.65a1.57,1.57,0,0,0-1.57,1.57v1.78a1.56,1.56,0,0,0,.2.77h4.39V45Z"/><path class="cls-17" d="M130.5,45h-3.13v4.11h4.5a1.56,1.56,0,0,0,.2-.77V46.6A1.57,1.57,0,0,0,130.5,45Z"/><path class="cls-18" d="M123.45,49.66h-1.3a1.89,1.89,0,0,0-1.89,1.89v23a1.89,1.89,0,0,0,1.89,1.89h5.23V49.66Z"/><path class="cls-19" d="M132.6,49.66h-5.23V76.45h5.23a1.89,1.89,0,0,0,1.89-1.89v-23A1.89,1.89,0,0,0,132.6,49.66Z"/><path class="cls-17" d="M132.6,49.14h-.13a2.1,2.1,0,0,0,.15-.77V46.6a2.12,2.12,0,0,0-2.11-2.11H129v-.61a1,1,0,0,0-1-1h-1.49a1,1,0,0,0-1,1v.61h-1.11a2.12,2.12,0,0,0-2.11,2.11v1.78a2.1,2.1,0,0,0,.15.77h-.24a2.4,2.4,0,0,0-2.4,2.4v23a2.4,2.4,0,0,0,2.4,2.4H132.6a2.4,2.4,0,0,0,2.4-2.4v-23A2.4,2.4,0,0,0,132.6,49.14Zm1.89,25.42a1.89,1.89,0,0,1-1.89,1.89H122.14a1.89,1.89,0,0,1-1.89-1.89v-23a1.89,1.89,0,0,1,1.89-1.89H132.6a1.89,1.89,0,0,1,1.89,1.89Zm-11.7-26.18V46.6A1.57,1.57,0,0,1,124.35,45h6.15a1.57,1.57,0,0,1,1.57,1.57v1.78a1.56,1.56,0,0,1-.2.77H123A1.56,1.56,0,0,1,122.78,48.38Zm3.22-4.5a.48.48,0,0,1,.48-.48H128a.48.48,0,0,1,.48.48v.61H126Z"/></svg>