<svg xmlns="http://www.w3.org/2000/svg" viewBox="0 0 150 90"><defs><style>.a{fill:#e6e6e6;}.b{fill:#ccc;}.c{opacity:0.14;}.d{fill:#e5e5e5;}.e{fill:#f9dfc2;}.f{fill:#d8c1ab;}.g{fill:#cec3b7;}.h{fill:#b2a8a1;}.i{fill:#f2f2f2;opacity:0.81;}.j{fill:#fff;}.k{fill:#ff9a3e;}.l{opacity:0.2;}</style></defs><title>idea</title><path class="a" d="M28.27,7a6.89,6.89,0,0,0-6.87,6.87V76.13A6.89,6.89,0,0,0,28.27,83H74.94V7Z"/><path class="b" d="M121.62,7H74.94V83h46.68a6.89,6.89,0,0,0,6.87-6.87V13.87A6.89,6.89,0,0,0,121.62,7Z"/><path class="c" d="M123.94,79.24h-98a6.46,6.46,0,0,1-4.41-1.75A6.52,6.52,0,0,0,27.94,83h94a6.52,6.52,0,0,0,6.42-5.51A6.47,6.47,0,0,1,123.94,79.24Z"/><path class="d" d="M48,63a2.82,2.82,0,0,1-.92-.15v.25A2,2,0,0,0,49,65h.71V63Z"/><path class="b" d="M49.75,63v2h.71a1.94,1.94,0,0,0,1.94-1.93V62.9a2.84,2.84,0,0,1-.66.08Z"/><path class="e" d="M45.17,58.1v2a2.88,2.88,0,0,0,1.93,2.69A2.82,2.82,0,0,0,48,63h1.73V58.1Z"/><path class="f" d="M49.75,58.1V63h2a2.85,2.85,0,0,0,2.84-2.84v-2Z"/><path class="g" d="M49.75,34.2a11.19,11.19,0,0,0-4.57,21.4s0,.11,0,.16V58.1h4.58Z"/><path class="h" d="M60.94,45.39A11.19,11.19,0,0,0,49.75,34.2V58.1h4.83V55.76a2.44,2.44,0,0,0,0-.27A11.19,11.19,0,0,0,60.94,45.39Z"/><path class="i" d="M53.25,47.66A1.3,1.3,0,0,0,52.12,47h-4.5a1.3,1.3,0,0,0-1.13.66,1.26,1.26,0,0,0,0,1.3l2.25,3.87a1.29,1.29,0,0,0,.52.49V58.1h1.22V53.33a1.38,1.38,0,0,0,.52-.5L53.25,49A1.29,1.29,0,0,0,53.25,47.66Zm-1.06.69-2.25,3.87h0s0,0-.07,0-.07,0-.07,0l-2.25-3.87s0,0,0-.09a.07.07,0,0,1,.07,0h4.5a.07.07,0,0,1,.07,0C52.22,48.31,52.2,48.34,52.19,48.35Z"/><path class="j" d="M43,42.08a1,1,0,0,1-.82-1.61,12.1,12.1,0,0,1,2.62-2.63A1,1,0,1,1,46,39.48a10,10,0,0,0-2.18,2.18A1,1,0,0,1,43,42.08Z"/><path class="k" d="M40.71,33.94l-3.27-3.28-1.7,1.7L39,35.65A13.57,13.57,0,0,1,40.71,33.94Z"/><path class="k" d="M35.81,44.59c0-.29,0-.57,0-.86H31v2.41H35.9A13.3,13.3,0,0,1,35.81,44.59Z"/><path class="k" d="M49.84,30.56a12.44,12.44,0,0,1,1.37.07V26h-2.4V30.6C49.15,30.58,49.49,30.56,49.84,30.56Z"/><path class="k" d="M60.8,35.84l3.49-3.48-1.7-1.7L59.15,34.1A14.28,14.28,0,0,1,60.8,35.84Z"/><path class="k" d="M63.84,43.73c0,.29,0,.57,0,.86,0,.52,0,1-.08,1.55H69V43.73Z"/><rect class="l" x="91.99" y="30.38" width="30.45" height="5.46" rx="1.02" ry="1.02"/><circle class="l" cx="84.78" cy="33.11" r="2.73"/><rect class="l" x="91.99" y="42.03" width="30.45" height="5.46" rx="1.02" ry="1.02"/><circle class="l" cx="84.78" cy="44.75" r="2.73"/><rect class="l" x="91.99" y="53.67" width="30.45" height="5.46" rx="1.02" ry="1.02"/><circle class="l" cx="84.78" cy="56.4" r="2.73"/></svg>