<svg xmlns="http://www.w3.org/2000/svg" viewBox="0 0 150 90"><defs><style>.a{fill:#e6e6e6;}.b{fill:#ccc;}.c{opacity:0.14;}.d{fill:#d82e3a;}.e{fill:#c1272d;}.f{fill:#ef9f50;}.g{fill:#e59033;}.h{fill:#4d4d4d;opacity:0.2;}.i{fill:#0071bc;}.j{fill:#0088d3;}</style></defs><title>info</title><path class="a" d="M27.76,85.63l-.16,0Z"/><path class="a" d="M26,82H74.65V31.82H21.43V79a6.79,6.79,0,0,0,.37,2.21,6.66,6.66,0,0,1-.22-.88A6.46,6.46,0,0,0,26,82Z"/><path class="b" d="M74.65,82H123.8a6.41,6.41,0,0,0,3.83-1.3,6.54,6.54,0,0,0,.25-1.78V31.82H74.65Z"/><path class="c" d="M28.09,85.66h.26a5.68,5.68,0,0,1-.59,0C27.87,85.63,28,85.66,28.09,85.66Z"/><path class="c" d="M21.92,81.05a6.45,6.45,0,0,0,5.68,4.56A6.82,6.82,0,0,1,21.92,81.05Z"/><path class="c" d="M120.87,85.66h.75A6.48,6.48,0,0,0,128,80.18c-.18.16-.38.3-.57.44A6.82,6.82,0,0,1,120.87,85.66Z"/><rect class="c" x="21.43" y="27.3" width="106.45" height="8.11"/><path class="a" d="M26.1,81.92a6.43,6.43,0,0,1-4.4-1.74,6.52,6.52,0,0,0,.22.87,6.82,6.82,0,0,0,5.68,4.56l.16,0a5.68,5.68,0,0,0,.59,0H74.61V81.92Z"/><path class="b" d="M127.43,80.62a6.38,6.38,0,0,1-3.82,1.3h-49v3.74h46.26A6.82,6.82,0,0,0,127.43,80.62Z"/><path class="c" d="M25.85,81.91a6.47,6.47,0,0,1-4.42-1.75,6.63,6.63,0,0,0,.21.88,6.89,6.89,0,0,0,5.72,4.59l.16,0c.2,0,.4,0,.6,0H74.69V81.91Z"/><path class="c" d="M127.88,80.6A6.43,6.43,0,0,1,124,81.91H74.69v3.77h46.58A6.88,6.88,0,0,0,127.88,80.6Z"/><path class="d" d="M74.65,10.23H28.25a6.85,6.85,0,0,0-6.82,6.83V31.82H74.65Z"/><path class="e" d="M127.88,31.82V17.06a6.86,6.86,0,0,0-6.83-6.83H74.65V31.82Z"/><rect class="f" x="34.5" y="3.84" width="11.83" height="17.58" rx="3.46" ry="3.46"/><rect class="g" x="103.1" y="3.84" width="11.83" height="17.58" rx="3.46" ry="3.46"/><path class="h" d="M57.79,71.14a6.18,6.18,0,0,1,0-12.35H92.21a8.79,8.79,0,1,0,0-17.58H49v2.62H92.21a6.17,6.17,0,0,1,0,12.34H57.79l-.46,0v.05a8.79,8.79,0,0,0,.46,17.56H101V71.14H57.79Z"/><path class="i" d="M48.71,39.34l-1.05,1-2.95,3-3.18,3.17a5.07,5.07,0,1,0,7.18-7.17Z"/><path class="j" d="M48.71,39.34a5.07,5.07,0,0,0-7.18,7.17h0l3.18-3.17,2.95-3,1.05-1Z"/><path class="i" d="M103.71,46.34l-1,1-3,3-3.18,3.17a5.07,5.07,0,1,0,7.18-7.17Z"/><path class="j" d="M103.71,46.34a5.09,5.09,0,0,0-8.18,1.38,5,5,0,0,0,1,5.79h0l3.18-3.17,3-3,1-1Z"/><path class="i" d="M52.71,61.34l-1.05,1-2.95,3-3.18,3.17a5.07,5.07,0,1,0,7.18-7.17Z"/><path class="j" d="M52.71,61.34a5.07,5.07,0,0,0-7.18,7.17h0l3.18-3.17,2.95-3,1.05-1Z"/><path class="i" d="M108.71,68.34l-1,1-3,3-3.18,3.17a5.07,5.07,0,1,0,7.18-7.17Z"/><path class="j" d="M108.71,68.34a5.07,5.07,0,0,0-7.18,7.17h0l3.18-3.17,3-3,1-1Z"/></svg>