<svg xmlns="http://www.w3.org/2000/svg" viewBox="0 0 150 90"><defs><style>.a{fill:#ccc;}.b{fill:#e6e6e6;}.c{opacity:0.14;}.d{fill:none;}.e{fill:#666;}.f{fill:#cc2e41;}.g{fill:#e53553;}</style></defs><title>love</title><path class="a" d="M116.92,11H110L41.89,79.11h75A6.17,6.17,0,0,0,123.07,73V17.15A6.17,6.17,0,0,0,116.92,11Z"/><path class="b" d="M75.09,11H33.26a6.17,6.17,0,0,0-6.16,6.15V73a6.18,6.18,0,0,0,6.16,6.16h8.63L110,11Z"/><path class="c" d="M119.39,75.73H31.22a5.8,5.8,0,0,1-4-1.58,5.87,5.87,0,0,0,5.78,5h84.57a5.87,5.87,0,0,0,5.78-5A5.8,5.8,0,0,1,119.39,75.73Z"/><polygon class="d" points="54.57 68.95 54.57 66.43 53.73 67.27 53.73 68.95 54.57 68.95"/><polygon class="d" points="66.88 63.64 66.88 55.79 65.21 55.79 64.52 56.48 64.52 63.64 66.88 63.64"/><path class="d" d="M54,56.71h1.72a.33.33,0,0,0,.35-.35V51.15H54Z"/><polygon class="d" points="64.52 55.79 64.52 56.48 65.21 55.79 64.52 55.79"/><path class="e" d="M52.85,42.43H63.12a.75.75,0,0,0,.42-.14c.14-.07.14-.21.14-.42s-.07-.36-.14-.43a3,3,0,0,0-.35-.07l-.43-.07a2.42,2.42,0,0,1-.84-.21,1.91,1.91,0,0,1-.84-.63,2.07,2.07,0,0,1-.43-.91,7,7,0,0,1-.14-1.24h0V22.45a5.4,5.4,0,0,1,.14-1.05,2.63,2.63,0,0,1,.43-.92,3.32,3.32,0,0,1,.7-.7,2.16,2.16,0,0,1,.84-.35l.43-.07a.53.53,0,0,0,.35-.14c.07-.14.14-.21.14-.35a.6.6,0,0,0-.14-.43A1,1,0,0,0,63,18.3H53a1,1,0,0,0-.42.14.49.49,0,0,0-.22.43.59.59,0,0,0,.14.42c.15.07.22.14.36.14l.35.07a2.9,2.9,0,0,1,.84.28,2.09,2.09,0,0,1,.85.7,2.77,2.77,0,0,1,.42,1.13,7.25,7.25,0,0,1,.07,1.12V38.17a4.73,4.73,0,0,1-.21,1.3,2.77,2.77,0,0,1-.57,1.06,2,2,0,0,1-.77.56,1.56,1.56,0,0,1-.7.21l-.35.07a.6.6,0,0,0-.29.14c-.14.08-.21.15-.21.29s0,.42.14.49A.62.62,0,0,0,52.85,42.43Z"/><path class="f" d="M81.75,39.25c1.87,1.41,4.09,3,6.76,4.87,9-6.51,13.08-9.08,15.09-14.91,1.37-4.34.21-7.73-2-9.82Z"/><path class="g" d="M88.51,21.71h0c-4.22-9.07-18.78-4.22-15.09,7.5,1.42,4.14,3.84,6.65,8.33,10l19.86-19.86C97.87,15.84,91.12,16,88.51,21.71Z"/><path d="M98.21,68.17c.07.5-.14.71-.63.64h-5.2V47.46H88.23v0h-.07V68.77h-6V49.43H77.89V72.22h21.2c2.29.14,3.34-.92,3.2-3.27V49.46H98.21Z"/><path d="M71.28,51.43V63.28c0,.64-.36.92-1.06.85v3.06h1c2.36,0,3.49-1.3,3.42-3.94V48.48h-2.1l-3,3Z"/><polygon class="e" points="53.73 60.86 50.6 60.86 50.6 70.4 53.73 67.27 53.73 60.86"/><polygon class="e" points="61.15 59.85 64.52 56.48 64.52 55.79 65.21 55.79 67.92 53.09 61.15 53.09 61.15 59.85"/><path class="e" d="M67,47.25H63.15c-.84,2.07-1.58,3-2.14,2.71v2.32h.84c1.48.07,2.5-.21,2.92-.85h4.8l3-3H66.25Z"/><polygon points="54.57 68.95 53.73 68.95 53.73 67.27 50.6 70.4 50.6 71.66 60.09 71.66 60.09 68.95 58.09 68.95 58.09 65.43 59.88 65.43 59.88 62.51 58.49 62.51 54.57 66.43 54.57 68.95"/><path class="e" d="M58.09,59.87a1.52,1.52,0,0,0,1.72-1.72h0V47.81H50.91V59.87h3.66v6.56l3.92-3.92h-.4Zm-2-3.51a.33.33,0,0,1-.35.35H54V51.15h2.07Z"/><path d="M66.88,55.79v7.85H64.52V56.48l-3.37,3.37V69c0,1.79.84,2.71,2.56,2.71h10.8V69H65.09a.74.74,0,0,1-.64-.64V66.73H67c2.14.14,3.13-.91,3-3.2V53.09h-2.1l-2.7,2.7Z"/></svg>