<svg xmlns="http://www.w3.org/2000/svg" viewBox="0 0 150 90"><defs><style>.a{fill:#e6e6e6;}.b{fill:#ccc;}.c,.e{fill:#39b54a;}.c{opacity:0.8;}.d{fill:#31993b;}.f{opacity:0.14;}.g{fill:#b3b3b3;}.h{fill:#666;}.i{fill:#e53553;}.j{fill:#cc2e41;}.k{fill:#cc832b;}.l{fill:#e59033;}</style></defs><title>map</title><path class="a" d="M125,67.5c0,1.63-.93,2.46-3.14,3L90.42,77.83,59,69l-28.3,7.37a3.26,3.26,0,0,1-3.14-2.95V20.32a3.06,3.06,0,0,1,3.14-2.95L45,13.64,59,10l31.44,8.85,31.44-7.38A3.06,3.06,0,0,1,125,14.42Z"/><path class="b" d="M90.87,77.83,59.31,69V10l31.56,8.85v59Z"/><path class="c" d="M39.61,60.77h-.14a1.5,1.5,0,0,1-1.36-1.63l.37-3.94a1.5,1.5,0,0,1,3,.28l-.36,3.94A1.49,1.49,0,0,1,39.61,60.77Z"/><path class="d" d="M87.82,55.2c-.7,0-1.41,0-2.14-.06a1.5,1.5,0,0,1-1.41-1.58,1.48,1.48,0,0,1,1.58-1.41,33.83,33.83,0,0,0,3.77,0,1.5,1.5,0,0,1,.18,3C89.16,55.18,88.5,55.2,87.82,55.2Z"/><path class="d" d="M79,53.85a1.36,1.36,0,0,1-.56-.11,13.8,13.8,0,0,1-3.79-2.26,1.5,1.5,0,0,1,2-2.29,10.68,10.68,0,0,0,3,1.77A1.5,1.5,0,0,1,79,53.85Z"/><path class="e" d="M96.46,53.79a1.5,1.5,0,0,1-.53-2.9A12.2,12.2,0,0,0,99,49.21a1.5,1.5,0,0,1,1.82,2.38A15.26,15.26,0,0,1,97,53.69,1.47,1.47,0,0,1,96.46,53.79Z"/><path class="c" d="M40.61,49.94h-.14a1.49,1.49,0,0,1-1.35-1.63l.37-3.94a1.5,1.5,0,0,1,3,.29l-.37,3.93A1.51,1.51,0,0,1,40.61,49.94Z"/><path class="d" d="M71.91,46.12a1.48,1.48,0,0,1-1.42-1,18.86,18.86,0,0,1-.85-4.19,1.5,1.5,0,1,1,3-.28,16.21,16.21,0,0,0,.72,3.54,1.49,1.49,0,0,1-1,1.89A1.55,1.55,0,0,1,71.91,46.12Z"/><path class="c" d="M103.22,46.09H103a1.51,1.51,0,0,1-1.31-1.68l.48-3.92a1.5,1.5,0,0,1,3,.36l-.48,3.93A1.5,1.5,0,0,1,103.22,46.09Z"/><path class="c" d="M41.66,39.12h-.15a1.5,1.5,0,0,1-1.34-1.65c.15-1.49.28-2.67.36-3.4l.09-.61a1.51,1.51,0,0,1,1.71-1.25,1.49,1.49,0,0,1,1.25,1.71c0,.18,0,.35-.07.51-.08.71-.21,1.88-.36,3.35A1.5,1.5,0,0,1,41.66,39.12Z"/><path class="d" d="M71.35,35.35h0a1.5,1.5,0,0,1-1.47-1.53v-.28a14.08,14.08,0,0,0-.35-3.27,1.5,1.5,0,0,1,2.92-.69,17.29,17.29,0,0,1,.43,4v.34A1.5,1.5,0,0,1,71.35,35.35Z"/><path class="c" d="M104.54,35.29h-.18a1.5,1.5,0,0,1-1.31-1.67l.48-3.93a1.5,1.5,0,0,1,3,.36L106,34A1.5,1.5,0,0,1,104.54,35.29Z"/><path class="c" d="M44.48,28.74a1.52,1.52,0,0,1-.81-.24,1.49,1.49,0,0,1-.44-2.07,14.33,14.33,0,0,1,2.9-3.29,1.5,1.5,0,0,1,1.92,2.3,11.16,11.16,0,0,0-2.3,2.62A1.51,1.51,0,0,1,44.48,28.74Z"/><path class="d" d="M67.44,25.62a1.55,1.55,0,0,1-1-.33,10,10,0,0,0-3-1.67,1.5,1.5,0,0,1,1-2.82A13.63,13.63,0,0,1,68.39,23a1.5,1.5,0,0,1,.21,2.11A1.45,1.45,0,0,1,67.44,25.62Z"/><path class="c" d="M53.3,22.94A1.5,1.5,0,0,1,53,20a21.34,21.34,0,0,1,4-.37h.22a1.5,1.5,0,0,1,0,3H57a18.72,18.72,0,0,0-3.44.31A1.33,1.33,0,0,1,53.3,22.94Z"/><path class="c" d="M105.87,24.44h-.19a1.5,1.5,0,0,1-1.3-1.67l.24-2a1.5,1.5,0,1,1,3,.37l-.25,2A1.49,1.49,0,0,1,105.87,24.44Z"/><path class="f" d="M121.86,68.63,90.42,76,59,67.17,30.68,74.5a3,3,0,0,1-3.14-2.93v1.85a3.26,3.26,0,0,0,3.14,2.94L59,69l31.44,8.81,31.44-7.34c2.21-.49,3.14-1.32,3.14-2.93V65.7C125,67.31,124.07,68.14,121.86,68.63Z"/><polygon class="g" points="44.89 68.41 59.05 64.76 59.05 60.83 56 59 49.66 62.16 46 61 38.61 65.01 35 61 32 67.2 32 71.74 44.89 68.41"/><polygon class="h" points="73.16 68.41 59 64.76 59 60.83 65.34 59.53 68.39 62.16 75 55 78 64 83 63 86.05 67.2 86.05 71.74 73.16 68.41"/><path class="i" d="M89.93,63.94a.4.4,0,0,1-.41-.31.34.34,0,0,1,.26-.47l21.53-9.94c.14-.11.29-.09.47.05h0l3.79-3.79h0a18.35,18.35,0,1,0-25.95,26h0L101.1,63.94Z"/><path class="j" d="M115.57,75.43a18.34,18.34,0,0,0,0-26l-3.79,3.79a.36.36,0,0,1,0,.47l-9.94,21.55a.37.37,0,0,1-.36.26h-.11a.41.41,0,0,1-.3-.42V63.94h0L89.62,75.43A18.34,18.34,0,0,0,115.57,75.43Z"/><path class="k" d="M101.12,63.94V75.13a.41.41,0,0,0,.3.42h.11a.37.37,0,0,0,.36-.26l9.94-21.55a.36.36,0,0,0,0-.47L101.1,63.94Z"/><path class="l" d="M111.31,53.22,89.78,63.16a.34.34,0,0,0-.26.47.4.4,0,0,0,.41.31H101.1l10.68-10.67h0C111.6,53.13,111.45,53.11,111.31,53.22Z"/><path class="h" d="M34,37.58A2,2,0,0,0,36.38,39l3.5-.89.89,3.5a2,2,0,0,0,.9,1.22,2,2,0,0,0,2.93-2.18l-.89-3.51,3.51-.88a2,2,0,0,0-1-3.83l-3.51.88-.88-3.5a2,2,0,1,0-3.83,1l.88,3.5-3.5.89A2,2,0,0,0,34,37.58Z"/><path class="h" d="M99.58,24.82a2,2,0,0,0-.3,2.78l2.26,2.82-2.82,2.25A2,2,0,0,0,98,34a1.94,1.94,0,0,0,.42,1.45,2,2,0,0,0,2.78.31L104,33.5l2.26,2.82a2,2,0,0,0,3.08-2.47L107.09,31l2.82-2.26a2,2,0,1,0-2.47-3.08L104.62,28l-2.26-2.82A2,2,0,0,0,99.58,24.82Z"/></svg>