<svg id="图层_1" data-name="图层 1" xmlns="http://www.w3.org/2000/svg" viewBox="0 0 150 90"><defs><style>.cls-1{fill:#e6e6e6;}.cls-2{fill:#ccc;}.cls-3,.cls-5{fill:#39b54a;}.cls-3{opacity:0.8;}.cls-4{fill:#31993b;}.cls-6{opacity:0.14;}.cls-7{fill:#b3b3b3;}.cls-8{fill:#666;}.cls-9{fill:#e53553;}.cls-10{fill:#cc2e41;}.cls-11{fill:#cc832b;}.cls-12{fill:#e59033;}</style></defs><title>map</title><path class="cls-1" d="M125,67.5c0,1.62-.93,2.45-3.14,2.95L90.42,77.83,59,69l-28.3,7.37a3.26,3.26,0,0,1-3.14-2.95V20.32a3.06,3.06,0,0,1,3.14-2.95L45,13.64,59,10l31.44,8.85,31.44-7.37A3.06,3.06,0,0,1,125,14.42Z"/><path class="cls-2" d="M90.87,77.83,59.31,69V10l31.56,8.85q0,5.18,0,10.35Q90.87,53.51,90.87,77.83Z"/><path class="cls-3" d="M39.61,60.77h-.14a1.5,1.5,0,0,1-1.36-1.63l.36-3.94a1.5,1.5,0,1,1,3,.28l-.36,3.94A1.5,1.5,0,0,1,39.61,60.77Z"/><path class="cls-4" d="M87.82,55.2q-1,0-2.14-.06a1.5,1.5,0,1,1,.17-3,32,32,0,0,0,3.77,0,1.5,1.5,0,1,1,.18,3Q88.84,55.2,87.82,55.2Z"/><path class="cls-4" d="M79,53.85a1.5,1.5,0,0,1-.56-.11,13.86,13.86,0,0,1-3.78-2.26,1.5,1.5,0,1,1,1.94-2.29,10.81,10.81,0,0,0,3,1.77A1.5,1.5,0,0,1,79,53.85Z"/><path class="cls-5" d="M96.46,53.79a1.5,1.5,0,0,1-.54-2.9A12.3,12.3,0,0,0,99,49.21a1.5,1.5,0,0,1,1.82,2.38A15.23,15.23,0,0,1,97,53.69,1.48,1.48,0,0,1,96.46,53.79Z"/><path class="cls-3" d="M40.61,49.94h-.14a1.5,1.5,0,0,1-1.35-1.63l.37-3.94a1.5,1.5,0,0,1,3,.29l-.37,3.93A1.5,1.5,0,0,1,40.61,49.94Z"/><path class="cls-4" d="M71.91,46.12a1.5,1.5,0,0,1-1.43-1,19.44,19.44,0,0,1-.85-4.19,1.5,1.5,0,1,1,3-.28,16.44,16.44,0,0,0,.72,3.54,1.5,1.5,0,0,1-1,1.89A1.52,1.52,0,0,1,71.91,46.12Z"/><path class="cls-3" d="M103.22,46.09H103a1.5,1.5,0,0,1-1.31-1.67l.48-3.93a1.5,1.5,0,0,1,3,.37l-.48,3.93A1.5,1.5,0,0,1,103.22,46.09Z"/><path class="cls-3" d="M41.66,39.12h-.15a1.5,1.5,0,0,1-1.34-1.64c.15-1.5.28-2.68.37-3.4,0-.2.05-.4.08-.61a1.5,1.5,0,0,1,3,.46c0,.17-.05.34-.07.51-.08.71-.21,1.87-.36,3.34A1.5,1.5,0,0,1,41.66,39.12Z"/><path class="cls-4" d="M71.35,35.35h0a1.5,1.5,0,0,1-1.47-1.53v-.28a14.13,14.13,0,0,0-.36-3.27,1.5,1.5,0,0,1,2.92-.69,17.19,17.19,0,0,1,.44,4v.34A1.5,1.5,0,0,1,71.35,35.35Z"/><path class="cls-3" d="M104.54,35.29h-.18A1.5,1.5,0,0,1,103,33.61l.48-3.93a1.5,1.5,0,0,1,3,.36L106,34A1.5,1.5,0,0,1,104.54,35.29Z"/><path class="cls-3" d="M44.48,28.74a1.5,1.5,0,0,1-1.26-2.31,14.57,14.57,0,0,1,2.9-3.29A1.5,1.5,0,1,1,48,25.44a11.52,11.52,0,0,0-2.3,2.61A1.5,1.5,0,0,1,44.48,28.74Z"/><path class="cls-4" d="M67.44,25.62a1.49,1.49,0,0,1-.95-.34,10.35,10.35,0,0,0-3-1.67,1.5,1.5,0,0,1,1-2.82A13.34,13.34,0,0,1,68.39,23a1.5,1.5,0,0,1-.95,2.66Z"/><path class="cls-3" d="M53.3,22.94A1.5,1.5,0,0,1,53,20a21.18,21.18,0,0,1,4-.37h.22a1.5,1.5,0,0,1,0,3H57a18.15,18.15,0,0,0-3.44.31Z"/><path class="cls-3" d="M105.87,24.44h-.18a1.5,1.5,0,0,1-1.31-1.67l.24-2a1.5,1.5,0,0,1,3,.36l-.24,2A1.5,1.5,0,0,1,105.87,24.44Z"/><path class="cls-6" d="M121.86,68.63,90.42,76,59,67.17,30.68,74.5a3,3,0,0,1-3.14-2.93v1.86a3.26,3.26,0,0,0,3.14,2.93L59,69l31.44,8.8,31.44-7.34c2.22-.49,3.14-1.32,3.14-2.93V65.7C125,67.31,124.07,68.14,121.86,68.63Z"/><polygon class="cls-7" points="44.89 68.41 59.05 64.76 59.05 60.83 56 59 49.66 62.16 46 61 38.61 65.01 35 61 32 67.2 32 71.74 44.89 68.41"/><polygon class="cls-8" points="73.16 68.41 59 64.76 59 60.83 65.34 59.53 68.39 62.16 75 55 78 64 83 63 86.05 67.2 86.05 71.74 73.16 68.41"/><path class="cls-9" d="M89.93,63.94a.41.41,0,0,1-.41-.31.33.33,0,0,1,.26-.47l21.53-9.95a.35.35,0,0,1,.47.05h0l3.79-3.79h0a18.35,18.35,0,0,0-26,26h0L101.1,63.94Z"/><path class="cls-10" d="M115.57,75.43a18.35,18.35,0,0,0,0-26l-3.79,3.79a.35.35,0,0,1,.05.47l-9.94,21.55a.36.36,0,0,1-.36.26h-.11a.41.41,0,0,1-.31-.41V63.94h0L89.62,75.43A18.35,18.35,0,0,0,115.57,75.43Z"/><path class="cls-11" d="M101.12,63.94V75.13a.41.41,0,0,0,.31.41h.11a.36.36,0,0,0,.36-.26l9.94-21.55a.35.35,0,0,0-.05-.47L101.1,63.94Z"/><path class="cls-12" d="M111.31,53.22,89.78,63.16a.33.33,0,0,0-.26.47.41.41,0,0,0,.41.31H101.1l10.67-10.67h0A.35.35,0,0,0,111.31,53.22Z"/><path class="cls-8" d="M34,37.58A2,2,0,0,0,36.38,39l3.5-.89.89,3.5a2,2,0,1,0,3.83-1l-.89-3.5,3.5-.89a2,2,0,0,0-1-3.83l-3.5.89-.89-3.5a2,2,0,0,0-3.83,1l.89,3.5-3.5.89A2,2,0,0,0,34,37.58Z"/><path class="cls-8" d="M99.58,24.82a2,2,0,0,0-.31,2.78l2.26,2.82-2.82,2.26a2,2,0,0,0,2.47,3.08L104,33.5l2.26,2.82a2,2,0,0,0,3.08-2.47L107.09,31l2.82-2.26a2,2,0,1,0-2.47-3.08l-2.82,2.26-2.26-2.82A2,2,0,0,0,99.58,24.82Z"/></svg>