<svg xmlns="http://www.w3.org/2000/svg" viewBox="0 0 150 90"><defs><style>.a{fill:#7acc7a;}.b{fill:#6a996a;}.c{fill:#e59033;}.d{fill:#c1772d;}.e{opacity:0.14;}.f{opacity:0.52;}.g{fill:#e2e2e2;}.h{fill:#666;}.i{fill:#e53553;}.j{fill:#cc2e41;}.k{fill:#cc832b;}.l{fill:#29abe2;opacity:0.65;}.m{fill:#fff;}.n{fill:#ccc;}.o{fill:#992029;}.p{fill:#c1272d;}</style></defs><title>map_green</title><path class="a" d="M126,65.5c0,1.63-.93,2.46-3.14,3L91.42,75.83,60,67l-28.3,7.37a3.26,3.26,0,0,1-3.14-2.95V18.32a3.06,3.06,0,0,1,3.14-3L46,11.64,60,8l31.44,8.85,31.44-7.38A3.06,3.06,0,0,1,126,12.42Z"/><path class="b" d="M91.87,75.83,60.31,67V8l31.56,8.85v59Z"/><path class="c" d="M40.61,58.77h-.14a1.5,1.5,0,0,1-1.36-1.63l.37-3.94a1.5,1.5,0,0,1,3,.28l-.36,3.94A1.49,1.49,0,0,1,40.61,58.77Z"/><path class="d" d="M87.82,53.2c-.7,0-1.41,0-2.14-.06a1.5,1.5,0,0,1-1.41-1.58,1.48,1.48,0,0,1,1.58-1.41,33.83,33.83,0,0,0,3.77,0,1.5,1.5,0,0,1,.18,3C89.16,53.18,88.5,53.2,87.82,53.2Z"/><path class="d" d="M80,51.85a1.36,1.36,0,0,1-.56-.11,13.8,13.8,0,0,1-3.79-2.26,1.5,1.5,0,0,1,2-2.29,10.68,10.68,0,0,0,3,1.77A1.5,1.5,0,0,1,80,51.85Z"/><path class="c" d="M97.46,51.79a1.5,1.5,0,0,1-.53-2.9A12.2,12.2,0,0,0,100,47.21a1.5,1.5,0,0,1,1.82,2.38A15.26,15.26,0,0,1,98,51.69,1.47,1.47,0,0,1,97.46,51.79Z"/><path class="c" d="M41.83,47.81l-.13,0a1.5,1.5,0,0,1-1-1.9L42,42.12a1.5,1.5,0,0,1,2.85,1l-1.26,3.75A1.5,1.5,0,0,1,41.83,47.81Z"/><path class="d" d="M72.91,44.12a1.48,1.48,0,0,1-1.42-1,18.86,18.86,0,0,1-.85-4.19,1.5,1.5,0,1,1,3-.28,16.21,16.21,0,0,0,.72,3.54,1.49,1.49,0,0,1-1,1.89A1.55,1.55,0,0,1,72.91,44.12Z"/><path class="c" d="M104.22,44.09H104a1.51,1.51,0,0,1-1.31-1.68l.48-3.92a1.5,1.5,0,0,1,3,.36l-.48,3.93A1.5,1.5,0,0,1,104.22,44.09Z"/><path class="c" d="M44.56,38.23l-.12-.1a1.5,1.5,0,0,1,0-2.12c1.05-1.08,1.88-1.93,2.4-2.44l.44-.43a1.5,1.5,0,0,1,2,2.21c-.13.11-.25.23-.37.35-.51.51-1.33,1.34-2.36,2.4A1.49,1.49,0,0,1,44.56,38.23Z"/><path class="d" d="M69.21,35.52v0a1.5,1.5,0,0,1-2.07.46l-.24-.15a14.26,14.26,0,0,0-3-1.4,1.5,1.5,0,1,1,.93-2.85,17,17,0,0,1,3.61,1.69l.29.18A1.49,1.49,0,0,1,69.21,35.52Z"/><path class="c" d="M105.54,33.29h-.18a1.5,1.5,0,0,1-1.31-1.67l.48-3.93a1.5,1.5,0,0,1,3,.36L107,32A1.5,1.5,0,0,1,105.54,33.29Z"/><path class="c" d="M52.91,31.14a1.45,1.45,0,0,1,1-.27,10.52,10.52,0,0,0,3.42-.35,1.5,1.5,0,1,1,.76,2.9,13.19,13.19,0,0,1-4.4.44,1.5,1.5,0,0,1-.75-2.72Z"/><path class="c" d="M106.87,22.44h-.19a1.5,1.5,0,0,1-1.3-1.67l.24-2a1.5,1.5,0,1,1,3,.37l-.25,2A1.49,1.49,0,0,1,106.87,22.44Z"/><path class="e" d="M122.86,66.63,91.42,74,60,65.17,31.68,72.5a3,3,0,0,1-3.14-2.93v1.85a3.26,3.26,0,0,0,3.14,2.94L60,67l31.44,8.81,31.44-7.34c2.21-.49,3.14-1.32,3.14-2.93V63.7C126,65.31,125.07,66.14,122.86,66.63Z"/><g class="f"><polygon class="g" points="45.89 66.41 60.05 62.76 60.05 58.83 57 57 50.66 60.16 44 60 39.61 63.01 37 59 33 65.2 33 69.74 45.89 66.41"/></g><g class="f"><polygon class="h" points="74.01 67.44 60.07 63.01 60.29 59.08 66.7 58.14 69.59 60.94 76 55 80.46 64.39 84 63 86.94 66.95 86.69 71.48 74.01 67.44"/></g><g class="f"><polygon class="g" points="109.89 67.41 124.05 63.76 124.05 59.83 117.71 58.53 114.66 61.16 107.92 59.76 103.61 64.01 100.21 63.05 97 66.2 97 70.74 109.89 67.41"/></g><path class="i" d="M88.93,67.71a.35.35,0,0,1-.35-.27.28.28,0,0,1,.22-.39l18.14-8.38a.3.3,0,0,1,.39,0h0l3.19-3.2h0A15.46,15.46,0,0,0,88.66,77.38h0l9.68-9.67Z"/><path class="j" d="M110.52,77.38a15.45,15.45,0,0,0,0-21.86l-3.19,3.2a.3.3,0,0,1,0,.39L99,77.26a.31.31,0,0,1-.3.22h-.09a.33.33,0,0,1-.26-.35V67.71h0l-9.68,9.67A15.45,15.45,0,0,0,110.52,77.38Z"/><path class="k" d="M98.35,67.71v9.42a.33.33,0,0,0,.26.35h.09a.31.31,0,0,0,.3-.22l8.37-18.15a.3.3,0,0,0,0-.39l-9,9Z"/><path class="c" d="M106.94,58.67,88.8,67.05a.28.28,0,0,0-.22.39.35.35,0,0,0,.35.27h9.41l9-9h0A.3.3,0,0,0,106.94,58.67Z"/><path class="l" d="M37,14c3,4-1,7.76,3,9,3.06.95,7.39-1.8,7,0-1.2,5.55,9.47,5.39,13,4,.64-.25,8,5,13,2s1-8,1-10,3-1,4-2,0-4,0-4L60,8,37,14Z"/><path class="m" d="M105.59,19.59a2,2,0,0,1,2.82,0l.65-.65a2.91,2.91,0,0,0-4.12,4.12l.65-.65A2,2,0,0,1,105.59,19.59Z"/><path class="n" d="M109.06,23.06a2.91,2.91,0,0,0,0-4.12l-.65.65a2,2,0,0,1-2.82,2.82l-.65.65A2.91,2.91,0,0,0,109.06,23.06Z"/><path class="o" d="M109.89,18.11l-.42.42-.41.41a2.91,2.91,0,0,1-4.12,4.12l-.41.41-.42.42a4.09,4.09,0,0,0,5.78-5.78Z"/><path class="p" d="M104.11,18.11a4.1,4.1,0,0,0,0,5.78l.42-.42.41-.41a2.91,2.91,0,0,1,4.12-4.12l.41-.41.42-.42A4.1,4.1,0,0,0,104.11,18.11Z"/><path class="p" d="M105.59,19.59a2,2,0,0,0,0,2.82l2.82-2.82A2,2,0,0,0,105.59,19.59Z"/><path class="o" d="M108.41,22.41a2,2,0,0,0,0-2.82l-2.82,2.82A2,2,0,0,0,108.41,22.41Z"/></svg>