<svg id="图层_1" data-name="图层 1" xmlns="http://www.w3.org/2000/svg" viewBox="0 0 150 90"><defs><style>.cls-1{fill:#7acc7a;}.cls-2{fill:#6a996a;}.cls-3{fill:#e59033;}.cls-4{fill:#c1772d;}.cls-5{opacity:0.14;}.cls-6{opacity:0.52;}.cls-7{fill:#e2e2e2;}.cls-8{fill:#666;}.cls-9{fill:#e53553;}.cls-10{fill:#cc2e41;}.cls-11{fill:#cc832b;}.cls-12{fill:#29abe2;opacity:0.65;}.cls-13{fill:#fff;}.cls-14{fill:#ccc;}.cls-15{fill:#992029;}.cls-16{fill:#c1272d;}</style></defs><title>map_green</title><path class="cls-1" d="M126,65.5c0,1.62-.93,2.45-3.14,2.95L91.42,75.83,60,67l-28.3,7.37a3.26,3.26,0,0,1-3.14-2.95V18.32a3.06,3.06,0,0,1,3.14-2.95L46,11.64,60,8l31.44,8.85,31.44-7.37A3.06,3.06,0,0,1,126,12.42Z"/><path class="cls-2" d="M91.87,75.83,60.31,67V8l31.56,8.85q0,5.18,0,10.35Q91.87,51.51,91.87,75.83Z"/><path class="cls-3" d="M40.61,58.77h-.14a1.5,1.5,0,0,1-1.36-1.63l.36-3.94a1.5,1.5,0,1,1,3,.28l-.36,3.94A1.5,1.5,0,0,1,40.61,58.77Z"/><path class="cls-4" d="M87.82,53.2q-1,0-2.14-.06a1.5,1.5,0,1,1,.17-3,32,32,0,0,0,3.77,0,1.5,1.5,0,1,1,.18,3Q88.84,53.2,87.82,53.2Z"/><path class="cls-4" d="M80,51.85a1.5,1.5,0,0,1-.56-.11,13.86,13.86,0,0,1-3.78-2.26,1.5,1.5,0,1,1,1.94-2.29,10.81,10.81,0,0,0,3,1.77A1.5,1.5,0,0,1,80,51.85Z"/><path class="cls-3" d="M97.46,51.79a1.5,1.5,0,0,1-.54-2.9A12.3,12.3,0,0,0,100,47.21a1.5,1.5,0,0,1,1.82,2.38A15.23,15.23,0,0,1,98,51.69,1.48,1.48,0,0,1,97.46,51.79Z"/><path class="cls-3" d="M41.83,47.81l-.14,0a1.5,1.5,0,0,1-.95-1.9L42,42.12a1.5,1.5,0,1,1,2.84,1l-1.25,3.75A1.5,1.5,0,0,1,41.83,47.81Z"/><path class="cls-4" d="M72.91,44.12a1.5,1.5,0,0,1-1.43-1,19.44,19.44,0,0,1-.85-4.19,1.5,1.5,0,1,1,3-.28,16.44,16.44,0,0,0,.72,3.54,1.5,1.5,0,0,1-1,1.89A1.52,1.52,0,0,1,72.91,44.12Z"/><path class="cls-3" d="M104.22,44.09H104a1.5,1.5,0,0,1-1.31-1.67l.48-3.93a1.5,1.5,0,0,1,3,.37l-.48,3.93A1.5,1.5,0,0,1,104.22,44.09Z"/><path class="cls-3" d="M44.56,38.23l-.12-.1a1.5,1.5,0,0,1,0-2.12c1-1.08,1.88-1.93,2.4-2.44l.44-.42a1.5,1.5,0,0,1,2,2.2l-.37.36c-.51.5-1.33,1.34-2.36,2.4A1.5,1.5,0,0,1,44.56,38.23Z"/><path class="cls-4" d="M69.21,35.52l0,0a1.5,1.5,0,0,1-2.07.46l-.24-.15a14.13,14.13,0,0,0-3-1.4,1.5,1.5,0,0,1,.93-2.85,17.19,17.19,0,0,1,3.61,1.69l.29.18A1.5,1.5,0,0,1,69.21,35.52Z"/><path class="cls-3" d="M105.54,33.29h-.18A1.5,1.5,0,0,1,104,31.61l.48-3.93a1.5,1.5,0,0,1,3,.36L107,32A1.5,1.5,0,0,1,105.54,33.29Z"/><path class="cls-3" d="M52.91,31.14a1.49,1.49,0,0,1,1-.27,10.35,10.35,0,0,0,3.41-.35,1.5,1.5,0,0,1,.76,2.9,13.34,13.34,0,0,1-4.4.44,1.5,1.5,0,0,1-.75-2.73Z"/><path class="cls-3" d="M106.87,22.44h-.18a1.5,1.5,0,0,1-1.31-1.67l.24-2a1.5,1.5,0,0,1,3,.36l-.24,2A1.5,1.5,0,0,1,106.87,22.44Z"/><path class="cls-5" d="M122.86,66.63,91.42,74,60,65.17,31.68,72.5a3,3,0,0,1-3.14-2.93v1.86a3.26,3.26,0,0,0,3.14,2.93L60,67l31.44,8.8,31.44-7.34c2.22-.49,3.14-1.32,3.14-2.93V63.7C126,65.31,125.07,66.14,122.86,66.63Z"/><g class="cls-6"><polygon class="cls-7" points="45.89 66.41 60.05 62.76 60.05 58.83 57 57 50.66 60.16 44 60 39.61 63.01 37 59 33 65.2 33 69.74 45.89 66.41"/></g><g class="cls-6"><polygon class="cls-8" points="74.01 67.44 60.07 63.01 60.29 59.08 66.7 58.14 69.59 60.94 76 55 80.46 64.39 84 63 86.94 66.95 86.69 71.48 74.01 67.44"/></g><g class="cls-6"><polygon class="cls-7" points="109.89 67.41 124.05 63.76 124.05 59.83 117.71 58.53 114.66 61.16 107.92 59.76 103.61 64.01 100.21 63.05 97 66.2 97 70.74 109.89 67.41"/></g><path class="cls-9" d="M88.93,67.71a.34.34,0,0,1-.35-.26.28.28,0,0,1,.22-.39l18.13-8.38a.3.3,0,0,1,.39,0h0l3.2-3.2h0A15.46,15.46,0,0,0,88.66,77.38h0l9.68-9.68Z"/><path class="cls-10" d="M110.52,77.38a15.46,15.46,0,0,0,0-21.86l-3.2,3.2a.3.3,0,0,1,0,.39L99,77.26a.31.31,0,0,1-.3.22h-.09a.34.34,0,0,1-.26-.35V67.71h0l-9.68,9.68A15.46,15.46,0,0,0,110.52,77.38Z"/><path class="cls-11" d="M98.35,67.71v9.43a.34.34,0,0,0,.26.35h.09a.31.31,0,0,0,.3-.22l8.37-18.15a.3.3,0,0,0,0-.39l-9,9Z"/><path class="cls-3" d="M106.94,58.67,88.8,67.05a.28.28,0,0,0-.22.39.34.34,0,0,0,.35.26h9.41l9-9h0A.3.3,0,0,0,106.94,58.67Z"/><path class="cls-12" d="M37,14c3,4-1,7.76,3,9,3.06,1,7.39-1.8,7,0-1.2,5.55,9.47,5.39,13,4,.64-.25,8,5,13,2s1-8,1-10,3-1,4-2,0-4,0-4L60,8,37,14Z"/><path class="cls-13" d="M105.59,19.59a2,2,0,0,1,2.83,0l.65-.65a2.92,2.92,0,1,0-4.12,4.12l.65-.65A2,2,0,0,1,105.59,19.59Z"/><path class="cls-14" d="M109.06,23.06a2.92,2.92,0,0,0,0-4.12l-.65.65a2,2,0,1,1-2.83,2.83l-.65.65A2.92,2.92,0,0,0,109.06,23.06Z"/><path class="cls-15" d="M109.89,18.11l-.41.41-.41.41a2.92,2.92,0,1,1-4.12,4.12l-.41.41-.41.41a4.08,4.08,0,0,0,5.77-5.77Z"/><path class="cls-16" d="M104.11,18.11a4.09,4.09,0,0,0,0,5.77l.41-.41.41-.41a2.92,2.92,0,1,1,4.12-4.12l.41-.41.41-.41A4.09,4.09,0,0,0,104.11,18.11Z"/><path class="cls-16" d="M105.59,19.59a2,2,0,0,0,0,2.83l2.83-2.83A2,2,0,0,0,105.59,19.59Z"/><path class="cls-15" d="M108.41,22.41a2,2,0,0,0,0-2.83l-2.83,2.83A2,2,0,0,0,108.41,22.41Z"/></svg>