<svg xmlns="http://www.w3.org/2000/svg" viewBox="0 0 150 90"><defs><style>.a{fill:#e6e6e6;}.b{fill:#ccc;}.c{fill:#2d2d2d;}.d{fill:#0071bc;}.e{fill:#0088d3;}.f{fill:#d82e3a;}.g{fill:#c1272d;}.h{opacity:0.2;}.i{opacity:0.14;}.j{fill:#ddac7c;}.k{fill:#c69c6d;}</style></defs><title>mynode</title><path class="a" d="M28.82,7A6.89,6.89,0,0,0,22,13.87V76.13A6.89,6.89,0,0,0,28.82,83H75.5V7Z"/><path class="b" d="M122.18,7H75.5V83h46.68a6.89,6.89,0,0,0,6.87-6.87V13.87A6.89,6.89,0,0,0,122.18,7Z"/><path class="c" d="M50,27.3V22h-.16a9.7,9.7,0,0,0-9,6c.52,0,1,0,1.56,0A40.78,40.78,0,0,0,50,27.3Z"/><path d="M57.1,25.27A9.69,9.69,0,0,0,50,22V27.3A40.43,40.43,0,0,0,57.1,25.27Z"/><path class="d" d="M50,32.16H63.7a.93.93,0,0,0,0-1.85H59.43a9.79,9.79,0,0,0-2.33-5,40.43,40.43,0,0,1-7.1,2Z"/><path class="e" d="M50,27.3a40.78,40.78,0,0,1-7.55.7c-.52,0-1,0-1.56,0a9.68,9.68,0,0,0-.75,3.74c0,.15,0,.31,0,.46H50Z"/><path class="f" d="M43.35,43a15.94,15.94,0,0,0-9.46,14.56H50V45.66A9.64,9.64,0,0,1,43.35,43Z"/><path class="g" d="M56.56,43.11A9.67,9.67,0,0,1,50,45.66v11.9H65.79A15.92,15.92,0,0,0,56.56,43.11Z"/><rect class="h" x="38.1" y="64" width="22.9" height="4" rx="1.02" ry="1.02"/><rect class="h" x="93.3" y="27" width="27.9" height="5" rx="1.02" ry="1.02"/><circle class="h" cx="86.7" cy="29.5" r="2.5"/><rect class="h" x="93.3" y="37.67" width="27.9" height="5" rx="1.02" ry="1.02"/><circle class="h" cx="86.7" cy="40.17" r="2.5"/><rect class="h" x="93.3" y="48.33" width="27.9" height="5" rx="1.02" ry="1.02"/><circle class="h" cx="86.7" cy="50.83" r="2.5"/><rect class="h" x="93.3" y="59" width="27.9" height="5" rx="1.02" ry="1.02"/><circle class="h" cx="86.7" cy="61.5" r="2.5"/><path class="i" d="M124.5,79.24h-98a6.5,6.5,0,0,1-4.42-1.75A6.53,6.53,0,0,0,28.5,83h94a6.53,6.53,0,0,0,6.42-5.51A6.5,6.5,0,0,1,124.5,79.24Z"/><path class="j" d="M40.17,32.16a8,8,0,0,0,.08.84,9.69,9.69,0,0,0,9.59,8.4H50V32.16Z"/><path class="k" d="M56.31,32.16H50v9.23A9.69,9.69,0,0,0,59.44,33c0-.28.06-.56.08-.84Z"/><path class="i" d="M56.31,32.16H40.17a8,8,0,0,0,.08.84H59.44c0-.28.06-.56.08-.84Z"/></svg>