<svg id="图层_1" data-name="图层 1" xmlns="http://www.w3.org/2000/svg" viewBox="0 0 150 90"><defs><style>.cls-1{fill:#e6e6e6;}.cls-2{fill:#ccc;}.cls-3{fill:#2d2d2d;}.cls-4{fill:#0071bc;}.cls-5{fill:#0088d3;}.cls-6{fill:#d82e3a;}.cls-7{fill:#c1272d;}.cls-8{opacity:0.2;}.cls-9{opacity:0.14;}.cls-10{fill:#ddac7c;}.cls-11{fill:#c69c6d;}</style></defs><title>mynode</title><path class="cls-1" d="M28.82,7A6.89,6.89,0,0,0,22,13.87V76.13A6.89,6.89,0,0,0,28.82,83H75.5V7Z"/><path class="cls-2" d="M122.18,7H75.5V83h46.68A6.89,6.89,0,0,0,129,76.13V13.87A6.89,6.89,0,0,0,122.18,7Z"/><path class="cls-3" d="M50,27.3V22h-.16a9.7,9.7,0,0,0-9,6c.52,0,1,0,1.56,0A40.61,40.61,0,0,0,50,27.3Z"/><path d="M57.1,25.27A9.66,9.66,0,0,0,50,22V27.3A40.57,40.57,0,0,0,57.1,25.27Z"/><path class="cls-4" d="M50,32.16H63.7a.92.92,0,0,0,0-1.85H59.43a9.67,9.67,0,0,0-2.34-5,40.57,40.57,0,0,1-7.1,2Z"/><path class="cls-5" d="M50,27.3a40.61,40.61,0,0,1-7.55.71c-.52,0-1,0-1.56,0a9.66,9.66,0,0,0-.75,3.73c0,.16,0,.31,0,.46H50Z"/><path class="cls-6" d="M43.35,43a15.94,15.94,0,0,0-9.45,14.56H50V45.66A9.67,9.67,0,0,1,43.35,43Z"/><path class="cls-7" d="M56.56,43.11A9.67,9.67,0,0,1,50,45.66v11.9H65.79A15.93,15.93,0,0,0,56.56,43.11Z"/><rect class="cls-8" x="38.1" y="64" width="22.9" height="4" rx="1.02" ry="1.02"/><rect class="cls-8" x="93.3" y="27" width="27.9" height="5" rx="1.02" ry="1.02"/><circle class="cls-8" cx="86.7" cy="29.5" r="2.5"/><rect class="cls-8" x="93.3" y="37.67" width="27.9" height="5" rx="1.02" ry="1.02"/><circle class="cls-8" cx="86.7" cy="40.17" r="2.5"/><rect class="cls-8" x="93.3" y="48.33" width="27.9" height="5" rx="1.02" ry="1.02"/><circle class="cls-8" cx="86.7" cy="50.83" r="2.5"/><rect class="cls-8" x="93.3" y="59" width="27.9" height="5" rx="1.02" ry="1.02"/><circle class="cls-8" cx="86.7" cy="61.5" r="2.5"/><path class="cls-9" d="M124.5,79.24h-98a6.47,6.47,0,0,1-4.42-1.75A6.52,6.52,0,0,0,28.5,83h94a6.52,6.52,0,0,0,6.42-5.51A6.47,6.47,0,0,1,124.5,79.24Z"/><path class="cls-10" d="M40.17,32.16c0,.28,0,.56.08.84a9.69,9.69,0,0,0,9.59,8.4H50V32.16Z"/><path class="cls-11" d="M56.31,32.16H50v9.23A9.68,9.68,0,0,0,59.44,33c0-.28.07-.56.08-.84Z"/><path class="cls-9" d="M56.31,32.16H40.17c0,.28,0,.56.08.84H59.44c0-.28.07-.56.08-.84Z"/></svg>