<svg xmlns="http://www.w3.org/2000/svg" viewBox="0 0 150 90"><defs><style>.a{fill:#e6e6e6;}.b{fill:#ccc;}.c{opacity:0.14;}.d{opacity:0.22;}.e{fill:none;}.f{fill:#c1272d;}.g{fill:#e5303e;}.h{fill:#39b54a;}.i{fill:#31993b;}.j{fill:#cc832b;}.k{fill:#e59033;}</style></defs><title>navigate</title><path class="a" d="M50.7,49.88a9.46,9.46,0,0,0-6.34,2.8L22.71,78.13c-1.31,1.55.92,2.81,5,2.81h50l-.1-31Z"/><path class="b" d="M104.39,50l-26.85-.05.1,31h50c4,0,6.27-1.26,4.94-2.8l-21.8-25.35A9.58,9.58,0,0,0,104.39,50Z"/><path class="c" d="M128.87,79.26H26.12a7.69,7.69,0,0,1-3.93-.81C21.47,79.88,23.42,81,26.91,81H128.09c3.49,0,5.44-1.11,4.71-2.55A7.66,7.66,0,0,1,128.87,79.26Z"/><g class="d"><polygon points="77 74.93 79.01 74.92 79.96 72.63 68.42 74.94 70.43 74.93 60.94 76.61 66.88 76.61 63.78 77.69 66.22 77.69 68.67 77.69 71.45 76.6 77.39 76.6 77 74.93"/></g><g class="d"><polygon points="109.81 68.51 111.52 68.5 112.33 66.55 102.5 68.52 104.2 68.51 96.12 69.94 101.18 69.94 98.54 70.86 100.62 70.86 102.7 70.86 105.08 69.94 110.14 69.94 109.81 68.51"/></g><path class="e" d="M70.38,28.53A7.45,7.45,0,0,0,77.83,36h.23V21.09h-.23A7.45,7.45,0,0,0,70.38,28.53Z"/><path class="e" d="M85.28,28.53a7.44,7.44,0,0,0-7.22-7.44V36A7.44,7.44,0,0,0,85.28,28.53Z"/><path class="f" d="M96,28.53A18.16,18.16,0,0,0,78.06,10.37V21.09a7.44,7.44,0,0,1,0,14.87V64.3l14-24.51A18.1,18.1,0,0,0,96,28.53Z"/><path class="g" d="M77.83,36a7.45,7.45,0,1,1,0-14.89h.23V10.37h-.23A18.16,18.16,0,0,0,63.58,39.79L77.83,64.71l.23-.41V36Z"/><polygon class="h" points="66.22 59.03 59.87 67.51 62.28 67.51 57.42 73.69 63.78 73.69 66.22 73.69 66.22 59.03"/><polygon class="i" points="70.17 67.51 72.57 67.51 66.22 59.03 66.22 73.69 68.67 73.69 75.03 73.69 70.17 67.51"/><rect class="j" x="66.22" y="73.69" width="2.44" height="4"/><rect class="k" x="63.78" y="73.69" width="2.44" height="4"/><g class="d"><polygon points="64.58 54.08 65.54 54.08 66 52.98 60.45 54.09 61.42 54.08 56.86 54.89 59.71 54.89 58.22 55.41 59.4 55.41 60.57 55.41 61.91 54.88 64.76 54.88 64.58 54.08"/></g><g class="d"><polygon points="112.64 61.71 113.94 61.71 114.56 60.22 107.05 61.72 108.36 61.72 102.18 62.81 106.05 62.81 104.03 63.51 105.62 63.51 107.21 63.51 109.02 62.8 112.89 62.8 112.64 61.71"/></g><polygon class="h" points="59.4 46.44 56.34 50.52 57.5 50.52 55.16 53.48 58.22 53.48 59.4 53.48 59.4 46.44"/><polygon class="i" points="61.29 50.52 62.45 50.52 59.4 46.44 59.4 53.48 60.57 53.48 63.63 53.48 61.29 50.52"/><rect class="j" x="59.4" y="53.49" width="1.17" height="1.92"/><rect class="k" x="58.22" y="53.49" width="1.17" height="1.92"/><polygon class="h" points="105.62 51.36 101.49 56.89 103.05 56.89 99.89 60.91 104.03 60.91 105.62 60.91 105.62 51.36"/><polygon class="i" points="108.19 56.89 109.75 56.89 105.62 51.36 105.62 60.91 107.21 60.91 111.35 60.91 108.19 56.89"/><rect class="j" x="105.62" y="60.91" width="1.59" height="2.6"/><rect class="k" x="104.03" y="60.91" width="1.59" height="2.6"/><polygon class="h" points="100.6 55.09 95.17 62.34 97.23 62.34 93.08 67.62 98.51 67.62 100.6 67.62 100.6 55.09"/><polygon class="i" points="103.97 62.34 106.03 62.34 100.6 55.09 100.6 67.62 102.69 67.62 108.13 67.62 103.97 62.34"/><rect class="j" x="100.6" y="67.62" width="2.09" height="3.42"/><rect class="k" x="98.51" y="67.62" width="2.09" height="3.42"/><g class="d"><polygon points="48.27 67.69 49.73 67.69 50.43 66.02 42.02 67.7 43.48 67.7 36.58 68.92 40.9 68.91 38.64 69.7 40.42 69.7 42.2 69.7 44.23 68.91 48.56 68.91 48.27 67.69"/></g><polygon class="h" points="40.4 56.29 35.75 62.51 37.52 62.51 33.95 67.03 38.61 67.03 40.4 67.03 40.4 56.29"/><polygon class="i" points="43.29 62.51 45.05 62.51 40.4 56.29 40.4 67.03 42.19 67.03 46.85 67.03 43.29 62.51"/><rect class="j" x="40.4" y="67.03" width="1.79" height="2.93"/><rect class="k" x="38.61" y="67.03" width="1.79" height="2.93"/></svg>