<svg xmlns="http://www.w3.org/2000/svg" viewBox="0 0 150 90"><defs><style>.a{fill:#e6e6e6;}.b{fill:#ccc;}.c{opacity:0.14;}.d{fill:#fabd2e;}.e{fill:#f9d530;}.f{fill:#eeaa21;}.g{fill:#f9be2c;}.h,.r{fill:#fff;}.h{opacity:0.59;}.i{fill:#f59d00;}.j{fill:#968b84;}.k{fill:#e53553;}.l{fill:#c1272d;}.m{fill:#00adea;}.n{fill:#0088d3;}.o{fill:#424242;}.p{fill:#262626;}.q{fill:#e5e5e5;}.s{fill:#999;}.t{fill:#bbb;}.u{fill:#1a1a1a;opacity:0.27;}.v{fill:#c2a174;}.w{fill:#ccba89;}.x{fill:#fffbfb;}.y{fill:#e4d0a1;}.ae,.z{fill:none;stroke-miterlimit:10;}.z{stroke:#ccc;stroke-width:0.22px;}.aa{fill:#939490;}.ab{fill:#fac1c5;}.ac{fill:#ffbec0;}.ad{fill:#e7e7e7;}.ae{stroke:#ae9565;stroke-width:0.11px;}.af,.ag{fill:#ae9364;}.af{opacity:0.33;}</style></defs><title>parcel</title><path class="a" d="M48.2,48.88a9.46,9.46,0,0,0-6.34,2.8L20.21,77.13c-1.31,1.55.92,2.81,5,2.81h50l-.1-31Z"/><path class="b" d="M101.89,49,75,48.94l.1,31h50c4,0,6.27-1.26,4.94-2.8l-21.8-25.35A9.58,9.58,0,0,0,101.89,49Z"/><path class="c" d="M126.37,78.26H23.62a7.69,7.69,0,0,1-3.93-.81C19,78.88,20.92,80,24.41,80H125.59c3.49,0,5.44-1.11,4.71-2.55A7.66,7.66,0,0,1,126.37,78.26Z"/><path class="d" d="M125,41.93a5.9,5.9,0,0,0-2.33-4.17h0a3.51,3.51,0,0,0-.4-.27l-6-4.08a.22.22,0,0,0,0-.08L108.5,21.24,76.42,41.93Z"/><path class="e" d="M108.5,21.24l-4-6.26a7.29,7.29,0,0,0-6.75-3.34l-.4,0H39a3.15,3.15,0,0,0-3.14,3.15V41.93H76.42Z"/><path class="f" d="M125,41.93H76.42L50.14,58.87h69A5.89,5.89,0,0,0,125,53V42.47C125,42.28,125,42.11,125,41.93Z"/><path class="g" d="M35.84,41.93v13.8A3.15,3.15,0,0,0,39,58.87H50.14L76.42,41.93Z"/><rect class="h" x="43.86" y="19.73" width="36.56" height="17.29" rx="2.89" ry="2.89"/><rect class="i" x="43.86" y="19.73" width="36.56" height="17.29" rx="2.89" ry="2.89"/><path class="j" d="M116.08,50.4h0a2.45,2.45,0,0,0-2.23,2.44v6h7.36A3.79,3.79,0,0,0,125,55.08V50.4Z"/><path class="a" d="M121.74,45.05a2.54,2.54,0,0,0-2.54,2.54V50.4H125V45.05Z"/><path class="k" d="M41.63,48a2.89,2.89,0,0,0-2.89-2.9h-2.9v5.79h5.79Z"/><path class="l" d="M35.84,50.84V56a2.9,2.9,0,0,0,2.9,2.9h2.89v-8Z"/><path class="m" d="M104.62,20.87a1.94,1.94,0,0,0-1.55-.79H90.81A1.92,1.92,0,0,0,88.89,22V33.89L106,22.83Z"/><path class="n" d="M106,22.83,88.89,33.89v.77a1.92,1.92,0,0,0,1.92,1.92h18.45a1.92,1.92,0,0,0,1.92-1.92V30.51a1.9,1.9,0,0,0-.37-1.12Z"/><path class="o" d="M46.68,55.34a7.64,7.64,0,0,1,12.7-5.75l1.69-1.68a10.05,10.05,0,0,0-6.73-2.54,9.94,9.94,0,0,0-7.41,16.68l1.66-1.66A7.6,7.6,0,0,1,46.68,55.34Z"/><path class="p" d="M61.07,47.91l-1.69,1.68a7.65,7.65,0,1,1-10.79,10.8l-1.66,1.66a10,10,0,0,0,17.44-6.77A9.79,9.79,0,0,0,61.07,47.91Z"/><path class="q" d="M60.43,55.34a6.09,6.09,0,0,1-10.74,3.94l-1.1,1.11a7.65,7.65,0,1,0,10.79-10.8l-1.1,1.11A6.09,6.09,0,0,1,60.43,55.34Z"/><path class="r" d="M46.68,55.34a7.6,7.6,0,0,0,1.91,5l1.1-1.11a6.09,6.09,0,0,1,8.59-8.58l1.1-1.11a7.64,7.64,0,0,0-12.7,5.75Z"/><path class="s" d="M54.33,61.43a6.09,6.09,0,0,0,4-10.73l-8.59,8.58A6.06,6.06,0,0,0,54.33,61.43Z"/><path class="t" d="M54.34,49.24a6.09,6.09,0,0,0-4.65,10l8.59-8.58A6.06,6.06,0,0,0,54.34,49.24Z"/><path class="o" d="M93.49,55.34a7.64,7.64,0,0,1,12.7-5.75l1.69-1.68a10.05,10.05,0,0,0-6.73-2.54,9.94,9.94,0,0,0-7.41,16.68l1.66-1.66A7.6,7.6,0,0,1,93.49,55.34Z"/><path class="p" d="M107.88,47.91l-1.69,1.68A7.65,7.65,0,1,1,95.4,60.39l-1.66,1.66a10,10,0,0,0,17.44-6.77A9.79,9.79,0,0,0,107.88,47.91Z"/><path class="q" d="M107.24,55.34A6.09,6.09,0,0,1,96.5,59.28l-1.1,1.11a7.65,7.65,0,1,0,10.79-10.8l-1.1,1.11A6.09,6.09,0,0,1,107.24,55.34Z"/><path class="r" d="M93.49,55.34a7.6,7.6,0,0,0,1.91,5l1.1-1.11a6.09,6.09,0,0,1,8.59-8.58l1.1-1.11a7.64,7.64,0,0,0-12.7,5.75Z"/><path class="s" d="M101.14,61.43a6.09,6.09,0,0,0,4-10.73L96.5,59.28A6.06,6.06,0,0,0,101.14,61.43Z"/><path class="t" d="M101.15,49.24a6.09,6.09,0,0,0-4.65,10l8.59-8.58A6.06,6.06,0,0,0,101.15,49.24Z"/><polygon class="u" points="27.95 69.26 41.61 77.95 71.41 66.77 54.02 58.08 44.09 59.32 27.95 69.26"/><polygon class="v" points="59.19 56.67 59.19 68.96 42.65 78.6 42.65 66.31 59.19 56.67"/><polygon class="w" points="26.12 56.67 26.12 68.96 42.65 78.6 42.65 66.31 26.12 56.67"/><path class="x" d="M27.67,58.8v9.9L41,76.46V66.57ZM39.91,74.48c0-.22.13-.3.29-.2a.79.79,0,0,1,.29.59c0,.21-.13.3-.29.19A.78.78,0,0,1,39.91,74.48Zm0-2.23c0-.21.13-.31.29-.22a.69.69,0,0,1,.29.56c0,.22-.13.31-.29.22A.72.72,0,0,1,39.91,72.25Zm0-2.23c0-.21.13-.32.3-.24a.61.61,0,0,1,.29.53c0,.22-.13.33-.29.25A.65.65,0,0,1,39.9,70Zm0-2.22c0-.21.13-.34.3-.27a.56.56,0,0,1,.29.5c0,.22-.13.34-.29.28A.58.58,0,0,1,39.9,67.8ZM28,67.6c0-.22.13-.3.29-.2a.79.79,0,0,1,.29.59c0,.21-.13.3-.29.19A.78.78,0,0,1,28,67.6Zm0-2.23c0-.21.13-.31.3-.22a.69.69,0,0,1,.29.56c0,.22-.13.31-.29.22A.73.73,0,0,1,28,65.37Zm0-2.23c0-.21.13-.32.29-.24a.6.6,0,0,1,.3.53c0,.22-.13.33-.29.25A.63.63,0,0,1,28,63.14Zm0-2.22c0-.21.14-.34.3-.27a.55.55,0,0,1,.3.5c0,.22-.13.34-.3.28A.6.6,0,0,1,28,60.92Z"/><polygon class="y" points="59.19 56.65 42.65 66.31 26.12 56.65 42.65 47 59.19 56.65"/><line class="z" x1="27.67" y1="58.76" x2="40.99" y2="66.53"/><polygon class="aa" points="35.84 66.08 35.61 65.94 35.61 64.76 35.84 64.9 35.84 66.08"/><polygon class="aa" points="36.17 66.27 35.94 66.13 35.94 64.95 36.17 65.09 36.17 66.27"/><polygon class="aa" points="36.36 66.38 36.26 66.32 36.26 65.14 36.36 65.2 36.36 66.38"/><polygon class="aa" points="36.68 66.53 36.62 66.53 36.59 66.51 36.59 65.33 36.68 65.39 36.68 66.53"/><polygon class="aa" points="35.52 65.89 35.42 65.83 35.42 64.65 35.52 64.71 35.52 65.89"/><polygon class="aa" points="36.59 66.53 36.59 66.51 36.62 66.53 36.59 66.53"/><polygon class="aa" points="34.3 65.18 34.07 65.04 34.07 63.86 34.3 64 34.3 65.18"/><polygon class="aa" points="34.95 65.56 34.72 65.42 34.72 64.25 34.95 64.38 34.95 65.56"/><polygon class="aa" points="35.33 65.78 35.23 65.72 35.23 64.54 35.33 64.6 35.33 65.78"/><polygon class="aa" points="35.14 65.67 35.05 65.61 35.05 64.44 35.14 64.49 35.14 65.67"/><polygon class="aa" points="34.49 65.29 34.39 65.23 34.39 64.05 34.49 64.11 34.49 65.29"/><polygon class="aa" points="32.95 64.39 32.71 64.25 32.71 63.07 32.95 63.21 32.95 64.39"/><polygon class="aa" points="33.79 64.88 33.69 64.82 33.69 63.65 33.79 63.7 33.79 64.88"/><polygon class="aa" points="33.27 64.58 33.18 64.52 33.18 63.35 33.27 63.4 33.27 64.58"/><polygon class="aa" points="33.6 64.77 33.37 64.63 33.37 63.45 33.6 63.59 33.6 64.77"/><polygon class="aa" points="33.97 64.99 33.88 64.93 33.88 63.76 33.97 63.81 33.97 64.99"/><polygon class="aa" points="31.45 63.52 31.36 63.46 31.36 62.28 31.45 62.34 31.45 63.52"/><polygon class="aa" points="32.62 64.2 32.52 64.14 32.52 62.97 32.62 63.02 32.62 64.2"/><polygon class="aa" points="32.43 64.09 32.2 63.95 32.2 62.77 32.43 62.91 32.43 64.09"/><polygon class="aa" points="32.1 63.9 31.87 63.76 31.87 62.58 32.1 62.72 32.1 63.9"/><polygon class="aa" points="31.64 63.62 31.54 63.57 31.54 62.39 31.64 62.45 31.64 63.62"/><polygon class="aa" points="30.1 62.73 30 62.67 30 61.49 30.1 61.55 30.1 62.73"/><polygon class="aa" points="31.26 63.41 31.17 63.35 31.17 62.17 31.26 62.23 31.26 63.41"/><polygon class="aa" points="30.75 63.11 30.52 62.97 30.52 61.79 30.75 61.93 30.75 63.11"/><polygon class="aa" points="30.94 63.22 30.84 63.16 30.84 61.98 30.94 62.04 30.94 63.22"/><polygon class="aa" points="30.42 62.92 30.19 62.78 30.19 61.6 30.42 61.74 30.42 62.92"/><polygon class="ab" points="29.72 63.2 32.78 64.98 32.78 70.73 29.72 68.94 29.72 63.2"/><polygon class="ac" points="38.71 68.44 38.71 74.19 36.44 72.86 36.44 67.12 38.71 68.44"/><polygon class="ad" points="36.44 67.12 36.44 72.86 32.78 70.73 32.78 64.98 36.44 67.12"/><line class="ae" x1="34.77" y1="51.66" x2="50.98" y2="61.65"/><polygon class="af" points="32.49 52.88 36.62 50.47 52.86 60.43 48.87 62.65 32.49 52.88"/><polygon class="ag" points="48.98 69.39 48.98 62.64 52.75 60.44 52.75 67.19 48.98 69.39"/></svg>