<svg xmlns="http://www.w3.org/2000/svg" viewBox="0 0 150 90"><defs><style>.a{fill:#e6e6e6;}.b{fill:#ccc;}.c{opacity:0.14;}.d{fill:#e53553;}.e{fill:none;}.f{fill:#e59033;}.g{fill:#cc832b;}.h{fill:#cc2e41;}.i{fill:#0088d3;}.j{fill:#0071bc;}</style></defs><title>phone</title><path class="a" d="M30.27,7a6.89,6.89,0,0,0-6.87,6.87V76.13A6.89,6.89,0,0,0,30.27,83H76.94V7Z"/><path class="b" d="M123.62,7H76.94V83h46.68a6.89,6.89,0,0,0,6.87-6.87V13.87A6.89,6.89,0,0,0,123.62,7Z"/><path class="c" d="M125.94,79.24h-98a6.46,6.46,0,0,1-4.41-1.75A6.52,6.52,0,0,0,29.94,83h94a6.52,6.52,0,0,0,6.42-5.51A6.47,6.47,0,0,1,125.94,79.24Z"/><path class="d" d="M78.49,10.06c-12.83,0-23.23,8.88-23.23,19.84a17.39,17.39,0,0,0,2,8.14,19.68,19.68,0,0,0,3.25,4.45l-6.4,15.57L68,47.59a26.48,26.48,0,0,0,10.53,2.15c12.82,0,23.22-8.88,23.22-19.84S91.31,10.06,78.49,10.06Z"/><path class="e" d="M80.45,24.74a2,2,0,0,0-.6-1.57A2.56,2.56,0,0,0,78,22.6a3.44,3.44,0,0,0-.8.1v5.74C77.72,28,78.3,27.52,79,27,80,26.17,80.45,25.42,80.45,24.74Z"/><rect class="f" x="73.49" y="37.74" width="3.74" height="6.63"/><rect class="g" x="77.23" y="37.74" width="3.77" height="6.63"/><path class="g" d="M84.64,18.52a11.36,11.36,0,0,0-6.5-1.68c-.31,0-.61,0-.91,0V22.7a3.44,3.44,0,0,1,.8-.1,2.56,2.56,0,0,1,1.82.57,2,2,0,0,1,.6,1.57c0,.68-.5,1.43-1.5,2.24-.65.54-1.23,1-1.72,1.46v7.44h3.52a5,5,0,0,1,.48-2.34,9.56,9.56,0,0,1,2.36-2.37,15,15,0,0,0,3.54-3.56,5.88,5.88,0,0,0,.87-3A7,7,0,0,0,84.64,18.52Z"/><path class="f" d="M70.47,19.25a9.78,9.78,0,0,0-2.87,6.36l7.16.89a5.11,5.11,0,0,1,1.1-3,2.81,2.81,0,0,1,1.37-.77V16.87Q72.74,17.06,70.47,19.25Z"/><path class="f" d="M75.35,30.23a6.23,6.23,0,0,0-1.21,2,8.62,8.62,0,0,0-.41,2.9v.71h3.5V28.44A19.54,19.54,0,0,0,75.35,30.23Z"/><path class="h" d="M101.78,23.77c-12.83,0-23.23,8.89-23.23,19.85a17.35,17.35,0,0,0,2,8.13,18.9,18.9,0,0,0,2,3l-17,10.28,25.23-4a26.32,26.32,0,0,0,11,2.35c12.82,0,23.22-8.89,23.22-19.84S114.6,23.77,101.78,23.77Z"/><polygon class="f" points="97.64 30.67 97.64 39.35 88.96 39.35 88.96 48.03 97.64 48.03 97.64 56.71 101.98 56.71 101.98 30.67 97.64 30.67"/><polygon class="g" points="106.32 39.35 106.32 30.67 101.98 30.67 101.98 56.71 106.32 56.71 106.32 48.03 115 48.03 115 39.35 106.32 39.35"/><path class="i" d="M51.06,72.42a18.06,18.06,0,0,1-4-2.24c-.6-.4-1-.65-1.11-.73a23.56,23.56,0,0,1-3.84-3.09,38.15,38.15,0,0,1-5.28-6.9,38.15,38.15,0,0,1-3.77-7.83,22.93,22.93,0,0,1-1-4.82,37.27,37.27,0,0,1-.41-5.17,9.77,9.77,0,0,1,2.62-6c.39-.43.77-.8,1.12-1.12a9,9,0,0,0-2.7,2.19,9.84,9.84,0,0,0-2.61,6,35.66,35.66,0,0,0,.41,5.16,22.89,22.89,0,0,0,1,4.83,38.09,38.09,0,0,0,3.77,7.82,37.7,37.7,0,0,0,5.28,6.9,23.56,23.56,0,0,0,3.84,3.09l1.1.73a17.57,17.57,0,0,0,4,2.24,9.8,9.8,0,0,0,5.87.12,7.33,7.33,0,0,0,3.54-1.76,14.63,14.63,0,0,1-2,.69A9.91,9.91,0,0,1,51.06,72.42Z"/><path class="j" d="M60.65,67.91c0-.32-.55-.9-1.57-1.76-.27-.26-.65-.61-1.16-1.06l-1.36-1.24c-.41-.38-.79-.74-1.14-1.09l-.52-.58c-.85-1-1.56-1.35-2.71-.73l-.11.06a21.56,21.56,0,0,0-2.28,1.64l-.28.21c-.52.38-1.44,1.18-2.15,1s-1.31-1-1.9-1.47a25.25,25.25,0,0,1-7.71-12.55c-.19-.75-.75-1.73-.4-2.51a3.33,3.33,0,0,1,1.73-1.32c.38-.18.76-.32,1-.44a11.89,11.89,0,0,0,1.86-1,2.56,2.56,0,0,0,.57-.49c.73-.86.33-1.89-.18-3.05-.15-.47-.3-1-.46-1.51s-.31-1.13-.49-1.78-.31-1.16-.42-1.51c-.3-1.3-.59-2-.86-2.2-.92-.69-3.08-.44-4.13-.25a2.66,2.66,0,0,0-.65.2c-.35.32-.73.69-1.12,1.12a9.77,9.77,0,0,0-2.62,6A37.27,37.27,0,0,0,32,46.81a22.93,22.93,0,0,0,1,4.82,38.15,38.15,0,0,0,3.77,7.83,38.15,38.15,0,0,0,5.28,6.9A23.56,23.56,0,0,0,46,69.45c.14.08.51.33,1.11.73a18.06,18.06,0,0,0,4,2.24,9.91,9.91,0,0,0,5.88.12,14.63,14.63,0,0,0,2-.69s.08-.09.11-.14a10.3,10.3,0,0,0,.93-1.57,8.3,8.3,0,0,0,.66-1.69h0A1.38,1.38,0,0,0,60.65,67.91Z"/></svg>