<svg id="图层_1" data-name="图层 1" xmlns="http://www.w3.org/2000/svg" xmlns:xlink="http://www.w3.org/1999/xlink" viewBox="0 0 150 90"><defs><style>.cls-1{fill:#ccc;}.cls-2{fill:#e6e6e6;}.cls-3{opacity:0.14;}.cls-4{fill:#00adea;}.cls-5{fill:none;}.cls-6{fill:#e53553;}.cls-7{fill:#cc2e41;}.cls-8{fill:#0088d3;}.cls-9{fill:url(#未命名的渐变_2);}.cls-10{fill:#fff;}.cls-11{fill:#f0b727;}</style><linearGradient id="未命名的渐变_2" x1="123.09" y1="-616.46" x2="104.76" y2="-648.2" gradientTransform="matrix(1, 0, 0, -1, 0, -566.93)" gradientUnits="userSpaceOnUse"><stop offset="0" stop-color="#39a7cf"/><stop offset="1" stop-color="#09609c"/></linearGradient></defs><title>pinyin</title><path class="cls-1" d="M115.92,9H109L40.89,77.11h75A6.17,6.17,0,0,0,122.07,71V15.15A6.17,6.17,0,0,0,115.92,9Z"/><path class="cls-2" d="M74.09,9H32.26a6.17,6.17,0,0,0-6.15,6.15V71a6.17,6.17,0,0,0,6.15,6.15h8.64L109,9Z"/><path class="cls-3" d="M118.39,73.73H30.22a5.82,5.82,0,0,1-4-1.57,5.86,5.86,0,0,0,5.77,5h84.58a5.86,5.86,0,0,0,5.77-5A5.82,5.82,0,0,1,118.39,73.73Z"/><path class="cls-4" d="M46.45,26.4l-1.35,9H43.88l-1-5.87h0l-1,5.87H40.67l-1.35-9H40.7l.65,5.74h0l1-5.74h1l1.05,5.88h0l.62-5.88Z"/><path class="cls-4" d="M46.3,35.44l2-9h1.08l2,9H50.12l-.38-1.94H48l-.38,1.94Zm3.2-3.16L48.86,29h0l-.63,3.28Z"/><path class="cls-4" d="M52,35.44v-9h1.24l2,5.45h0V26.4h1.29v9H55.3l-2-5.43h0v5.43Z"/><path class="cls-4" d="M57.61,28.54a2.31,2.31,0,0,1,.19-1,2,2,0,0,1,.51-.7,2.14,2.14,0,0,1,.69-.41,2.25,2.25,0,0,1,1.56,0,2.3,2.3,0,0,1,.71.41,2.13,2.13,0,0,1,.5.7,2.31,2.31,0,0,1,.19,1V29H60.66v-.46a.86.86,0,0,0-.26-.69,1,1,0,0,0-1.23,0,.86.86,0,0,0-.26.69v4.77a.86.86,0,0,0,.26.69,1,1,0,0,0,1.23,0,.86.86,0,0,0,.26-.69v-1.7h-1V30.47H62v2.84a2.29,2.29,0,0,1-.19,1,2,2,0,0,1-.5.67,2.17,2.17,0,0,1-.71.42,2.25,2.25,0,0,1-1.56,0,2,2,0,0,1-.69-.42,1.94,1.94,0,0,1-.51-.67,2.29,2.29,0,0,1-.19-1Z"/><polygon class="cls-5" points="102.2 32.02 101.57 28.75 101.54 28.75 100.91 32.02 102.2 32.02"/><polygon class="cls-5" points="85.81 28.75 85.18 32.02 85.98 32.02 86.39 31.61 85.84 28.75 85.81 28.75"/><path class="cls-5" d="M91.12,34a.92.92,0,0,0,.62-.22A.86.86,0,0,0,92,33V28.28a.86.86,0,0,0-.26-.69,1,1,0,0,0-1.23,0,.86.86,0,0,0-.26.69V33a.86.86,0,0,0,.26.69A.92.92,0,0,0,91.12,34Z"/><path class="cls-5" d="M100.33,50H96.42l-1.08.75h6a2,2,0,0,1-.67-.5A2.25,2.25,0,0,1,100.33,50Z"/><polygon class="cls-5" points="86.47 32.02 86.39 31.61 85.98 32.02 86.47 32.02"/><rect class="cls-5" x="96.67" y="47.2" width="3.25" height="0.75"/><rect class="cls-5" x="96.67" y="44.79" width="3.25" height="0.67"/><polygon class="cls-5" points="103.08 42.87 104.75 42.87 104.75 41.87 91.92 41.87 91.92 42.87 93.5 42.87 93.5 42.12 96.67 42.12 96.67 42.87 99.92 42.87 99.92 42.12 103.08 42.12 103.08 42.87"/><polygon class="cls-6" points="59.25 54.37 51.5 54.37 51.5 50.45 57.42 50.45 57.42 47.2 51.5 47.2 51.5 43.54 58.42 43.54 58.42 40.2 40.92 40.2 40.92 43.54 47.83 43.54 47.83 47.2 41.92 47.2 41.92 50.45 47.83 50.45 47.83 54.37 40.08 54.37 40.08 57.54 59.25 57.54 59.25 54.37"/><polygon class="cls-6" points="79.08 38.87 75.42 38.87 75.42 42.58 79.08 38.92 79.08 38.87"/><path class="cls-7" d="M75.42,42.58V53.37q.08,1.42-1.42,1.42-1.83,0-2.75-.08c.05.17.14.45.25.83a15.94,15.94,0,0,1,.5,2.58q2,0,3.5-.08,3.83,0,3.58-3.58V38.92Z"/><path class="cls-7" d="M83.75,42.79l-3.42,1q1.83,4.92,3.33,10.08l3.58-1.17q-.42-1.17-1.25-3.58Q84.42,44.79,83.75,42.79Z"/><path class="cls-7" d="M66.75,52.79,70.08,54c1.08-3.05,2.07-6.08,3-9.09l-5.47,5.47Q67.19,51.59,66.75,52.79Z"/><path class="cls-6" d="M69.83,43q-1,3.68-2.24,7.46l5.47-5.47c.12-.38.25-.77.36-1.16Z"/><path class="cls-7" d="M108.08,50V48h-5V47.2h3.42V45.45h-3.42v-.67h3V43.54h1.83V39.79h-7.5a6.25,6.25,0,0,0-.25-1.25l-4.08.17a.8.8,0,0,0,.17.42,5.49,5.49,0,0,0,.17.67H88.75v3.75h1.83v1.25H93.5v.67H90.17V47.2H93.5V48H88.58V50h3.58a21.49,21.49,0,0,1-4.08,1.5q.33.83,1.08,2.58,1.42-.58,2.33-1a.66.66,0,0,1,.25-.08v2.08h3V52.87H102v2h3V53a19.78,19.78,0,0,0,2.42.92,17.2,17.2,0,0,1,.92-2.08,1,1,0,0,1,.17-.42A17.58,17.58,0,0,1,104.42,50Zm-12.75.75L96.42,50h3.92a2.25,2.25,0,0,0,.33.25,2,2,0,0,0,.67.5Zm4.58-3.58V48H96.67V47.2Zm-3.25-1.75v-.67h3.25v.67Zm3.25-3.33v.75H96.67v-.75H93.5v.75H91.92v-1h12.83v1h-1.67v-.75Z"/><path class="cls-7" d="M99.75,54.7a3.58,3.58,0,0,0,.25-1.42H96.83q.58,2.92-8.08,2.92A22.26,22.26,0,0,1,90,58.79q6.58-.75,8.33-2.17l2.5.67q3.83.92,5.75,1.42l1.25-2.5a9,9,0,0,1-1.92-.33Z"/><polygon class="cls-4" points="77.06 35.18 78.18 32.14 79.31 35.18 80.68 35.18 78.82 30.45 80.54 26.14 79.17 26.14 78.18 28.82 77.2 26.14 75.83 26.14 77.52 30.45 75.69 35.18 77.06 35.18"/><rect class="cls-4" x="81.31" y="26.14" width="1.29" height="9.04"/><polygon class="cls-8" points="84.57 35.18 84.95 33.24 86.72 33.24 87.1 35.18 88.39 35.18 87.37 30.63 86.39 31.61 86.47 32.02 85.98 32.02 83.41 34.59 83.27 35.18 84.57 35.18"/><polygon class="cls-4" points="85.18 32.02 85.81 28.75 85.84 28.75 86.39 31.61 87.37 30.63 86.37 26.14 85.29 26.14 83.41 34.59 85.98 32.02 85.18 32.02"/><path class="cls-4" d="M91.12,26.07a2.27,2.27,0,0,0-.78.14,2.14,2.14,0,0,0-.69.41,2,2,0,0,0-.51.7,2.31,2.31,0,0,0-.19,1v.78l2.87-2.87A2.26,2.26,0,0,0,91.12,26.07Z"/><path class="cls-8" d="M89.14,34a1.94,1.94,0,0,0,.51.67,2,2,0,0,0,.69.42,2.25,2.25,0,0,0,1.56,0,2.17,2.17,0,0,0,.71-.42,2,2,0,0,0,.5-.67,2.29,2.29,0,0,0,.19-1V28.28a2.31,2.31,0,0,0-.19-1,2.13,2.13,0,0,0-.5-.7,2.3,2.3,0,0,0-.71-.41l-.08,0-2.87,2.87v4A2.29,2.29,0,0,0,89.14,34Zm1.1-5.75a.86.86,0,0,1,.26-.69,1,1,0,0,1,1.23,0,.86.86,0,0,1,.26.69V33a.86.86,0,0,1-.26.69,1,1,0,0,1-1.23,0,.86.86,0,0,1-.26-.69Z"/><path class="cls-8" d="M98.62,28.75v-.63a2,2,0,0,0-.58-1.4,2.27,2.27,0,0,0-.69-.47,2.14,2.14,0,0,0-.88-.18,2.27,2.27,0,0,0-1,.2,1.92,1.92,0,0,0-.68.53,2.18,2.18,0,0,0-.42.79,3.29,3.29,0,0,0-.14,1A3.12,3.12,0,0,0,94.53,30a2,2,0,0,0,1.12.91l.93.38a3.2,3.2,0,0,1,.39.19.71.71,0,0,1,.23.23,1,1,0,0,1,.1.37,5.56,5.56,0,0,1,0,.58c0,.2,0,.39,0,.55a1,1,0,0,1-.12.43.69.69,0,0,1-.29.27,1.14,1.14,0,0,1-.51.1.82.82,0,0,1-.7-.29,1.06,1.06,0,0,1-.21-.64v-.41H94.18v.48a2.06,2.06,0,0,0,.17.84,2.22,2.22,0,0,0,.46.68,2.09,2.09,0,0,0,.7.46,2.3,2.3,0,0,0,.88.17,2.46,2.46,0,0,0,1.05-.2,1.83,1.83,0,0,0,.7-.56,2.24,2.24,0,0,0,.37-.83,4.64,4.64,0,0,0,.11-1.06,7,7,0,0,0-.05-.88,2.43,2.43,0,0,0-.19-.69,1.68,1.68,0,0,0-.42-.51,2.46,2.46,0,0,0-.7-.39l-1-.39a2,2,0,0,1-.4-.2.7.7,0,0,1-.22-.24.84.84,0,0,1-.09-.32,4.27,4.27,0,0,1,0-.44,2.45,2.45,0,0,1,0-.44,1.08,1.08,0,0,1,.14-.37.86.86,0,0,1,.27-.25.82.82,0,0,1,.43-.1.78.78,0,0,1,.71.32,1.39,1.39,0,0,1,.21.77v.29Z"/><path class="cls-8" d="M99,35.18h1.29l.38-1.94h1.77l.38,1.94h1.29l-2-9H101Zm2.56-6.44L102.2,32h-1.29l.63-3.28Z"/><rect class="cls-8" x="104.79" y="26.14" width="1.29" height="9.04"/><path id="SVGID" class="cls-9" d="M108.88,51.19q-.79.34-1.54.7a21.23,21.23,0,0,0-8.25,6.48c-.44.61-1.19,1.59-1.55,2.19C92.7,68.34,98,78.13,106,81.92a23.58,23.58,0,0,0,5.59,1.78c.88.11,1.75.18,2.63.2h1q.75,0,1.51-.1a13,13,0,0,0,6.89-3.48A22.28,22.28,0,0,0,130,64.52v-.75a25.72,25.72,0,0,0-.18-2.72c-.05-.59-.13-1.17-.23-1.75a18.09,18.09,0,0,0-1.67-5,11.12,11.12,0,0,0-.83-1.37A8.61,8.61,0,0,0,120.42,49a11.38,11.38,0,0,0-1.28-.05,27.23,27.23,0,0,0-10.25,2.21"/><path class="cls-10" d="M100,75.34v-1c-.05,0,4.23-1.75,6.61-2.77l.22-.09,2.3,1.33,5.11-3.22,2.6,2.8,2.72-1.37,8.42,3.4v1l-8.45-3.35-2.9,1.45-2.55-2.75L109.17,74l-2.39-1.38c-6.43,2.76-6.65,2.76-6.77,2.76"/><path class="cls-11" d="M122.91,61.27a8.94,8.94,0,0,1,1.54-.7c.65-.18,1.35-.41.61.8s-2.42,1.08-2.52.78.37-.88.37-.88m-4.4-5.61s.65-1.23,1.19-1.19.37.59.27,1.23-.51.82-1.09,1.15-.78.23-1-.1.63-1.09.63-1.09M107.66,55c0-.31,1.09,0,1.56.18s.72,1.29.72,1.29.31.68-.14.86-.78-.41-.78-.41a3.83,3.83,0,0,0-.86-.74,1.13,1.13,0,0,1-.51-1.17m-5.47,6.16c.1-.45,1.37.14,1.37.14s1.92,1.19,1.88,1.41-.45.27-.78.41-1.64-.55-2-.78a1.32,1.32,0,0,1-.49-1.17m-1.56,11.57c-.65.14-.78,0-.86-.51s.92-1.06.92-1.06a9.43,9.43,0,0,1,1.23-.59.65.65,0,0,1,.84.59c0,.51-1.49,1.43-2.13,1.56m26.08-1.23s-1.09-.31-1.6-.51-.72-1.19-.72-1.19c.1-.41,1.09.1,1.23.18a3.69,3.69,0,0,1,1.29.92c.31.51-.2.61-.2.61"/><path class="cls-11" d="M121.27,68.23c-.18.39-.35.7-1,.47a7.27,7.27,0,0,1-2-1.54,1.84,1.84,0,0,0-1.25-.7c-.86-.22-2.66.86-2.91,1a1.74,1.74,0,0,1-.8.06l-.65.57a10.55,10.55,0,0,1-3.3,1.7c-.74,0-2.25-1.11-2.5-1.25s-.72-.47-.72-.47a6.86,6.86,0,0,1-.49,1c-.29.45-1.08.14-1.37-.31s.06-1.13.06-1.13l.92-1.52c.06-.14.12-.33.33-.27s.37.31.82.53,2.27,1.37,2.46,1.41.78-.39.78-.39l1.35-.86a1.11,1.11,0,0,0,.22-.43,19.48,19.48,0,0,0-.33-2.29c0-.63,0-.9-.65-1s-.7.14-.86.47-.41,1.68-.53,1.8-.2-.12-.41-.27-.2.45-.27.72-.29.41-.88.29a1.16,1.16,0,0,1-.9-1.41c.22-.53,1.21-.49,1.21-.49l.14-.45a7.94,7.94,0,0,0,.53-1.72c.06-.63.86-.68,1.54-.68a14.09,14.09,0,0,1,2.07.39c.14,0-.18-.61-.55-1.11a1.53,1.53,0,0,1-.33-1.39c.14-.37,1.21-.45,1.78-.45s1.19.9,1.31,1.29a.72.72,0,0,1-.16.82c-.22.25-.14.39-.1.68s.51.06.66,0l1.56-.66a3.81,3.81,0,0,1-.41-.86,4.77,4.77,0,0,0-.61-1.08,1.47,1.47,0,0,0-.9-.47,2.21,2.21,0,0,1-1.25-.35c-.31-.27-.12-.9.53-1.41a1,1,0,0,1,1.45,0,1.25,1.25,0,0,1,.45.82c1.25.74,2.62,3,2.58,3.81s-1.72,1.19-2.35,1.25a2.31,2.31,0,0,0-1.21.47c-.22.18.22,1.54.37,1.74s.51-.1.51-.1a4.86,4.86,0,0,1,2.11-.35c.53,0,2.58,2.07,2.81,2.11s.45-.57.51-.76.49-.23.49-.23c.31-.14.72-.2,1,.55s-.7,2.09-.88,2.48"/></svg>