<svg xmlns="http://www.w3.org/2000/svg" viewBox="0 0 150 90"><defs><style>.a{fill:#e6e6e6;}.b{fill:#ccc;}.c{opacity:0.14;}.d{opacity:0.7;}.e{fill:#ed1c24;opacity:0.56;}.f{fill:#ef9f50;opacity:0.66;}</style></defs><title>scan</title><path class="a" d="M29.08,8a6.89,6.89,0,0,0-6.87,6.87V77.13A6.89,6.89,0,0,0,29.08,84H75.76V8Z"/><path class="b" d="M122.43,8H75.76V84h46.67a6.89,6.89,0,0,0,6.87-6.87V14.87A6.89,6.89,0,0,0,122.43,8Z"/><path class="c" d="M124.76,80.24h-98a6.47,6.47,0,0,1-4.42-1.75A6.52,6.52,0,0,0,28.76,84h94a6.52,6.52,0,0,0,6.41-5.51A6.46,6.46,0,0,1,124.76,80.24Z"/><g class="d"><path d="M38.71,21.58h1.75V68.34H38.71Zm6.11,0h1.74V68.34H44.82Zm3.49,0h4.36V68.34H48.31Zm6.08,0h4.36V68.34H54.39Zm6.11,0h1.74V68.34H60.5Z"/><path d="M64,21.58h1.74V68.34H64Zm3.49,0h1.74V68.34H67.48Zm6.11,0H78V68.34H73.59Zm6.08,0H84V68.34H79.67Zm6.11,0h1.74V68.34H85.78Z"/><path d="M89.27,21.58H91V68.34H89.27Zm6.11,0h1.74V68.34H95.38Zm3.48,0h4.37V68.34H98.86Zm6.09,0h4.36V68.34H105Zm6.11,0h1.74V68.34h-1.74Z"/></g><rect class="e" x="22.26" y="34" width="107" height="8"/><rect class="f" x="22.26" y="36" width="107" height="4"/></svg>