<svg id="图层_1" data-name="图层 1" xmlns="http://www.w3.org/2000/svg" viewBox="0 0 150 90"><defs><style>.cls-1{fill:#e6e6e6;}.cls-2{fill:#ccc;}.cls-3{opacity:0.14;}.cls-4{opacity:0.7;}.cls-5{fill:#ed1c24;opacity:0.56;}.cls-6{fill:#ef9f50;opacity:0.66;}</style></defs><title>scan</title><path class="cls-1" d="M29.08,8a6.89,6.89,0,0,0-6.87,6.87V77.13A6.89,6.89,0,0,0,29.08,84H75.76V8Z"/><path class="cls-2" d="M122.43,8H75.76V84h46.68a6.89,6.89,0,0,0,6.87-6.87V14.87A6.89,6.89,0,0,0,122.43,8Z"/><path class="cls-3" d="M124.76,80.24h-98a6.47,6.47,0,0,1-4.42-1.75A6.52,6.52,0,0,0,28.76,84h94a6.52,6.52,0,0,0,6.42-5.51A6.47,6.47,0,0,1,124.76,80.24Z"/><g class="cls-4"><path d="M38.71,21.58h1.74V68.34H38.71Zm6.11,0h1.74V68.34H44.82Zm3.49,0h4.36V68.34H48.31Zm6.09,0h4.36V68.34H54.39Zm6.11,0h1.74V68.34H60.5Z"/><path d="M64,21.58h1.74V68.34H64Zm3.49,0h1.75V68.34H67.48Zm6.11,0h4.36V68.34H73.59Zm6.09,0H84V68.34H79.67Zm6.11,0h1.74V68.34H85.78Z"/><path d="M89.27,21.58H91V68.34H89.27Zm6.11,0h1.74V68.34H95.38Zm3.49,0h4.36V68.34H98.86Zm6.09,0h4.36V68.34H105Zm6.11,0h1.74V68.34h-1.74Z"/></g><rect class="cls-5" x="22.26" y="34" width="107" height="8"/><rect class="cls-6" x="22.26" y="36" width="107" height="4"/></svg>