<svg xmlns="http://www.w3.org/2000/svg" viewBox="0 0 150 90"><defs><style>.a{fill:#e6e6e6;}.b{fill:#ccc;}.c{opacity:0.14;}.d{fill:#e59033;}.e{fill:#e53553;}.f{fill:#cc2e41;}.g{fill:#666;}</style></defs><title>timing</title><path class="a" d="M28.27,7a6.89,6.89,0,0,0-6.87,6.87V76.13A6.89,6.89,0,0,0,28.27,83H74.94V7Z"/><path class="b" d="M121.62,7H74.94V83h46.68a6.89,6.89,0,0,0,6.87-6.87V13.87A6.89,6.89,0,0,0,121.62,7Z"/><path class="c" d="M123.94,79.24h-98a6.46,6.46,0,0,1-4.41-1.75A6.52,6.52,0,0,0,27.94,83h94a6.52,6.52,0,0,0,6.42-5.51A6.47,6.47,0,0,1,123.94,79.24Z"/><path class="b" d="M52.12,47.56A22.83,22.83,0,0,0,74.94,70.39V24.73A22.83,22.83,0,0,0,52.12,47.56Z"/><path class="a" d="M74.94,24.73h0V70.39h0a22.83,22.83,0,0,0,0-45.66Z"/><path class="d" d="M58.44,47.46c0-.47,0-.93.06-1.39H56v3h2.54C58.47,48.53,58.44,48,58.44,47.46Z"/><path class="d" d="M87.22,37.39l2.19-2.18L87.3,33.1l-2.14,2.14A16.11,16.11,0,0,1,87.22,37.39Z"/><path class="d" d="M74.59,31.3a16.12,16.12,0,0,1,1.85.11V28.6h-3v2.75C73.83,31.32,74.21,31.3,74.59,31.3Z"/><path class="d" d="M64.41,34.92,62.59,33.1l-2.11,2.11L62.28,37A16.75,16.75,0,0,1,64.41,34.92Z"/><path class="d" d="M90.68,46.07c0,.46.07.92.07,1.39s0,1.07-.08,1.59h3.24v-3Z"/><path class="d" d="M62.38,58l-1.9,1.9L62.59,62l1.94-1.94A16.19,16.19,0,0,1,62.38,58Z"/><path class="d" d="M85,59.77,87.3,62l2.11-2.11-2.28-2.28A16.82,16.82,0,0,1,85,59.77Z"/><path class="d" d="M74.59,63.61c-.38,0-.76,0-1.14,0v3h3v-3A16.12,16.12,0,0,1,74.59,63.61Z"/><path class="e" d="M85.13,37.38a14.36,14.36,0,0,0-10.19-4.22V62A14.4,14.4,0,0,0,85.13,37.38Z"/><path class="f" d="M64.76,57.74A14.35,14.35,0,0,0,74.94,62V47.56Z"/><path class="g" d="M76.56,23.57V20.22h8.55V17.3H64.78v2.92h8.86v3.32a24.15,24.15,0,1,0,2.92,0ZM74.94,69.16a21.6,21.6,0,1,1,21.6-21.6A21.62,21.62,0,0,1,74.94,69.16Z"/><rect class="g" x="93.23" y="25.86" width="2.92" height="5.46" rx="0.87" ry="0.87" transform="translate(7.52 75.33) rotate(-45)"/></svg>