<svg id="图层_1" data-name="图层 1" xmlns="http://www.w3.org/2000/svg" viewBox="0 0 150 90"><defs><style>.cls-1{fill:#e6e6e6;}.cls-2{fill:#ccc;}.cls-3{opacity:0.14;}.cls-4{fill:#0088d3;}.cls-5{fill:#0071bc;}.cls-6{fill:#c69c6d;}.cls-7{fill:#ddac7c;}.cls-8{fill:#2d2d2d;}.cls-9{fill:#cc2e41;}.cls-10{opacity:0.55;}.cls-11{fill:#e53553;}.cls-12{opacity:0.8;}.cls-13{opacity:0.2;}.cls-14{fill:#7f7f7f;}.cls-15{fill:#606060;}.cls-16{fill:#e5e5e5;}.cls-17{fill:#fff;}.cls-18{fill:#ef9f50;}.cls-19{fill:#e59033;}</style></defs><title>checkin</title><path class="cls-1" d="M28.36,9a6.89,6.89,0,0,0-6.87,6.87V78.13A6.89,6.89,0,0,0,28.36,85H75V9Z"/><path class="cls-2" d="M121.71,9H75V85h46.68a6.89,6.89,0,0,0,6.87-6.87V15.87A6.89,6.89,0,0,0,121.71,9Z"/><path class="cls-3" d="M124,81.24H26a6.47,6.47,0,0,1-4.42-1.75A6.52,6.52,0,0,0,28,85h94a6.52,6.52,0,0,0,6.42-5.51A6.47,6.47,0,0,1,124,81.24Z"/><path class="cls-4" d="M48.31,81H75V59.29C61.37,59.29,50.09,68.74,48.31,81Z"/><path class="cls-5" d="M75,59.29V81h26.72C100,68.74,88.69,59.29,75,59.29Z"/><path class="cls-6" d="M85.95,47.08a38.58,38.58,0,0,1-10.77,1.5H75v8.37A11,11,0,0,0,85.95,47.08Z"/><path class="cls-7" d="M64.12,47A11,11,0,0,0,75,56.95V48.58A38.46,38.46,0,0,1,64.12,47Z"/><path d="M75.18,48.58a38.58,38.58,0,0,0,10.77-1.5c0-.36.05-.73.05-1.1A11,11,0,0,0,75,35V48.58Z"/><path class="cls-8" d="M75,35a11,11,0,0,0-11,11c0,.34,0,.68,0,1A38.46,38.46,0,0,0,75,48.58Z"/><polygon class="cls-9" points="94 34 94 51.47 102 34 94 34"/><g class="cls-10"><path d="M58,77.79a.24.24,0,0,1-.12,0,41.66,41.66,0,0,0-4.44-2.33.24.24,0,1,1,.2-.44,42,42,0,0,1,4.5,2.36.24.24,0,0,1-.12.45Z"/><path d="M92,77.79a.24.24,0,0,1-.12-.45A42,42,0,0,1,96.42,75a.24.24,0,1,1,.2.44,41.66,41.66,0,0,0-4.44,2.33A.24.24,0,0,1,92,77.79Z"/></g><path class="cls-11" d="M93.16,15.5a4.41,4.41,0,0,0-4.41,4.41V35.09a4.41,4.41,0,0,0,4.41,4.41h.09l24-24Z"/><path class="cls-9" d="M117.34,15.5h-.09l-24,24h24.09a4.41,4.41,0,0,0,4.41-4.41V19.91A4.41,4.41,0,0,0,117.34,15.5Z"/><polygon class="cls-9" points="61.83 45.85 54.19 39.3 51.88 44.34 61.83 45.85"/><g class="cls-12"><path class="cls-1" d="M95.64,26.84A5.65,5.65,0,0,0,92.29,32H98V27.78A3.43,3.43,0,0,1,95.64,26.84Z"/><path class="cls-2" d="M100.33,26.88a3.43,3.43,0,0,1-2.32.9V32h5.6A5.65,5.65,0,0,0,100.33,26.88Z"/><path class="cls-1" d="M97.95,19.39a3.44,3.44,0,0,0-3.44,3.44c0,.06,0,.11,0,.16s0,.2,0,.3a3.43,3.43,0,0,0,3.4,3H98V19.39Z"/><path class="cls-2" d="M101.23,21.51a3.44,3.44,0,0,0-3.17-2.12H98v6.87h.06a3.43,3.43,0,0,0,3.4-3c0-.1,0-.2,0-.3s0-.11,0-.16A3.43,3.43,0,0,0,101.23,21.51Z"/></g><rect class="cls-13" x="92" y="34.41" width="27" height="2.05" rx="1.02" ry="1.02"/><rect class="cls-13" x="105" y="20.41" width="14" height="2.05" rx="1.02" ry="1.02"/><rect class="cls-13" x="105" y="25.08" width="14" height="2.05" rx="1.02" ry="1.02"/><rect class="cls-13" x="105" y="29.75" width="14" height="2.05" rx="1.02" ry="1.02"/><path class="cls-14" d="M72.79,70.22A2.25,2.25,0,0,1,75,68h0a2.24,2.24,0,0,1,1.59.66l9.19-9.19H61a2.12,2.12,0,0,0-2.11,2.11V78.88A2.12,2.12,0,0,0,61,81h3.29l9.19-9.19A2.24,2.24,0,0,1,72.79,70.22Z"/><path class="cls-15" d="M89.1,59.44H85.81l-9.19,9.19A2.24,2.24,0,0,1,75,72.46h0a2.24,2.24,0,0,1-1.59-.66L64.26,81H89.1a2.12,2.12,0,0,0,2.11-2.11V61.55A2.12,2.12,0,0,0,89.1,59.44Z"/><path class="cls-16" d="M75,72.46h0a2.24,2.24,0,0,0,1.59-3.83L73.45,71.8A2.24,2.24,0,0,0,75,72.46Z"/><path class="cls-17" d="M75,68a2.24,2.24,0,0,0-1.59,3.83l3.17-3.17A2.24,2.24,0,0,0,75,68Z"/><path class="cls-11" d="M34.92,39l-2-10.24,10.24-2,1.1,5.57,2-2a2.9,2.9,0,1,1,4.1-4.1l2.4-2.4A14.5,14.5,0,1,0,32.25,44.25l5.92-5.92Z"/><path class="cls-9" d="M50.35,26.15a2.9,2.9,0,1,1-4.1,4.1l-2,2,.93,4.67-7,1.39-5.92,5.92A14.5,14.5,0,0,0,52.75,23.75Zm1.77,13.18-9.19,6.15a1.43,1.43,0,0,1-2-.39l-.34-.51a1.43,1.43,0,0,1,.39-2l9.19-6.15a1.43,1.43,0,0,1,2,.39l.34.51A1.43,1.43,0,0,1,52.12,39.33Z"/><path class="cls-18" d="M45.4,28.2a2.89,2.89,0,0,0,.85,2.05l4.1-4.1a2.9,2.9,0,0,0-5,2.05Z"/><path class="cls-19" d="M48.3,31.1a2.9,2.9,0,0,0,2.05-5l-4.1,4.1A2.89,2.89,0,0,0,48.3,31.1Z"/><polygon class="cls-19" points="45.16 36.94 44.23 32.27 38.17 38.33 45.16 36.94"/><polygon class="cls-18" points="32.88 28.74 34.92 38.98 38.17 38.33 44.23 32.27 43.12 26.7 32.88 28.74"/><rect class="cls-19" x="39.6" y="39.22" width="13.92" height="3.48" rx="1.43" ry="1.43" transform="translate(-14.91 32.8) rotate(-33.78)"/></svg>