<svg id="图层_1" data-name="图层 1" xmlns="http://www.w3.org/2000/svg" viewBox="0 0 150 90"><defs><style>.cls-1{fill:#e6e6e6;}.cls-2{fill:#ccc;}.cls-3{opacity:0.14;}.cls-4{fill:#39b54a;}.cls-5{fill:#31993b;}.cls-6{fill:#cc832b;}.cls-7{fill:#e59033;}.cls-8{opacity:0.2;}.cls-9{fill:#e87e04;}.cls-10{fill:#d55400;}.cls-11{fill:#f59d00;}.cls-12{fill:#f2c500;}.cls-13{fill:#ffb100;}.cls-14{fill:#0088d3;}.cls-15{fill:#0071bc;}.cls-16{fill:#d82e3a;}.cls-17{fill:#c1272d;}.cls-18{fill:#bbb;}.cls-19{fill:#333;}.cls-20{fill:#424242;}.cls-21{fill:#fff;}.cls-22,.cls-24{opacity:0.48;}.cls-23,.cls-24{fill:#aae1f7;}.cls-23{opacity:0.74;}</style></defs><title>hotel</title><path class="cls-1" d="M48.2,49.88a9.4,9.4,0,0,0-6.34,2.8L20.21,78.13c-1.31,1.54.92,2.81,5,2.81h50l-.09-31Z"/><path class="cls-2" d="M101.89,50,75,49.94l.09,31h50c4,0,6.27-1.26,4.95-2.8l-21.8-25.35A9.53,9.53,0,0,0,101.89,50Z"/><path class="cls-3" d="M126.37,79.26H23.62a7.65,7.65,0,0,1-3.93-.81C19,79.88,20.92,81,24.41,81H125.59c3.48,0,5.44-1.11,4.71-2.55A7.67,7.67,0,0,1,126.37,79.26Z"/><polygon class="cls-4" points="104.27 42.55 98.33 50.48 100.58 50.48 96.03 56.26 101.98 56.26 104.27 56.26 104.27 42.55"/><polygon class="cls-5" points="107.95 50.48 110.2 50.48 104.27 42.55 104.27 56.26 106.55 56.26 112.5 56.26 107.95 50.48"/><rect class="cls-6" x="104.27" y="56.26" width="2.28" height="3.74"/><rect class="cls-7" x="101.98" y="56.26" width="2.28" height="3.74"/><rect class="cls-8" x="101.98" y="56.26" width="4.57" height="0.83"/><path class="cls-9" d="M98.44,67.53H86a1.8,1.8,0,0,1-1.8-1.8V47.46a1.8,1.8,0,0,1,1.8-1.8H98.44a1.8,1.8,0,0,1,1.8,1.8V65.74a1.8,1.8,0,0,1-1.8,1.8Z"/><path class="cls-10" d="M99.7,49.26H86a1.8,1.8,0,0,1-1.8-1.8V40.29a1.8,1.8,0,0,1,1.8-1.8H99.7a1.8,1.8,0,0,1,1.8,1.8v7.17a1.8,1.8,0,0,1-1.8,1.8Z"/><path class="cls-11" d="M64.8,67.53H52.34a1.8,1.8,0,0,1-1.8-1.8h0V47.46a1.8,1.8,0,0,1,1.8-1.8H64.8a1.8,1.8,0,0,1,1.8,1.8V65.74a1.8,1.8,0,0,1-1.8,1.8h0Z"/><path class="cls-9" d="M64.8,49.26H51.08a1.8,1.8,0,0,1-1.8-1.8h0V40.29a1.8,1.8,0,0,1,1.8-1.8H64.8a1.8,1.8,0,0,1,1.8,1.8v7.17a1.8,1.8,0,0,1-1.8,1.8h0Z"/><path class="cls-12" d="M87.78,67.53H63V36.34a1.8,1.8,0,0,1,1.8-1.8H86a1.8,1.8,0,0,1,1.8,1.8V67.53Z"/><path class="cls-11" d="M87.78,36.34a1.8,1.8,0,0,0-1.8-1.8H75.39v33H87.78V36.34Z"/><path class="cls-9" d="M81.83,67.53H68.95V58.27a1.8,1.8,0,0,1,1.8-1.8H80a1.8,1.8,0,0,1,1.8,1.8Z"/><path class="cls-11" d="M88.21,38.13H62.57a1.8,1.8,0,0,1-1.8-1.8V28.73a1.8,1.8,0,0,1,1.8-1.8H88.21a1.8,1.8,0,0,1,1.8,1.8h0v7.61a1.8,1.8,0,0,1-1.8,1.8Z"/><path class="cls-9" d="M88.21,26.94H75.39v11.2H88.21a1.8,1.8,0,0,0,1.8-1.8V28.73a1.8,1.8,0,0,0-1.8-1.8ZM79.66,45.67H71.12a1.8,1.8,0,0,1,0-3.59h8.54a1.8,1.8,0,0,1,0,3.59Zm0,5.29H71.12a1.8,1.8,0,0,1,0-3.59h8.54a1.8,1.8,0,0,1,0,3.59Z"/><path class="cls-10" d="M81.83,58.27a1.8,1.8,0,0,0-1.8-1.8H75.39V67.53h6.44V58.27ZM79.66,42.08H75.39v3.59h4.27a1.8,1.8,0,0,0,0-3.59Zm0,5.29H75.39V51h4.27a1.8,1.8,0,0,0,0-3.59Z"/><polygon class="cls-4" points="41.85 41.48 31.29 55.59 35.29 55.59 27.21 65.87 37.79 65.87 41.85 65.87 41.85 41.48"/><polygon class="cls-5" points="48.41 55.59 52.42 55.59 41.85 41.48 41.85 65.87 45.92 65.87 56.5 65.87 48.41 55.59"/><rect class="cls-6" x="41.85" y="65.87" width="4.06" height="6.65"/><rect class="cls-7" x="37.79" y="65.87" width="4.06" height="6.65"/><rect class="cls-8" x="37.79" y="65.87" width="8.13" height="1.48"/><path class="cls-13" d="M75.93,65.83c.9-.44,1.87-.87,2.89-1.25C77.8,65,76.83,65.39,75.93,65.83Z"/><path class="cls-14" d="M93.08,66.09l0,0c-2.29,1-6.87.74-6.87.74-1.92,0-3.43-2.59-3.43-2.59.06-.27,4.28-.43,6.47-.49l-.15,0a15.58,15.58,0,0,0-8.43.3l1.17,2.49a27.55,27.55,0,0,1-7.37.11c-.87.47-1.65.92-2.31,1.31h0q.56,1.48,1.18,2.93l.67.42a5.42,5.42,0,0,0,3.09,1c1.23,0,3.47,0,6,0L96.7,66.05C94.6,66,93.08,66.09,93.08,66.09Z"/><path class="cls-13" d="M74.63,66.5l1.06-.55Z"/><path class="cls-15" d="M96.7,66.05,83.13,72.28c6.28,0,14.51-.09,14.51-.09,10.06-.51,11.37-2.73,11.37-2.73C107.36,66.72,100.87,66.14,96.7,66.05Z"/><path class="cls-13" d="M74.45,66.59h0l.17-.09Z"/><path class="cls-13" d="M80.44,64c-.47.14-.94.29-1.4.46C79.5,64.34,80,64.19,80.44,64Z"/><path class="cls-13" d="M80.44,64l.21-.06h0Z"/><polygon class="cls-16" points="73.37 14.74 69.22 15.1 72.47 17.81 71.57 21.79 75 19.62 75 10.94 73.37 14.74"/><polygon class="cls-16" points="63.07 18.53 61.63 15.1 60.18 18.53 56.39 18.89 59.28 21.24 58.37 25.04 61.63 23.05 64.88 25.04 63.98 21.24 66.87 18.89 63.07 18.53"/><polygon class="cls-16" points="50.96 22.69 49.7 19.44 48.43 22.69 45 22.87 47.53 25.04 46.81 28.47 49.7 26.67 52.59 28.47 51.87 25.04 54.4 22.87 50.96 22.69"/><polygon class="cls-17" points="105 22.87 101.57 22.69 100.3 19.44 99.04 22.69 95.6 22.87 98.13 25.04 97.41 28.47 100.3 26.67 103.19 28.47 102.47 25.04 105 22.87"/><polygon class="cls-17" points="76.63 14.74 75 10.94 75 19.62 78.43 21.79 77.53 17.81 80.78 15.1 76.63 14.74"/><polygon class="cls-17" points="89.82 18.53 88.37 15.1 86.93 18.53 83.13 18.89 86.02 21.24 85.12 25.04 88.37 23.05 91.63 25.04 90.72 21.24 93.61 18.89 89.82 18.53"/><path class="cls-18" d="M73.77,70.19a.83.83,0,0,1-.41.71q-.36-.83-.69-1.66h.27a.83.83,0,0,1,.83.83h0Z"/><path class="cls-19" d="M77.87,72.31l7.25,0a3.56,3.56,0,0,0-1.67-3.11H79.53A3.5,3.5,0,0,0,77.87,72.31Z"/><path class="cls-20" d="M78.44,72.15a3.05,3.05,0,0,0,6.11,0,3.05,3.05,0,0,0-6.11,0Z"/><path class="cls-21" d="M79.16,72.15a2.33,2.33,0,1,0,2.33-2.33A2.33,2.33,0,0,0,79.16,72.15Z"/><path class="cls-18" d="M79.64,72.15a1.85,1.85,0,0,0,3.71,0h0a1.85,1.85,0,1,0-3.71,0Z"/><path class="cls-19" d="M103.08,71.64c.12,0,.57-.06.57-.1a3.62,3.62,0,0,0-7.19.64h6.68l-.05-.56Z"/><path class="cls-20" d="M97,72.2a3.05,3.05,0,1,0,3.05-3.05A3.05,3.05,0,0,0,97,72.2Z"/><path class="cls-21" d="M97.74,72.2a2.33,2.33,0,1,0,2.33-2.33A2.33,2.33,0,0,0,97.74,72.2Z"/><path class="cls-18" d="M98.22,72.2a1.85,1.85,0,1,0,1.85-1.85A1.85,1.85,0,0,0,98.22,72.2Z"/><path class="cls-19" d="M87.45,68.23a.25.25,0,0,1-.25.25H85.93a.25.25,0,1,1,0-.51h1.27a.25.25,0,0,1,.25.25Z"/><g class="cls-22"><path class="cls-23" d="M74.45,66.59a27.56,27.56,0,0,0,7.38-.11L80.65,64A31.41,31.41,0,0,0,74.45,66.59Z"/><path class="cls-23" d="M89.24,63.73c-2.19.07-6.42.23-6.48.49,0,0,1.52,2.59,3.43,2.59,0,0,4.58.3,6.87-.74A12.58,12.58,0,0,0,89.24,63.73Z"/></g><path class="cls-24" d="M81.83,66.48,80.65,64a31.41,31.41,0,0,0-6.2,2.61,27.56,27.56,0,0,0,7.38-.11Zm.93-2.25s1.52,2.59,3.43,2.59c0,0,4.58.3,6.87-.74a12.58,12.58,0,0,0-3.82-2.34C87,63.8,82.82,64,82.76,64.23Z"/><path class="cls-17" d="M65.69,56.36H85.3L81.55,53H69.44Z"/><path class="cls-16" d="M65.69,56.36H85.3v1.47H65.69Z"/></svg>