<svg id="图层_1" data-name="图层 1" xmlns="http://www.w3.org/2000/svg" viewBox="0 0 150 90"><defs><style>.cls-1{fill:#e6e6e6;}.cls-2{fill:#ccc;}.cls-3{opacity:0.14;}.cls-4{fill:#e5e5e5;}.cls-5{fill:#f9dfc2;}.cls-6{fill:#d8c1ab;}.cls-7{fill:#cec3b7;}.cls-8{fill:#b2a8a1;}.cls-9{fill:#f2f2f2;opacity:0.81;}.cls-10{fill:#fff;}.cls-11{fill:#ff9a3e;}.cls-12{opacity:0.2;}</style></defs><title>idea</title><path class="cls-1" d="M28.27,7a6.89,6.89,0,0,0-6.87,6.87V76.13A6.89,6.89,0,0,0,28.27,83H74.94V7Z"/><path class="cls-2" d="M121.62,7H74.94V83h46.68a6.89,6.89,0,0,0,6.87-6.87V13.87A6.89,6.89,0,0,0,121.62,7Z"/><path class="cls-3" d="M123.94,79.24h-98a6.47,6.47,0,0,1-4.42-1.75A6.52,6.52,0,0,0,27.94,83h94a6.52,6.52,0,0,0,6.42-5.51A6.47,6.47,0,0,1,123.94,79.24Z"/><path class="cls-4" d="M48,63a2.81,2.81,0,0,1-.91-.15v.25A1.94,1.94,0,0,0,49,65h.71V63Z"/><path class="cls-2" d="M49.75,63v2h.71a1.94,1.94,0,0,0,1.94-1.94V62.9a2.82,2.82,0,0,1-.66.08Z"/><path class="cls-5" d="M45.17,58.1v2a2.85,2.85,0,0,0,1.93,2.69A2.81,2.81,0,0,0,48,63h1.73V58.1Z"/><path class="cls-6" d="M49.75,58.1V63h2a2.82,2.82,0,0,0,.66-.08,2.85,2.85,0,0,0,2.18-2.76v-2Z"/><path class="cls-7" d="M49.75,34.2a11.19,11.19,0,0,0-4.57,21.4c0,.05,0,.1,0,.16V58.1h4.58Z"/><path class="cls-8" d="M60.94,45.39A11.19,11.19,0,0,0,49.75,34.2V58.1h4.83V55.76c0-.09,0-.18,0-.27A11.19,11.19,0,0,0,60.94,45.39Z"/><path class="cls-9" d="M53.25,47.66A1.29,1.29,0,0,0,52.12,47h-4.5a1.31,1.31,0,0,0-1.13,2l2.25,3.87a1.29,1.29,0,0,0,.52.5V58.1h1.22V53.33a1.29,1.29,0,0,0,.52-.5L53.25,49A1.29,1.29,0,0,0,53.25,47.66Zm-1.06.7-2.25,3.87h0a.09.09,0,0,1-.15,0l-2.25-3.87a.09.09,0,0,1,.07-.13h4.5a.09.09,0,0,1,.07.13Z"/><path class="cls-10" d="M43,42.08a1,1,0,0,1-.82-1.62,12,12,0,0,1,2.62-2.63A1,1,0,0,1,46,39.48a10,10,0,0,0-2.18,2.18A1,1,0,0,1,43,42.08Z"/><path class="cls-11" d="M40.71,33.94l-3.28-3.28-1.7,1.7L39,35.65A14.11,14.11,0,0,1,40.71,33.94Z"/><path class="cls-11" d="M35.81,44.59c0-.29,0-.57,0-.85H31v2.4H35.9A14.17,14.17,0,0,1,35.81,44.59Z"/><path class="cls-11" d="M49.84,30.56c.46,0,.92,0,1.38.07V25.95h-2.4V30.6C49.15,30.58,49.49,30.56,49.84,30.56Z"/><path class="cls-11" d="M60.8,35.84l3.48-3.48-1.7-1.7L59.15,34.1A14.11,14.11,0,0,1,60.8,35.84Z"/><path class="cls-11" d="M63.84,43.73c0,.28,0,.57,0,.85a14.17,14.17,0,0,1-.09,1.55H69v-2.4Z"/><rect class="cls-12" x="91.99" y="30.38" width="30.45" height="5.46" rx="1.02" ry="1.02"/><circle class="cls-12" cx="84.78" cy="33.11" r="2.73"/><rect class="cls-12" x="91.99" y="42.03" width="30.45" height="5.46" rx="1.02" ry="1.02"/><circle class="cls-12" cx="84.78" cy="44.75" r="2.73"/><rect class="cls-12" x="91.99" y="53.67" width="30.45" height="5.46" rx="1.02" ry="1.02"/><circle class="cls-12" cx="84.78" cy="56.4" r="2.73"/></svg>