<svg id="图层_1" data-name="图层 1" xmlns="http://www.w3.org/2000/svg" viewBox="0 0 150 90"><defs><style>.cls-1{fill:#e6e6e6;}.cls-2{fill:#ccc;}.cls-3{opacity:0.14;}.cls-4{fill:#d82e3a;}.cls-5{fill:#c1272d;}.cls-6{fill:#ef9f50;}.cls-7{fill:#e59033;}.cls-8{fill:#4d4d4d;opacity:0.2;}.cls-9{fill:#0071bc;}.cls-10{fill:#0088d3;}</style></defs><title>info</title><path class="cls-1" d="M27.76,85.63h0Z"/><path class="cls-1" d="M26,82H74.65V31.82H21.43V79a6.75,6.75,0,0,0,.37,2.2,6.38,6.38,0,0,1-.22-.87A6.45,6.45,0,0,0,26,82Z"/><path class="cls-2" d="M74.65,82H123.8a6.4,6.4,0,0,0,3.84-1.3,6.76,6.76,0,0,0,.24-1.77V31.82H74.65Z"/><path class="cls-3" d="M28.09,85.66h.27c-.2,0-.4,0-.6,0C27.87,85.63,28,85.66,28.09,85.66Z"/><path class="cls-3" d="M21.92,81a6.46,6.46,0,0,0,5.67,4.56A6.84,6.84,0,0,1,21.92,81Z"/><path class="cls-3" d="M120.87,85.66h.75A6.49,6.49,0,0,0,128,80.18a6.62,6.62,0,0,1-.57.44A6.83,6.83,0,0,1,120.87,85.66Z"/><rect class="cls-3" x="21.43" y="27.3" width="106.45" height="8.11"/><path class="cls-1" d="M26.1,81.92a6.43,6.43,0,0,1-4.39-1.74,6.36,6.36,0,0,0,.22.87,6.84,6.84,0,0,0,5.67,4.56h.16c.2,0,.4,0,.6,0H74.61V81.92Z"/><path class="cls-2" d="M127.43,80.62a6.38,6.38,0,0,1-3.82,1.3h-49v3.74h46.26A6.83,6.83,0,0,0,127.43,80.62Z"/><path class="cls-3" d="M25.85,81.91a6.48,6.48,0,0,1-4.42-1.75,6.4,6.4,0,0,0,.22.88,6.88,6.88,0,0,0,5.71,4.6l.16,0c.2,0,.4,0,.6,0H74.69V81.91Z"/><path class="cls-3" d="M127.88,80.6A6.42,6.42,0,0,1,124,81.91H74.69v3.76h46.57A6.87,6.87,0,0,0,127.88,80.6Z"/><path class="cls-4" d="M74.65,10.23H28.25a6.85,6.85,0,0,0-6.83,6.83V31.82H74.65Z"/><path class="cls-5" d="M127.88,31.82V17.06a6.85,6.85,0,0,0-6.83-6.83H74.65V31.82Z"/><rect class="cls-6" x="34.5" y="3.84" width="11.83" height="17.58" rx="3.46" ry="3.46"/><rect class="cls-7" x="103.1" y="3.84" width="11.83" height="17.58" rx="3.46" ry="3.46"/><path class="cls-8" d="M57.79,71.14a6.17,6.17,0,0,1,0-12.35H92.21a8.79,8.79,0,1,0,0-17.58H49v2.62H92.21a6.17,6.17,0,0,1,0,12.34H57.79l-.46,0v0a8.79,8.79,0,0,0,.46,17.56H101V71.14H57.79Z"/><path class="cls-9" d="M48.71,39.34l-1,1-3,3-3.18,3.18a5.07,5.07,0,0,0,7.18-7.18Z"/><path class="cls-10" d="M48.71,39.34a5.07,5.07,0,0,0-7.18,7.18h0l3.18-3.18,3-3,1-1Z"/><path class="cls-9" d="M103.71,46.34l-1,1-3,3-3.18,3.18a5.07,5.07,0,0,0,7.18-7.18Z"/><path class="cls-10" d="M103.71,46.34a5.09,5.09,0,0,0-8.18,1.39,5,5,0,0,0,1,5.79h0l3.18-3.18,3-3,1-1Z"/><path class="cls-9" d="M52.71,61.34l-1,1-3,3-3.18,3.18a5.07,5.07,0,0,0,7.18-7.18Z"/><path class="cls-10" d="M52.71,61.34a5.07,5.07,0,1,0-7.18,7.18h0l3.18-3.18,3-3,1-1Z"/><path class="cls-9" d="M108.71,68.34l-1,1-3,3-3.18,3.18a5.07,5.07,0,0,0,7.18-7.18Z"/><path class="cls-10" d="M108.71,68.34a5.07,5.07,0,1,0-7.18,7.18h0l3.18-3.18,3-3,1-1Z"/></svg>