<svg id="图层_1" data-name="图层 1" xmlns="http://www.w3.org/2000/svg" viewBox="0 0 150 90"><defs><style>.cls-1{fill:#e6e6e6;}.cls-2{fill:#ccc;}.cls-3{opacity:0.14;}.cls-4{fill:#e53553;}.cls-5{fill:none;}.cls-6{fill:#e59033;}.cls-7{fill:#cc832b;}.cls-8{fill:#cc2e41;}.cls-9{fill:#0088d3;}.cls-10{fill:#0071bc;}</style></defs><title>phone</title><path class="cls-1" d="M30.27,7a6.89,6.89,0,0,0-6.87,6.87V76.13A6.89,6.89,0,0,0,30.27,83H76.94V7Z"/><path class="cls-2" d="M123.62,7H76.94V83h46.68a6.89,6.89,0,0,0,6.87-6.87V13.87A6.89,6.89,0,0,0,123.62,7Z"/><path class="cls-3" d="M125.94,79.24h-98a6.47,6.47,0,0,1-4.42-1.75A6.52,6.52,0,0,0,29.94,83h94a6.52,6.52,0,0,0,6.42-5.51A6.47,6.47,0,0,1,125.94,79.24Z"/><path class="cls-4" d="M78.49,10.06c-12.83,0-23.22,8.88-23.22,19.84a17.37,17.37,0,0,0,2,8.14,19.66,19.66,0,0,0,3.25,4.45l-6.4,15.57L68,47.59a26.36,26.36,0,0,0,10.52,2.15c12.83,0,23.22-8.88,23.22-19.84S91.31,10.06,78.49,10.06Z"/><path class="cls-5" d="M80.45,24.74a2.06,2.06,0,0,0-.6-1.58A2.57,2.57,0,0,0,78,22.6a3.39,3.39,0,0,0-.8.09v5.74C77.72,28,78.3,27.52,79,27Q80.45,25.76,80.45,24.74Z"/><rect class="cls-6" x="73.49" y="37.74" width="3.74" height="6.63"/><rect class="cls-7" x="77.23" y="37.74" width="3.77" height="6.63"/><path class="cls-7" d="M84.64,18.52a11.36,11.36,0,0,0-6.5-1.68l-.91,0V22.7a3.39,3.39,0,0,1,.8-.09,2.57,2.57,0,0,1,1.82.56,2.06,2.06,0,0,1,.6,1.58q0,1-1.5,2.23c-.66.55-1.23,1-1.72,1.46v7.44h3.51a4.86,4.86,0,0,1,.49-2.34,9.51,9.51,0,0,1,2.35-2.37,14.93,14.93,0,0,0,3.54-3.56,5.84,5.84,0,0,0,.87-3A7,7,0,0,0,84.64,18.52Z"/><path class="cls-6" d="M70.47,19.25a9.75,9.75,0,0,0-2.87,6.36l7.16.89a5.08,5.08,0,0,1,1.1-3,2.82,2.82,0,0,1,1.37-.77V16.87Q72.75,17.06,70.47,19.25Z"/><path class="cls-6" d="M75.35,30.23a6.44,6.44,0,0,0-1.21,2,8.67,8.67,0,0,0-.41,2.91v.7h3.5V28.44A21.51,21.51,0,0,0,75.35,30.23Z"/><path class="cls-8" d="M101.78,23.77c-12.83,0-23.22,8.88-23.22,19.84a17.37,17.37,0,0,0,2,8.14,19.24,19.24,0,0,0,2,3l-17,10.28,25.23-4a26.29,26.29,0,0,0,11,2.35c12.83,0,23.22-8.88,23.22-19.84S114.6,23.77,101.78,23.77Z"/><polygon class="cls-6" points="97.64 30.67 97.64 39.35 88.96 39.35 88.96 48.03 97.64 48.03 97.64 56.71 101.98 56.71 101.98 30.67 97.64 30.67"/><polygon class="cls-7" points="106.32 39.35 106.32 30.67 101.98 30.67 101.98 56.71 106.32 56.71 106.32 48.03 115 48.03 115 39.35 106.32 39.35"/><path class="cls-9" d="M51.06,72.42a18,18,0,0,1-4-2.24l-1.11-.73a23.06,23.06,0,0,1-3.84-3.09,37.77,37.77,0,0,1-5.27-6.9,37.77,37.77,0,0,1-3.77-7.82,23.06,23.06,0,0,1-1-4.82,36.72,36.72,0,0,1-.41-5.16,9.77,9.77,0,0,1,2.61-6,14.87,14.87,0,0,1,1.13-1.12,8.88,8.88,0,0,0-2.7,2.19,9.77,9.77,0,0,0-2.61,6,36.72,36.72,0,0,0,.41,5.16,23.06,23.06,0,0,0,1,4.82,37.77,37.77,0,0,0,3.77,7.82,37.77,37.77,0,0,0,5.27,6.9,23.06,23.06,0,0,0,3.84,3.09l1.11.73a18,18,0,0,0,4,2.24,9.9,9.9,0,0,0,5.88.12,7.31,7.31,0,0,0,3.53-1.77,13.37,13.37,0,0,1-2,.69A9.9,9.9,0,0,1,51.06,72.42Z"/><path class="cls-10" d="M60.65,67.91q0-.48-1.57-1.76l-1.16-1.06-1.37-1.24q-.61-.57-1.14-1.08l-.51-.58c-.85-1-1.56-1.35-2.72-.73l-.11.05a22.74,22.74,0,0,0-2.28,1.64l-.28.21c-.52.38-1.44,1.18-2.16,1s-1.31-1-1.9-1.47a25.23,25.23,0,0,1-7.71-12.55c-.18-.75-.74-1.73-.4-2.51a3.37,3.37,0,0,1,1.73-1.32c.38-.17.76-.32,1-.44a12.37,12.37,0,0,0,1.86-1,2.58,2.58,0,0,0,.57-.49c.73-.86.33-1.89-.18-3.05q-.23-.71-.45-1.51t-.49-1.78q-.26-1-.42-1.51-.45-1.94-.86-2.19c-.92-.69-3.08-.44-4.13-.25a2.72,2.72,0,0,0-.65.2,14.87,14.87,0,0,0-1.13,1.12,9.77,9.77,0,0,0-2.61,6A36.72,36.72,0,0,0,32,46.81a23.06,23.06,0,0,0,1,4.82,37.77,37.77,0,0,0,3.77,7.82,37.77,37.77,0,0,0,5.27,6.9,23.06,23.06,0,0,0,3.84,3.09l1.11.73a18,18,0,0,0,4,2.24,9.9,9.9,0,0,0,5.88.12,13.37,13.37,0,0,0,2-.69l.12-.14a10.17,10.17,0,0,0,.93-1.57,8.39,8.39,0,0,0,.67-1.69h0A1.41,1.41,0,0,0,60.65,67.91Z"/></svg>