<svg id="图层_1" data-name="图层 1" xmlns="http://www.w3.org/2000/svg" viewBox="0 0 150 90"><defs><style>.cls-1{fill:#e6e6e6}.cls-2{fill:#ccc}.cls-5{fill:#39b54a}.cls-6{fill:#31993b}.cls-7{fill:#cc832b}.cls-8{fill:#e59033}.cls-9{opacity:.2}</style></defs><path class="cls-1" d="M27.68 9a6.89 6.89 0 0 0-6.87 6.87v62.26A6.89 6.89 0 0 0 27.68 85h46.67V9z"/><path class="cls-2" d="M121 9H74.35v76H121a6.89 6.89 0 0 0 6.87-6.87V15.87A6.89 6.89 0 0 0 121 9z"/><path fill="#534741" opacity=".74" d="M29.85 17h89v52h-89z"/><path d="M123.35 81.24h-98a6.47 6.47 0 0 1-4.42-1.75A6.52 6.52 0 0 0 27.35 85h94a6.52 6.52 0 0 0 6.42-5.51 6.47 6.47 0 0 1-4.42 1.75z" opacity=".14"/><path class="cls-1" d="M51.05 22.7a4.21 4.21 0 0 0-4.21 4.21v.32h-.28a2.7 2.7 0 0 0 .44 5.4h5v-9.81a4.26 4.26 0 0 0-.95-.12z"/><path class="cls-2" d="M58 27.38l-.19-.06v-.2a2.26 2.26 0 0 0-2.22-1.9H55l-.11-.22A4.18 4.18 0 0 0 52 22.82v9.81h5.1a2.7 2.7 0 0 0 .9-5.25z"/><path class="cls-1" d="M61.55 22.86a6 6 0 0 0-6 6v.45l-.39.07a3.84 3.84 0 0 0 .65 7.62H63V23a6.07 6.07 0 0 0-1.45-.14z"/><path class="cls-2" d="M71.4 29.53l-.27-.09v-.28a3.2 3.2 0 0 0-3.66-2.67l-.34.05-.15-.31A6 6 0 0 0 63 23v14h7.2a3.84 3.84 0 0 0 1.24-7.47z"/><path class="cls-5" d="M74.35 27L60.06 46.1h5.41L54.53 60h19.82V27z"/><path class="cls-6" d="M83.23 46.1h5.42L74.35 27v33h19.82L83.23 46.1z"/><path class="cls-7" d="M74.35 60h5.5v9h-5.5z"/><path class="cls-8" d="M68.85 60h5.5v9h-5.5z"/><path class="cls-9" d="M68.85 60h11v2h-11z"/><path class="cls-5" d="M44.77 51.55l-5.94 7.93h2.25l-4.55 5.78h8.24V51.55z"/><path class="cls-6" d="M48.45 59.48h2.25l-5.93-7.93v13.71H53l-4.55-5.78z"/><path class="cls-7" d="M44.77 65.26h2.28V69h-2.28z"/><path class="cls-8" d="M42.48 65.26h2.28V69h-2.28z"/><path class="cls-9" d="M42.48 65.26h4.57v.83h-4.57z"/><path class="cls-5" d="M103.35 38L92.8 52.1h4l-8.08 10.26H103.35V38z"/><path class="cls-6" d="M109.9 52.1h3.99L103.35 38v24.36H117.97L109.9 52.1z"/><path class="cls-7" d="M103.35 62.36h4.06V69h-4.06z"/><path class="cls-8" d="M99.29 62.36h4.06V69h-4.06z"/><path class="cls-9" d="M99.29 62.36h8.12v1.48h-8.12z"/></svg>