<svg id="图层_1" data-name="图层 1" xmlns="http://www.w3.org/2000/svg" viewBox="0 0 150 90"><defs><style>.cls-1{fill:#e6e6e6}.cls-2{fill:#ccc}.cls-9{fill:#cc2e41}.cls-11{fill:#e53553}.cls-13{opacity:.2}.cls-18{fill:#ef9f50}.cls-19{fill:#e59033}</style></defs><path class="cls-1" d="M28.36 9a6.89 6.89 0 0 0-6.87 6.87v62.26A6.89 6.89 0 0 0 28.36 85H75V9z"/><path class="cls-2" d="M121.71 9H75v76h46.68a6.89 6.89 0 0 0 6.87-6.87V15.87A6.89 6.89 0 0 0 121.71 9z"/><path d="M124 81.24H26a6.47 6.47 0 0 1-4.42-1.75A6.52 6.52 0 0 0 28 85h94a6.52 6.52 0 0 0 6.42-5.51 6.47 6.47 0 0 1-4.42 1.75z" opacity=".14"/><path d="M48.31 81H75V59.29c-13.63 0-24.91 9.45-26.69 21.71z" fill="#0088d3"/><path d="M75 59.29V81h26.72C100 68.74 88.69 59.29 75 59.29z" fill="#0071bc"/><path d="M85.95 47.08a38.58 38.58 0 0 1-10.77 1.5H75v8.37a11 11 0 0 0 10.95-9.87z" fill="#c69c6d"/><path d="M64.12 47A11 11 0 0 0 75 56.95v-8.37A38.46 38.46 0 0 1 64.12 47z" fill="#ddac7c"/><path d="M75.18 48.58a38.58 38.58 0 0 0 10.77-1.5c0-.36.05-.73.05-1.1A11 11 0 0 0 75 35v13.58z"/><path d="M75 35a11 11 0 0 0-11 11v1a38.46 38.46 0 0 0 11 1.58z" fill="#2d2d2d"/><path class="cls-9" d="M94 34v17.47L102 34h-8z"/><g opacity=".55"><path d="M58 77.79a.24.24 0 0 1-.12 0 41.66 41.66 0 0 0-4.44-2.33.24.24 0 1 1 .2-.44 42 42 0 0 1 4.5 2.36.24.24 0 0 1-.12.45zM92 77.79a.24.24 0 0 1-.12-.45A42 42 0 0 1 96.42 75a.24.24 0 1 1 .2.44 41.66 41.66 0 0 0-4.44 2.33.24.24 0 0 1-.18.02z"/></g><path class="cls-11" d="M93.16 15.5a4.41 4.41 0 0 0-4.41 4.41v15.18a4.41 4.41 0 0 0 4.41 4.41h.09l24-24z"/><path class="cls-9" d="M117.34 15.5h-.09l-24 24h24.09a4.41 4.41 0 0 0 4.41-4.41V19.91a4.41 4.41 0 0 0-4.41-4.41zM61.83 45.85l-7.64-6.55-2.31 5.04 9.95 1.51z"/><g opacity=".8"><path class="cls-1" d="M95.64 26.84A5.65 5.65 0 0 0 92.29 32H98v-4.22a3.43 3.43 0 0 1-2.36-.94z"/><path class="cls-2" d="M100.33 26.88a3.43 3.43 0 0 1-2.32.9V32h5.6a5.65 5.65 0 0 0-3.28-5.12z"/><path class="cls-1" d="M97.95 19.39a3.44 3.44 0 0 0-3.44 3.44V23.29a3.43 3.43 0 0 0 3.4 3H98v-6.9z"/><path class="cls-2" d="M101.23 21.51a3.44 3.44 0 0 0-3.17-2.12H98v6.87h.06a3.43 3.43 0 0 0 3.4-3v-.3-.16a3.43 3.43 0 0 0-.23-1.29z"/></g><rect class="cls-13" x="92" y="34.41" width="27" height="2.05" rx="1.02" ry="1.02"/><rect class="cls-13" x="105" y="20.41" width="14" height="2.05" rx="1.02" ry="1.02"/><rect class="cls-13" x="105" y="25.08" width="14" height="2.05" rx="1.02" ry="1.02"/><rect class="cls-13" x="105" y="29.75" width="14" height="2.05" rx="1.02" ry="1.02"/><path d="M72.79 70.22A2.25 2.25 0 0 1 75 68a2.24 2.24 0 0 1 1.59.66l9.19-9.19H61a2.12 2.12 0 0 0-2.11 2.11v17.3A2.12 2.12 0 0 0 61 81h3.29l9.19-9.19a2.24 2.24 0 0 1-.69-1.59z" fill="#7f7f7f"/><path d="M89.1 59.44h-3.29l-9.19 9.19A2.24 2.24 0 0 1 75 72.46a2.24 2.24 0 0 1-1.59-.66L64.26 81H89.1a2.12 2.12 0 0 0 2.11-2.11V61.55a2.12 2.12 0 0 0-2.11-2.11z" fill="#606060"/><path d="M75 72.46a2.24 2.24 0 0 0 1.59-3.83l-3.14 3.17a2.24 2.24 0 0 0 1.55.66z" fill="#e5e5e5"/><path d="M75 68a2.24 2.24 0 0 0-1.59 3.83l3.17-3.17A2.24 2.24 0 0 0 75 68z" fill="#fff"/><path class="cls-11" d="M34.92 39l-2-10.24 10.24-2 1.1 5.57 2-2a2.9 2.9 0 1 1 4.1-4.1l2.4-2.4a14.5 14.5 0 1 0-20.51 20.42l5.92-5.92z"/><path class="cls-9" d="M50.35 26.15a2.9 2.9 0 1 1-4.1 4.1l-2 2 .93 4.67-7 1.39-5.92 5.92a14.5 14.5 0 0 0 20.49-20.48zm1.77 13.18l-9.19 6.15a1.43 1.43 0 0 1-2-.39l-.34-.51a1.43 1.43 0 0 1 .39-2l9.19-6.15a1.43 1.43 0 0 1 2 .39l.34.51a1.43 1.43 0 0 1-.39 2z"/><path class="cls-18" d="M45.4 28.2a2.89 2.89 0 0 0 .85 2.05l4.1-4.1a2.9 2.9 0 0 0-5 2.05z"/><path class="cls-19" d="M48.3 31.1a2.9 2.9 0 0 0 2.05-5l-4.1 4.1a2.89 2.89 0 0 0 2.05.9zM45.16 36.94l-.93-4.67-6.06 6.06 6.99-1.39z"/><path class="cls-18" d="M32.88 28.74l2.04 10.24 3.25-.65 6.06-6.06-1.11-5.57-10.24 2.04z"/><rect class="cls-19" x="39.6" y="39.22" width="13.92" height="3.48" rx="1.43" ry="1.43" transform="rotate(-33.78 46.558 40.953)"/></svg>