<svg id="图层_1" data-name="图层 1" xmlns="http://www.w3.org/2000/svg" viewBox="0 0 150 90"><defs><style>.cls-4{fill:#39b54a}.cls-5{fill:#31993b}.cls-6{fill:#cc832b}.cls-7{fill:#e59033}.cls-8{opacity:.2}.cls-9{fill:#e87e04}.cls-10{fill:#d55400}.cls-11{fill:#f59d00}.cls-13{fill:#ffb100}.cls-16{fill:#d82e3a}.cls-17{fill:#c1272d}.cls-18{fill:#bbb}.cls-19{fill:#333}.cls-20{fill:#424242}.cls-21{fill:#fff}.cls-23{fill:#aae1f7;opacity:.74}</style></defs><path d="M48.2 49.88a9.4 9.4 0 0 0-6.34 2.8L20.21 78.13c-1.31 1.54.92 2.81 5 2.81h50l-.09-31z" fill="#e6e6e6"/><path d="M101.89 50L75 49.94l.09 31h50c4 0 6.27-1.26 4.95-2.8l-21.8-25.35a9.53 9.53 0 0 0-6.35-2.79z" fill="#ccc"/><path d="M126.37 79.26H23.62a7.65 7.65 0 0 1-3.93-.81C19 79.88 20.92 81 24.41 81h101.18c3.48 0 5.44-1.11 4.71-2.55a7.67 7.67 0 0 1-3.93.81z" opacity=".14"/><path class="cls-4" d="M104.27 42.55l-5.94 7.93h2.25l-4.55 5.78h8.24V42.55z"/><path class="cls-5" d="M107.95 50.48h2.25l-5.93-7.93v13.71h8.23l-4.55-5.78z"/><path class="cls-6" d="M104.27 56.26h2.28V60h-2.28z"/><path class="cls-7" d="M101.98 56.26h2.28V60h-2.28z"/><path class="cls-8" d="M101.98 56.26h4.57v.83h-4.57z"/><path class="cls-9" d="M98.44 67.53H86a1.8 1.8 0 0 1-1.8-1.8V47.46a1.8 1.8 0 0 1 1.8-1.8h12.44a1.8 1.8 0 0 1 1.8 1.8v18.28a1.8 1.8 0 0 1-1.8 1.8z"/><path class="cls-10" d="M99.7 49.26H86a1.8 1.8 0 0 1-1.8-1.8v-7.17a1.8 1.8 0 0 1 1.8-1.8h13.7a1.8 1.8 0 0 1 1.8 1.8v7.17a1.8 1.8 0 0 1-1.8 1.8z"/><path class="cls-11" d="M64.8 67.53H52.34a1.8 1.8 0 0 1-1.8-1.8V47.46a1.8 1.8 0 0 1 1.8-1.8H64.8a1.8 1.8 0 0 1 1.8 1.8v18.28a1.8 1.8 0 0 1-1.8 1.8z"/><path class="cls-9" d="M64.8 49.26H51.08a1.8 1.8 0 0 1-1.8-1.8v-7.17a1.8 1.8 0 0 1 1.8-1.8H64.8a1.8 1.8 0 0 1 1.8 1.8v7.17a1.8 1.8 0 0 1-1.8 1.8z"/><path d="M87.78 67.53H63V36.34a1.8 1.8 0 0 1 1.8-1.8H86a1.8 1.8 0 0 1 1.8 1.8v31.19z" fill="#f2c500"/><path class="cls-11" d="M87.78 36.34a1.8 1.8 0 0 0-1.8-1.8H75.39v33h12.39v-31.2z"/><path class="cls-9" d="M81.83 67.53H68.95v-9.26a1.8 1.8 0 0 1 1.8-1.8H80a1.8 1.8 0 0 1 1.8 1.8z"/><path class="cls-11" d="M88.21 38.13H62.57a1.8 1.8 0 0 1-1.8-1.8v-7.6a1.8 1.8 0 0 1 1.8-1.8h25.64a1.8 1.8 0 0 1 1.8 1.8v7.61a1.8 1.8 0 0 1-1.8 1.8z"/><path class="cls-9" d="M88.21 26.94H75.39v11.2h12.82a1.8 1.8 0 0 0 1.8-1.8v-7.61a1.8 1.8 0 0 0-1.8-1.8zm-8.55 18.73h-8.54a1.8 1.8 0 0 1 0-3.59h8.54a1.8 1.8 0 0 1 0 3.59zm0 5.29h-8.54a1.8 1.8 0 0 1 0-3.59h8.54a1.8 1.8 0 0 1 0 3.59z"/><path class="cls-10" d="M81.83 58.27a1.8 1.8 0 0 0-1.8-1.8h-4.64v11.06h6.44v-9.26zm-2.17-16.19h-4.27v3.59h4.27a1.8 1.8 0 0 0 0-3.59zm0 5.29h-4.27V51h4.27a1.8 1.8 0 0 0 0-3.59z"/><path class="cls-4" d="M41.85 41.48L31.29 55.59h4l-8.08 10.28h14.64V41.48z"/><path class="cls-5" d="M48.41 55.59h4.01L41.85 41.48v24.39H56.5l-8.09-10.28z"/><path class="cls-6" d="M41.85 65.87h4.06v6.65h-4.06z"/><path class="cls-7" d="M37.79 65.87h4.06v6.65h-4.06z"/><path class="cls-8" d="M37.79 65.87h8.13v1.48h-8.13z"/><path class="cls-13" d="M75.93 65.83c.9-.44 1.87-.87 2.89-1.25-1.02.42-1.99.81-2.89 1.25z"/><path d="M93.08 66.09c-2.29 1-6.87.74-6.87.74-1.92 0-3.43-2.59-3.43-2.59.06-.27 4.28-.43 6.47-.49h-.15a15.58 15.58 0 0 0-8.43.3l1.17 2.49a27.55 27.55 0 0 1-7.37.11c-.87.47-1.65.92-2.31 1.31q.56 1.48 1.18 2.93l.67.42a5.42 5.42 0 0 0 3.09 1h6l13.6-6.26c-2.1-.05-3.62.04-3.62.04z" fill="#0088d3"/><path class="cls-13" d="M74.63 66.5l1.06-.55z"/><path d="M96.7 66.05l-13.57 6.23c6.28 0 14.51-.09 14.51-.09 10.06-.51 11.37-2.73 11.37-2.73-1.65-2.74-8.14-3.32-12.31-3.41z" fill="#0071bc"/><path class="cls-13" d="M74.45 66.59l.17-.09zM80.44 64c-.47.14-.94.29-1.4.46.46-.12.96-.27 1.4-.46zM80.44 64l.21-.06z"/><path class="cls-16" d="M73.37 14.74l-4.15.36 3.25 2.71-.9 3.98L75 19.62v-8.68l-1.63 3.8zM63.07 18.53l-1.44-3.43-1.45 3.43-3.79.36 2.89 2.35-.91 3.8 3.26-1.99 3.25 1.99-.9-3.8 2.89-2.35-3.8-.36zM50.96 22.69l-1.26-3.25-1.27 3.25-3.43.18 2.53 2.17-.72 3.43 2.89-1.8 2.89 1.8-.72-3.43 2.53-2.17-3.44-.18z"/><path class="cls-17" d="M105 22.87l-3.43-.18-1.27-3.25-1.26 3.25-3.44.18 2.53 2.17-.72 3.43 2.89-1.8 2.89 1.8-.72-3.43 2.53-2.17zM76.63 14.74L75 10.94v8.68l3.43 2.17-.9-3.98 3.25-2.71-4.15-.36zM89.82 18.53l-1.45-3.43-1.44 3.43-3.8.36 2.89 2.35-.9 3.8 3.25-1.99 3.26 1.99-.91-3.8 2.89-2.35-3.79-.36z"/><path class="cls-18" d="M73.77 70.19a.83.83 0 0 1-.41.71q-.36-.83-.69-1.66h.27a.83.83 0 0 1 .83.83z"/><path class="cls-19" d="M77.87 72.31h7.25a3.56 3.56 0 0 0-1.67-3.11h-3.92a3.5 3.5 0 0 0-1.66 3.11z"/><path class="cls-20" d="M78.44 72.15a3.05 3.05 0 0 0 6.11 0 3.05 3.05 0 0 0-6.11 0z"/><path class="cls-21" d="M79.16 72.15a2.33 2.33 0 1 0 2.33-2.33 2.33 2.33 0 0 0-2.33 2.33z"/><path class="cls-18" d="M79.64 72.15a1.85 1.85 0 0 0 3.71 0 1.85 1.85 0 1 0-3.71 0z"/><path class="cls-19" d="M103.08 71.64c.12 0 .57-.06.57-.1a3.62 3.62 0 0 0-7.19.64h6.68l-.05-.56z"/><path class="cls-20" d="M97 72.2a3.05 3.05 0 1 0 3.05-3.05A3.05 3.05 0 0 0 97 72.2z"/><path class="cls-21" d="M97.74 72.2a2.33 2.33 0 1 0 2.33-2.33 2.33 2.33 0 0 0-2.33 2.33z"/><path class="cls-18" d="M98.22 72.2a1.85 1.85 0 1 0 1.85-1.85 1.85 1.85 0 0 0-1.85 1.85z"/><path class="cls-19" d="M87.45 68.23a.25.25 0 0 1-.25.25h-1.27a.25.25 0 1 1 0-.51h1.27a.25.25 0 0 1 .25.25z"/><g opacity=".48"><path class="cls-23" d="M74.45 66.59a27.56 27.56 0 0 0 7.38-.11L80.65 64a31.41 31.41 0 0 0-6.2 2.59zM89.24 63.73c-2.19.07-6.42.23-6.48.49 0 0 1.52 2.59 3.43 2.59 0 0 4.58.3 6.87-.74a12.58 12.58 0 0 0-3.82-2.34z"/></g><path d="M81.83 66.48L80.65 64a31.41 31.41 0 0 0-6.2 2.61 27.56 27.56 0 0 0 7.38-.11zm.93-2.25s1.52 2.59 3.43 2.59c0 0 4.58.3 6.87-.74a12.58 12.58 0 0 0-3.82-2.34c-2.24.06-6.42.26-6.48.49z" fill="#aae1f7" opacity=".48"/><path class="cls-17" d="M65.69 56.36H85.3L81.55 53H69.44z"/><path class="cls-16" d="M65.69 56.36H85.3v1.47H65.69z"/></svg>