<svg id="图层_1" data-name="图层 1" xmlns="http://www.w3.org/2000/svg" viewBox="0 0 150 90"><defs><style>.cls-2{fill:#ccc}.cls-11{fill:#ff9a3e}.cls-12{opacity:.2}</style></defs><path d="M28.27 7a6.89 6.89 0 0 0-6.87 6.87v62.26A6.89 6.89 0 0 0 28.27 83h46.67V7z" fill="#e6e6e6"/><path class="cls-2" d="M121.62 7H74.94v76h46.68a6.89 6.89 0 0 0 6.87-6.87V13.87A6.89 6.89 0 0 0 121.62 7z"/><path d="M123.94 79.24h-98a6.47 6.47 0 0 1-4.42-1.75A6.52 6.52 0 0 0 27.94 83h94a6.52 6.52 0 0 0 6.42-5.51 6.47 6.47 0 0 1-4.42 1.75z" opacity=".14"/><path d="M48 63a2.81 2.81 0 0 1-.91-.15v.25A1.94 1.94 0 0 0 49 65h.71v-2z" fill="#e5e5e5"/><path class="cls-2" d="M49.75 63v2h.71a1.94 1.94 0 0 0 1.94-1.94v-.16a2.82 2.82 0 0 1-.66.08z"/><path d="M45.17 58.1v2a2.85 2.85 0 0 0 1.93 2.69 2.81 2.81 0 0 0 .9.21h1.73v-4.9z" fill="#f9dfc2"/><path d="M49.75 58.1V63h2a2.82 2.82 0 0 0 .66-.08 2.85 2.85 0 0 0 2.18-2.76v-2z" fill="#d8c1ab"/><path d="M49.75 34.2a11.19 11.19 0 0 0-4.57 21.4v2.5h4.58z" fill="#cec3b7"/><path d="M60.94 45.39A11.19 11.19 0 0 0 49.75 34.2v23.9h4.83v-2.34-.27a11.19 11.19 0 0 0 6.36-10.1z" fill="#b2a8a1"/><path d="M53.25 47.66a1.29 1.29 0 0 0-1.13-.66h-4.5a1.31 1.31 0 0 0-1.13 2l2.25 3.87a1.29 1.29 0 0 0 .52.5v4.73h1.22v-4.77a1.29 1.29 0 0 0 .52-.5L53.25 49a1.29 1.29 0 0 0 0-1.34zm-1.06.7l-2.25 3.87a.09.09 0 0 1-.15 0l-2.25-3.87a.09.09 0 0 1 .07-.13h4.5a.09.09 0 0 1 .07.13z" fill="#f2f2f2" opacity=".81"/><path d="M43 42.08a1 1 0 0 1-.82-1.62 12 12 0 0 1 2.62-2.63 1 1 0 0 1 1.2 1.65 10 10 0 0 0-2.18 2.18 1 1 0 0 1-.82.42z" fill="#fff"/><path class="cls-11" d="M40.71 33.94l-3.28-3.28-1.7 1.7L39 35.65a14.11 14.11 0 0 1 1.71-1.71zM35.81 44.59v-.85H31v2.4h4.9a14.17 14.17 0 0 1-.09-1.55zM49.84 30.56c.46 0 .92 0 1.38.07v-4.68h-2.4v4.65c.33-.02.67-.04 1.02-.04zM60.8 35.84l3.48-3.48-1.7-1.7-3.43 3.44a14.11 14.11 0 0 1 1.65 1.74zM63.84 43.73v.85a14.17 14.17 0 0 1-.09 1.55H69v-2.4z"/><rect class="cls-12" x="91.99" y="30.38" width="30.45" height="5.46" rx="1.02" ry="1.02"/><circle class="cls-12" cx="84.78" cy="33.11" r="2.73"/><rect class="cls-12" x="91.99" y="42.03" width="30.45" height="5.46" rx="1.02" ry="1.02"/><circle class="cls-12" cx="84.78" cy="44.75" r="2.73"/><rect class="cls-12" x="91.99" y="53.67" width="30.45" height="5.46" rx="1.02" ry="1.02"/><circle class="cls-12" cx="84.78" cy="56.4" r="2.73"/></svg>