<svg id="图层_1" data-name="图层 1" xmlns="http://www.w3.org/2000/svg" viewBox="0 0 150 90"><defs><style>.cls-8{opacity:.2}.cls-9{opacity:.14}</style></defs><path d="M28.82 7A6.89 6.89 0 0 0 22 13.87v62.26A6.89 6.89 0 0 0 28.82 83H75.5V7z" fill="#e6e6e6"/><path d="M122.18 7H75.5v76h46.68a6.89 6.89 0 0 0 6.82-6.87V13.87A6.89 6.89 0 0 0 122.18 7z" fill="#ccc"/><path d="M50 27.3V22h-.16a9.7 9.7 0 0 0-9 6h1.56a40.61 40.61 0 0 0 7.6-.7z" fill="#2d2d2d"/><path d="M57.1 25.27A9.66 9.66 0 0 0 50 22v5.3a40.57 40.57 0 0 0 7.1-2.03z"/><path d="M50 32.16h13.7a.92.92 0 0 0 0-1.85h-4.27a9.67 9.67 0 0 0-2.34-5 40.57 40.57 0 0 1-7.1 2z" fill="#0071bc"/><path d="M50 27.3a40.61 40.61 0 0 1-7.55.71h-1.56a9.66 9.66 0 0 0-.75 3.73v.46H50z" fill="#0088d3"/><path d="M43.35 43a15.94 15.94 0 0 0-9.45 14.56H50v-11.9A9.67 9.67 0 0 1 43.35 43z" fill="#d82e3a"/><path d="M56.56 43.11A9.67 9.67 0 0 1 50 45.66v11.9h15.79a15.93 15.93 0 0 0-9.23-14.45z" fill="#c1272d"/><rect class="cls-8" x="38.1" y="64" width="22.9" height="4" rx="1.02" ry="1.02"/><rect class="cls-8" x="93.3" y="27" width="27.9" height="5" rx="1.02" ry="1.02"/><circle class="cls-8" cx="86.7" cy="29.5" r="2.5"/><rect class="cls-8" x="93.3" y="37.67" width="27.9" height="5" rx="1.02" ry="1.02"/><circle class="cls-8" cx="86.7" cy="40.17" r="2.5"/><rect class="cls-8" x="93.3" y="48.33" width="27.9" height="5" rx="1.02" ry="1.02"/><circle class="cls-8" cx="86.7" cy="50.83" r="2.5"/><rect class="cls-8" x="93.3" y="59" width="27.9" height="5" rx="1.02" ry="1.02"/><circle class="cls-8" cx="86.7" cy="61.5" r="2.5"/><path class="cls-9" d="M124.5 79.24h-98a6.47 6.47 0 0 1-4.42-1.75A6.52 6.52 0 0 0 28.5 83h94a6.52 6.52 0 0 0 6.42-5.51 6.47 6.47 0 0 1-4.42 1.75z"/><path d="M40.17 32.16c0 .28 0 .56.08.84a9.69 9.69 0 0 0 9.59 8.4H50v-9.24z" fill="#ddac7c"/><path d="M56.31 32.16H50v9.23A9.68 9.68 0 0 0 59.44 33c0-.28.07-.56.08-.84z" fill="#c69c6d"/><path class="cls-9" d="M56.31 32.16H40.17c0 .28 0 .56.08.84h19.19c0-.28.07-.56.08-.84z"/></svg>