<svg data-name="图层 1" xmlns="http://www.w3.org/2000/svg" viewBox="0 0 150 90"><path d="M29.08 8a6.89 6.89 0 0 0-6.87 6.87v62.26A6.89 6.89 0 0 0 29.08 84h46.68V8z" fill="#e6e6e6"/><path d="M122.43 8H75.76v76h46.68a6.89 6.89 0 0 0 6.87-6.87V14.87A6.89 6.89 0 0 0 122.43 8z" fill="#ccc"/><path d="M124.76 80.24h-98a6.47 6.47 0 0 1-4.42-1.75A6.52 6.52 0 0 0 28.76 84h94a6.52 6.52 0 0 0 6.42-5.51 6.47 6.47 0 0 1-4.42 1.75z" opacity=".14"/><g opacity=".7"><path d="M38.71 21.58h1.74v46.76h-1.74zm6.11 0h1.74v46.76h-1.74zm3.49 0h4.36v46.76h-4.36zm6.09 0h4.36v46.76h-4.37zm6.11 0h1.74v46.76H60.5zM64 21.58h1.74v46.76H64zm3.49 0h1.75v46.76h-1.76zm6.11 0h4.36v46.76h-4.37zm6.09 0H84v46.76h-4.33zm6.11 0h1.74v46.76h-1.76zM89.27 21.58H91v46.76h-1.73zm6.11 0h1.74v46.76h-1.74zm3.49 0h4.36v46.76h-4.37zm6.09 0h4.36v46.76H105zm6.11 0h1.74v46.76h-1.74z"/></g><path fill="#ed1c24" opacity=".56" d="M22.26 34h107v8h-107z"/><path fill="#ef9f50" opacity=".66" d="M22.26 36h107v4h-107z"/></svg>