<svg id="图层_1" data-name="图层 1" xmlns="http://www.w3.org/2000/svg" viewBox="0 0 150 90"><defs><style>.cls-5{fill:#534741;opacity:.74}.cls-7{fill:#333}.cls-10{fill:#d63636}.cls-11{fill:#ff9a3e}.cls-12{fill:#ad2a2a}.cls-13{fill:#cc7e2f}</style></defs><path d="M29 7.62a6.89 6.89 0 0 0-6.87 6.87v62.27A6.89 6.89 0 0 0 29 83.62h46.67v-76zm3.5 70.24a3.45 3.45 0 1 1 3.45-3.45 3.45 3.45 0 0 1-3.46 3.46zm0-56.42A3.45 3.45 0 1 1 35.94 18a3.45 3.45 0 0 1-3.45 3.44z" fill="#e6e6e6"/><path d="M122.35 7.62H75.67v76h46.68a6.89 6.89 0 0 0 6.87-6.87V14.49a6.89 6.89 0 0 0-6.87-6.87zM120 77.87a3.45 3.45 0 1 1 3.45-3.45 3.45 3.45 0 0 1-3.45 3.45zm0-56.42a3.45 3.45 0 1 1 3.46-3.45 3.45 3.45 0 0 1-3.46 3.44z" fill="#ccc"/><path d="M124.67 79.87h-98a6.47 6.47 0 0 1-4.42-1.75 6.52 6.52 0 0 0 6.42 5.51h94a6.52 6.52 0 0 0 6.42-5.51 6.47 6.47 0 0 1-4.42 1.75z" opacity=".14"/><g opacity=".76"><path class="cls-5" d="M22.17 24.89h53.62v40.73H22.17zM75.79 24.89h53.38v40.73H75.79z"/></g><g opacity=".69"><path class="cls-7" d="M58.64 68.12h.48v9h-.48zm1.68 0h.48v9h-.48zm1 0h1.2v9h-1.2zm1.68 0h1.2v9H63zm1.68 0h.48v9h-.48zM65.6 68.12h1.2v9h-1.2zm1.68 0h.48v9h-.48zm1.68 0h.48v9H69zm1 0h.48v9h-.48zm1 0h1.2v9h-1.2zM72.56 68.12h.48v9h-.48zM73.52 68.12h1.2v9h-1.2z"/><path d="M75.92 68.12h.48v9h-.48zM76.88 68.12h.48v9h-.48zM77.84 68.12h1.2v9h-1.2zM79.52 68.12h1.2v9h-1.2zm1.68 0h1.2v9h-1.2zm2.4 0h.48v9h-.48zm1 0h.4v9h-.48zm1 0h.4v9h-.48zM86.48 68.12H87v9h-.48zm1.68 0h.48v9h-.48zm1 0h1.2v9h-1.2zm1.68 0H92v9h-1.2zm1.68 0H93v9h-.48z"/></g><g opacity=".88"><path fill="none" d="M75.79 52.23v-1.28l-1.44 1.28h1.44z"/><path class="cls-10" d="M56.24 31h-8l-3.35 3.35v4.82h2.61v13.06h-2.29V60h13.32v-7.77h-2.29zm-.32 26.45H47.8v-2.7h2.35V36.6h-2.61v-1.13l2-2h4.09v21.28h2.29z"/><path class="cls-11" d="M53.63 33.52h-4.1l-1.99 1.95v1.13h2.61v18.15H47.8v2.7h8.12v-2.7h-2.29V33.52z"/><path class="cls-10" d="M64.53 57.45v-4.03l11.26-9.87v-6.82l-.48-.47h-5.6l-1.7 1.57v1.71h-3.48v-2.37l3.69-3.65h7.57V31h-8.73l-5.14 5.26v5.77h8.7v-3.25h3.65v2.74L61.92 52.23v7.74h13.87v-2.52H64.53z"/><path class="cls-12" d="M76.88 37.83l-1.09-1.1v6.82l1.09-.95v-4.77zM80.06 54.75v2.7h-4.27v2.52h6.81v-7.74h-6.81v2.52h4.27z"/><path class="cls-12" d="M75.79 31v2.52h1.04l3.53 3.65v6.21l-4.57 4.07v3.5l7.18-6.4v-8.29L77.96 31h-2.17z"/><path class="cls-10" d="M67.59 54.75h8.2v-2.52h-1.44l1.44-1.28v-3.5l-8.2 7.3z"/><path class="cls-11" d="M64.53 53.42v4.03h11.26v-2.7h-8.2l8.2-7.3v-3.9l-11.26 9.87z"/><path class="cls-13" d="M75.79 54.75h4.27v2.69h-4.27z"/><path class="cls-11" d="M64.53 37.17v2.37h3.48v-1.71l1.7-1.57h5.6l.48.47v-3.21h-7.57l-3.69 3.65z"/><path class="cls-13" d="M76.88 37.83v4.77l-1.09.95v3.9l4.57-4.07v-6.21l-3.53-3.65h-1.04v3.21l1.09 1.1z"/><path class="cls-12" d="M106.4 36.26L101.3 31H90.74l-4.51 4.69v5.26h8v-2.62h3.52v2.61H95.1v6.64h2.65v4.65h-3.52V48h-8.57v6.77L90.74 60h10.56l5.11-5.22v-9.4l-1.27-1.27 1.27-1.34zm-2.57 5.81L101.91 44l1.93 1.91v8l-3.56 3.61h-8.49l-3.52-3.61v-3.68h3.43v3l1.44 1.51h5.56l1.57-1.51v-6.86l-.87-1h-2.1v-2.6h2.1l.87-1v-3.94l-1.57-1.57h-5.55l-1.45 1.25v1.27h-2.86V36.6l2.95-3.08h8.48l3.56 3.65z"/><path class="cls-13" d="M91.79 33.52l-2.95 3.08v2.18h2.86v-1.27l1.45-1.25h5.55l1.57 1.57v3.94l-.87 1h-2.1v2.61h2.1l.87.99v6.88l-1.57 1.5h-5.55l-1.45-1.5v-3.02h-3.43v3.61l3.52 3.61h8.48l3.57-3.61v-7.95l-1.93-1.91 1.93-1.91v-4.9l-3.57-3.65h-8.48z"/></g></svg>