<svg id="图层_1" data-name="图层 1" xmlns="http://www.w3.org/2000/svg" viewBox="0 0 150 90"><defs><style>.cls-6{opacity:.2}</style></defs><path d="M34.26 6a6.17 6.17 0 0 0-6.15 6.15V68a6.17 6.17 0 0 0 6.15 6.15h41.83V6z" fill="#e6e6e6"/><path d="M117.92 6H76.09v68.11h41.83a6.17 6.17 0 0 0 6.15-6.11V12.15A6.17 6.17 0 0 0 117.92 6z" fill="#ccc"/><path d="M120.39 70.73H32.22a5.82 5.82 0 0 1-4-1.57 5.86 5.86 0 0 0 5.77 5h84.58a5.86 5.86 0 0 0 5.77-5 5.82 5.82 0 0 1-3.95 1.57z" opacity=".14"/><path d="M120.86 76l5.7.06a2.1 2.1 0 0 0 1.86-3.2L125.5 68l5-2.78a2.16 2.16 0 0 0 0-3.72l-5-2.78 2.93-4.93a2.13 2.13 0 0 0-1.86-3.2l-5.72.08L95.45 76l-.06 5.7a2.08 2.08 0 0 0 .61 1.55 3.53 3.53 0 0 0 .44.36 2.14 2.14 0 0 0 2.15 0l4.93-2.93 2.78 5a2.16 2.16 0 0 0 3.72 0l2.78-5 4.93 2.93a2.1 2.1 0 0 0 3.2-1.86z" fill="#c1272d"/><path d="M120.92 44.91a2.13 2.13 0 0 0-3.2-1.86L112.79 46 110 41a2.16 2.16 0 0 0-3.72 0l-2.78 5-4.91-3a2.1 2.1 0 0 0-3.2 1.86l.06 5.7-5.7-.06a2.1 2.1 0 0 0-1.86 3.2l2.93 4.93-5 2.78a2.16 2.16 0 0 0 0 3.72l5 2.78-2.93 4.93a2.09 2.09 0 0 0 0 2.15 2.16 2.16 0 0 0 1.88 1l5.7-.06 25.39-25.39z" fill="#d82e3a"/><rect class="cls-6" x="56.37" y="17.89" width="39.79" height="4.32" rx="1.02" ry="1.02"/><rect class="cls-6" x="40.04" y="32.67" width="72.43" height="4.32" rx="1.04" ry="1.04"/><rect class="cls-6" x="40.04" y="43.84" width="47.95" height="4.32" rx=".91" ry=".91"/><rect class="cls-6" x="40.04" y="55.01" width="43.24" height="4.32" rx=".92" ry=".92"/></svg>