<svg id="图层_1" data-name="图层 1" xmlns="http://www.w3.org/2000/svg" viewBox="0 0 150 90"><defs><style>.cls-6{opacity:.2}</style></defs><path d="M34.26 6a6.17 6.17 0 0 0-6.15 6.15V68a6.17 6.17 0 0 0 6.15 6.15h41.83V6z" fill="#e6e6e6"/><path d="M117.92 6H76.09v68.11h41.83a6.17 6.17 0 0 0 6.15-6.11V12.15A6.17 6.17 0 0 0 117.92 6z" fill="#ccc"/><path d="M120.39 70.73H32.22a5.82 5.82 0 0 1-4-1.57 5.86 5.86 0 0 0 5.77 5h84.58a5.86 5.86 0 0 0 5.77-5 5.82 5.82 0 0 1-3.95 1.57z" opacity=".14"/><path d="M126.12 63.31l4.08-4a2.1 2.1 0 0 0-.94-3.58l-5.56-1.42 1.57-5.5a2.16 2.16 0 0 0-2.63-2.63l-5.5 1.57-1.42-5.56a2.13 2.13 0 0 0-3.58-.95l-4 4.11v35.9l4 4.08a2.08 2.08 0 0 0 1.51.65 3.53 3.53 0 0 0 .56-.06 2.14 2.14 0 0 0 1.51-1.54l1.42-5.56 5.5 1.57a2.16 2.16 0 0 0 2.63-2.63l-1.57-5.5 5.56-1.42a2.1 2.1 0 0 0 .94-3.58z" fill="#c1272d"/><path d="M104.16 41.27a2.13 2.13 0 0 0-3.58.95l-1.42 5.56-5.5-1.57A2.16 2.16 0 0 0 91 48.83l1.57 5.5-5.56 1.42a2.1 2.1 0 0 0-.94 3.58l4.08 4-4.08 4a2.1 2.1 0 0 0 .94 3.58l5.56 1.42L91 77.79a2.16 2.16 0 0 0 2.63 2.63l5.5-1.57 1.42 5.56a2.09 2.09 0 0 0 1.51 1.54 2.16 2.16 0 0 0 2.07-.59l4-4.08V45.37z" fill="#d82e3a"/><rect class="cls-6" x="56.37" y="17.89" width="39.79" height="4.32" rx="1.02" ry="1.02"/><rect class="cls-6" x="40.04" y="32.67" width="72.43" height="4.32" rx="1.04" ry="1.04"/><rect class="cls-6" x="40.04" y="43.84" width="47.95" height="4.32" rx=".91" ry=".91"/><rect class="cls-6" x="40.04" y="55.01" width="43.24" height="4.32" rx=".92" ry=".92"/></svg>