<svg id="图层_1" data-name="图层 1" xmlns="http://www.w3.org/2000/svg" viewBox="0 0 150 90"><defs><style>.cls-1{fill:#e6e6e6}.cls-2{fill:#ccc}.cls-4{fill:#e53553}.cls-5{fill:#cc2e41}.cls-12{opacity:.8}.cls-17{fill:#ef9f50}.cls-18{fill:#e59033}</style></defs><path class="cls-1" d="M28.53 9a6.89 6.89 0 0 0-6.87 6.87v62.26A6.89 6.89 0 0 0 28.53 85h46.68V9z"/><path class="cls-2" d="M121.88 9H75.21v76h46.68a6.89 6.89 0 0 0 6.87-6.87V15.87A6.89 6.89 0 0 0 121.88 9z"/><path d="M124.21 81.24h-98a6.47 6.47 0 0 1-4.42-1.75A6.52 6.52 0 0 0 28.21 85h94a6.52 6.52 0 0 0 6.42-5.51 6.47 6.47 0 0 1-4.42 1.75z" opacity=".14"/><path d="M75.2 32c-8.2 0-14.87 8.57-15.44 19.42a33.3 33.3 0 0 0 30.9.22C90.16 40.68 83.43 32 75.2 32z"/><path class="cls-4" d="M48.49 81h26.72V59.29c-13.66 0-24.94 9.45-26.72 21.71z"/><path class="cls-5" d="M75.21 59.29V81h26.72c-1.78-12.26-13.06-21.71-26.72-21.71z"/><path d="M86.12 47.08a38.58 38.58 0 0 1-10.77 1.5h-.14v8.37a11 11 0 0 0 10.91-9.87z" fill="#c69c6d"/><path d="M64.29 47a11 11 0 0 0 10.92 10v-8.42A38.46 38.46 0 0 1 64.29 47z" fill="#ddac7c"/><path fill="#0071bc" d="M94 34v17.47L102 34h-8z"/><g opacity=".55"><path d="M59.08 76.88a.25.25 0 0 1-.13 0 44.29 44.29 0 0 0-4.73-2.48.26.26 0 1 1 .21-.47 44.65 44.65 0 0 1 4.78 2.51.26.26 0 0 1-.13.47zM91 76.88a.26.26 0 0 1-.13-.47 44.65 44.65 0 0 1 4.78-2.51.26.26 0 1 1 .21.47 44.29 44.29 0 0 0-4.73 2.48.25.25 0 0 1-.13.03z"/></g><path d="M93.16 15.5a4.41 4.41 0 0 0-4.41 4.41v15.18a4.41 4.41 0 0 0 4.41 4.41h.09l24-24z" fill="#00adea"/><path d="M117.34 15.5h-.09l-24 24h24.09a4.41 4.41 0 0 0 4.41-4.41V19.91a4.41 4.41 0 0 0-4.41-4.41z" fill="#0088d3"/><path class="cls-5" d="M61.83 45.85l-7.64-6.55-2.31 5.04 9.95 1.51z"/><g class="cls-12"><path class="cls-1" d="M110.64 26.84a5.65 5.65 0 0 0-3.35 5.16H113v-4.22a3.43 3.43 0 0 1-2.36-.94z"/><path class="cls-2" d="M115.33 26.88a3.43 3.43 0 0 1-2.32.9V32h5.6a5.65 5.65 0 0 0-3.28-5.12z"/><path class="cls-1" d="M112.95 19.39a3.44 3.44 0 0 0-3.44 3.44V23.29a3.43 3.43 0 0 0 3.4 3h.09v-6.9z"/><path class="cls-2" d="M116.23 21.51a3.44 3.44 0 0 0-3.17-2.12H113v6.87h.06a3.43 3.43 0 0 0 3.4-3v-.3-.16a3.43 3.43 0 0 0-.23-1.29z"/></g><g class="cls-12"><rect class="cls-2" x="92" y="35.02" width="27" height="1.44" rx=".72" ry=".72"/></g><g class="cls-12"><rect class="cls-2" x="92" y="20.17" width="13" height="1.44" rx=".72" ry=".72"/></g><g class="cls-12"><rect class="cls-2" x="92" y="25.12" width="13" height="1.44" rx=".72" ry=".72"/></g><g class="cls-12"><rect class="cls-2" x="92" y="30.07" width="13" height="1.44" rx=".72" ry=".72"/></g><path d="M72.79 70.22A2.25 2.25 0 0 1 75 68a2.24 2.24 0 0 1 1.59.66l9.19-9.19H61a2.12 2.12 0 0 0-2.11 2.11v17.3A2.12 2.12 0 0 0 61 81h3.29l9.19-9.19a2.24 2.24 0 0 1-.69-1.59z" fill="#7f7f7f"/><path d="M89.1 59.44h-3.29l-9.19 9.19A2.24 2.24 0 0 1 75 72.46a2.24 2.24 0 0 1-1.59-.66L64.26 81H89.1a2.12 2.12 0 0 0 2.11-2.11V61.55a2.12 2.12 0 0 0-2.11-2.11z" fill="#606060"/><path d="M75 72.46a2.24 2.24 0 0 0 1.59-3.83l-3.14 3.17a2.24 2.24 0 0 0 1.55.66z" fill="#e5e5e5"/><path d="M75 68a2.24 2.24 0 0 0-1.59 3.83l3.17-3.17A2.24 2.24 0 0 0 75 68z" fill="#fff"/><path class="cls-4" d="M34.92 39l-2-10.24 10.24-2 1.1 5.57 2-2a2.9 2.9 0 1 1 4.1-4.1l2.4-2.4a14.5 14.5 0 1 0-20.51 20.42l5.92-5.92z"/><path class="cls-5" d="M50.35 26.15a2.9 2.9 0 1 1-4.1 4.1l-2 2 .93 4.67-7 1.39-5.92 5.92a14.5 14.5 0 0 0 20.49-20.48zm1.77 13.18l-9.19 6.15a1.43 1.43 0 0 1-2-.39l-.34-.51a1.43 1.43 0 0 1 .39-2l9.19-6.15a1.43 1.43 0 0 1 2 .39l.34.51a1.43 1.43 0 0 1-.39 2z"/><path class="cls-17" d="M45.4 28.2a2.89 2.89 0 0 0 .85 2.05l4.1-4.1a2.9 2.9 0 0 0-5 2.05z"/><path class="cls-18" d="M48.3 31.1a2.9 2.9 0 0 0 2.05-5l-4.1 4.1a2.89 2.89 0 0 0 2.05.9zM45.16 36.94l-.93-4.67-6.06 6.06 6.99-1.39z"/><path class="cls-17" d="M32.88 28.74l2.04 10.24 3.25-.65 6.06-6.06-1.11-5.57-10.24 2.04z"/><rect class="cls-18" x="39.6" y="39.22" width="13.92" height="3.48" rx="1.43" ry="1.43" transform="rotate(-33.78 46.558 40.953)"/></svg>