<svg id="图层_1" data-name="图层 1" xmlns="http://www.w3.org/2000/svg" viewBox="0 0 150 90"><defs><style>.cls-5{fill:#e59033}.cls-11{fill:#cc832b}</style></defs><path d="M48.2 44.88a9.4 9.4 0 0 0-6.34 2.8L20.21 73.13c-1.31 1.54.92 2.81 5 2.81h50l-.09-31z" fill="#e6e6e6"/><path d="M101.89 45L75 44.94l.09 31h50c4 0 6.27-1.26 4.95-2.8l-21.8-25.35a9.53 9.53 0 0 0-6.35-2.79z" fill="#ccc"/><path d="M126.37 74.26H23.62a7.65 7.65 0 0 1-3.93-.81C19 74.88 20.92 76 24.41 76h101.18c3.48 0 5.44-1.11 4.71-2.55a7.67 7.67 0 0 1-3.93.81z" opacity=".14"/><path d="M99.85 14.19h-51.7A1.15 1.15 0 0 0 47 15.34v60.72h2.25V16.44h49.5v59.62H101V15.34a1.15 1.15 0 0 0-1.15-1.15z" fill="#f2a966"/><path class="cls-5" d="M49.25 16.44v59.62h2.87a.62.62 0 0 1-.62-.62V21.56a.62.62 0 0 1 .62-.62h43.76a.62.62 0 0 1 .62.62v53.88a.62.62 0 0 1-.62.62h2.87V16.44z"/><path fill="#996022" d="M51.5 18.69h45v4.5h-45z"/><rect x="51.5" y="20.94" width="45" height="55.13" rx=".62" ry=".62" opacity=".56"/><path fill="#e5303e" d="M80.75 82.81L51.5 75.85V19l29.25 6.96v56.85z"/><path fill="#c1272d" d="M51.5 19h3.38l27 5.8-1.13 1.16L51.5 19z"/><path fill="#a5232d" d="M81.88 24.8l-1.13 1.16v56.85l1.13-1.16V24.8z"/><ellipse class="cls-11" cx="75.81" cy="53.27" rx="1.57" ry="1.62"/><ellipse class="cls-5" cx="75.57" cy="53.35" rx="1.57" ry="1.62"/><path class="cls-11" d="M96.5 18.69h2.25v57.37H96.5z"/><path fill="#39b54a" d="M119 41.97h-10.12v-5.29L88.63 48.37H119v-6.4z"/><path fill="#31993b" d="M108.88 54.77H119v-6.4H88.63l20.25 11.7v-5.3z"/></svg>