<svg xmlns="http://www.w3.org/2000/svg" viewBox="0 0 150 90"><defs><style>.a{fill:#e6e6e6}.c{fill:#ccc}.d{fill:#39b54a}.e{fill:#31993b}.f{fill:#cc832b}.g{fill:#e59033}.h{opacity:.2}.o{fill:#fff}.p{fill:#dbdbdb}</style></defs><rect class="a" x="21.46" y="7.5" width="106.83" height="76" rx="6.96" ry="6.96"/><rect x="62.11" y="19" width="57" height="33" rx="3.32" ry="3.32" fill="#534741" opacity=".74"/><path class="a" d="M75.69 22.62A2.68 2.68 0 0 0 73 25.29v.2h-.18a1.71 1.71 0 0 0 .29 3.4h3.22v-6.2a2.73 2.73 0 0 0-.64-.07z"/><path class="c" d="M80.12 25.59H80v-.13a1.42 1.42 0 0 0-1.42-1.2h-.38l-.06-.14a2.7 2.7 0 0 0-1.79-1.43v6.23h3.23a1.71 1.71 0 0 0 .56-3.33z"/><path class="a" d="M82.41 22.72a3.83 3.83 0 0 0-3.84 3.8v.29h-.25a2.44 2.44 0 0 0 .41 4.84h4.58v-8.82a4 4 0 0 0-.9-.11z"/><path class="c" d="M88.72 27l-.17-.06v-.18a2.05 2.05 0 0 0-2-1.71h-.54l-.1-.2a3.79 3.79 0 0 0-2.54-2v8.86h4.61a2.43 2.43 0 0 0 .74-4.71z"/><path class="d" d="M90.61 25.34l-9.15 12.13h3.47l-7.01 8.82h12.69V25.34z"/><path class="e" d="M96.3 37.47h3.47l-9.16-12.13v20.95h12.7l-7.01-8.82z"/><path class="f" d="M90.61 46.29h3.52V52h-3.52z"/><path class="g" d="M87.09 46.29h3.52V52h-3.52z"/><path class="h" d="M87.09 46.29h7.04v1.27h-7.04z"/><path class="d" d="M71.66 40.93l-3.8 5.03h1.44l-2.91 3.67h5.27v-8.7z"/><path class="e" d="M74.03 45.96h1.44l-3.81-5.03v8.7h5.28l-2.91-3.67z"/><path class="f" d="M71.66 49.63h1.46V52h-1.46z"/><path class="g" d="M70.2 49.63h1.46V52H70.2z"/><path class="h" d="M70.2 49.63h2.93v.53H70.2z"/><path class="d" d="M109.18 32.33l-6.75 8.94h2.55l-5.17 6.51h9.37V32.33z"/><path class="e" d="M113.38 41.27h2.56l-6.76-8.94v15.45h9.37l-5.17-6.51z"/><path class="f" d="M109.18 47.78h2.6V52h-2.6z"/><path class="g" d="M106.58 47.78h2.6V52h-2.6z"/><path class="h" d="M106.58 47.78h5.2v.94h-5.2z"/><path d="M49.51 24.38l-2.13 2.14-6 6L34.91 39a10.32 10.32 0 0 0 14.6-14.6z" fill="#0071bc"/><path d="M49.51 24.38A10.32 10.32 0 0 0 34.91 39l6.46-6.46 6-6 2.13-2.14z" fill="#0088d3"/><path d="M123.88 79.74h-98A6.49 6.49 0 0 1 21.46 78a6.53 6.53 0 0 0 6.42 5.51h94a6.51 6.51 0 0 0 6.41-5.51 6.46 6.46 0 0 1-4.41 1.74z" opacity=".14"/><path d="M80.62 69.12V57.31h3.66v11.2l4.13-4.13-2.68-7.07h3.82L91 61.83l3.58-3.58.29-.94h.65l2.8-2.8H63.57a2.5 2.5 0 0 0-2.5 2.5v12.42a2.5 2.5 0 0 0 2.5 2.5h17.29l2.81-2.81zm-1.8 0h-9.35V57.31h3.65v8.9h5.7z" fill="#e53553"/><path fill="#c1272d" d="M94.54 58.25l-3.58 3.58 1.25 3.98 2.33-7.56z"/><path d="M115.57 54.51H98.28l-2.8 2.8h3.06l-4.39 11.81h-4l-1.78-4.74-4.13 4.13v.61h-.61l-2.81 2.81h34.71a2.5 2.5 0 0 0 2.5-2.5V57a2.5 2.5 0 0 0-2.46-2.49zm-5.89 14.61h-10V57.31h9.78v2.52h-6.12v1.88h5.68v2.41h-5.68v2.33h6.3z" fill="#cc2e41"/><path class="o" d="M73.12 57.31h-3.65v11.81h9.34v-2.91h-5.69v-8.9zM80.62 57.31v11.81h3.05l.61-.61v-11.2h-3.66z"/><path class="o" d="M84.28 69.12v-.61l-.61.61h.61zM94.54 58.25l.94-.94h-.65l-.29.94zM89.55 57.31h-3.82l2.68 7.08 2.55-2.56-1.41-4.52z"/><path class="p" d="M92.21 65.81l-1.25-3.98-2.55 2.56 1.78 4.73h3.96l4.38-11.81h-3.05l-.94.94-2.33 7.56zM103.38 64.12h5.68v-2.41h-5.68v-1.88h6.12v-2.52h-9.78v11.81h9.96v-2.67h-6.3v-2.33z"/><rect class="h" x="30.76" y="47" width="22.9" height="4" rx="1.02" ry="1.02"/></svg>