<svg id="图层_1" data-name="图层 1" xmlns="http://www.w3.org/2000/svg" viewBox="0 0 150 90"><defs><style>.cls-3{fill:#e6e6e6}.cls-5{fill:#ccc}.cls-11{fill:#f2f2f2}.cls-17{fill:#333}</style></defs><rect x="39.81" y="17.26" width="90.62" height="62.65" rx="12" ry="12" fill="#968b84"/><path d="M118.72 23.41v-.06h-7.54L98.35 10.52a1.68 1.68 0 0 0-1.18-.52h-3.64a1.7 1.7 0 0 0-1.63 1.4 6.66 6.66 0 0 1-13.05 0 1.69 1.69 0 0 0-1.64-1.4h-3.5a1.65 1.65 0 0 0-1.15.52 1.73 1.73 0 0 0-.46 1.21v25A3.24 3.24 0 0 0 75.38 40H122a3.32 3.32 0 0 0 3.38-3.27v-6.66a6.9 6.9 0 0 0-6.66-6.66z" fill="#d82e3a"/><path class="cls-3" d="M122 33H75.38a1.67 1.67 0 0 0 0 3.33H122a1.67 1.67 0 0 0 0-3.33zM95.85 22.93a1.66 1.66 0 0 0 2.35 0l5.07-5.07a1.66 1.66 0 1 0-2.35-2.35l-5.07 5.07a1.67 1.67 0 0 0 0 2.35zM102.51 23.9a1.66 1.66 0 0 0 2.35 2.35l3.4-3.4a1.66 1.66 0 1 0-2.35-2.35z"/><path d="M112.5 33.72v-.06H105L92.13 20.82a1.68 1.68 0 0 0-1.13-.48h-3.69a1.7 1.7 0 0 0-1.63 1.36 6.66 6.66 0 0 1-13.05 0A1.69 1.69 0 0 0 71 20.34h-3.5a1.65 1.65 0 0 0-1.15.52 1.73 1.73 0 0 0-.46 1.21V47a3.24 3.24 0 0 0 3.28 3.27h46.62a3.32 3.32 0 0 0 3.37-3.27v-6.62a6.9 6.9 0 0 0-6.66-6.66z" fill="#c1272d"/><path class="cls-5" d="M115.79 43.34H69.16a1.67 1.67 0 0 0 0 3.33h46.62a1.67 1.67 0 0 0 0-3.33zM89.63 33.23a1.66 1.66 0 0 0 2.35 0l5.07-5.07a1.66 1.66 0 1 0-2.35-2.35l-5.07 5.07a1.67 1.67 0 0 0 0 2.35zM96.29 34.2a1.66 1.66 0 0 0 2.35 2.35l3.4-3.4a1.66 1.66 0 1 0-2.35-2.35z"/><path class="cls-3" d="M47.33 8.36H30.08a3.35 3.35 0 0 0-3.34 3.34V79a3.35 3.35 0 0 0 3.34 3.34h17.25A3.35 3.35 0 0 0 50.66 79V11.69a3.35 3.35 0 0 0-3.33-3.33z"/><path class="cls-5" d="M26.74 15.15h23.92v59.8H26.74z"/><path d="M61.5 44.89v1.69a1 1 0 0 0 .29 0h.91a1 1 0 0 0 1-1v-.7z" fill="#606060"/><path class="cls-5" d="M63.73 43.94a1 1 0 0 0-1-1h-.91a1 1 0 0 0-.29 0v1.93h2.23z"/><path class="cls-3" d="M24.67 30.91a20.11 20.11 0 0 1 28.45 0l2.11-2.11a23.38 23.38 0 0 0-33.06 33.05l2.5-2.5a20.11 20.11 0 0 1 0-28.44z"/><path d="M55.23 28.8l-2.11 2.11a20.11 20.11 0 0 1-28.45 28.45l-2.5 2.5A23.38 23.38 0 0 0 55.23 28.8z" fill="#afafaf"/><path d="M53.12 59.36a20.11 20.11 0 0 0 0-28.45L24.67 59.36a20.11 20.11 0 0 0 28.45 0z" fill="#1a1a1a"/><path d="M24.67 30.91a20.11 20.11 0 0 0 0 28.45l28.45-28.45a20.11 20.11 0 0 0-28.45 0z" fill="#4d4d4d"/><g opacity=".81"><path class="cls-11" d="M25 44.93v-3.28l.47-1.25a1 1 0 0 1 .78.78v4.38l-.31.31zm1 1.25l.31.31v4.38a1 1 0 0 1-.78.78L25 50.4v-3.28zM27.51 50.56v-4.07l.31-.31.94.94v3zm5.94 1.09h-5.16a1 1 0 0 1-.78-.78l1.25-.47H33zm-.94-10h-3.73l-1.25-.47a1 1 0 0 1 .78-.78H33zm.31 3.75l.63.63-.63.62h-4.06l-.62-.65.63-.63zm0-.47v-3.28l.47-1.25a1 1 0 0 1 .78.78v4.38l-.31.31zM37.06 44.15h-1.25V42.9h1.25zm0 5h-1.25V47.9h1.25zM38.78 50.56v-4.07l.31-.31.94.94v3zm5.94 1.09h-5.16a1 1 0 0 1-.78-.78L40 50.4h4.22zm-.94-10H40l-1.25-.47a1 1 0 0 1 .78-.78h4.67zm.31 3.75l.63.63-.63.62H40l-.59-.65.59-.6zm0-.47v-3.28l.47-1.25a1 1 0 0 1 .78.78v4.38l-.31.31zM47.85 42v3l-.94.94-.31-.31v-4.14zm4.22 9.69h-4.69a1 1 0 0 1-.78-.78l1.25-.47h3.75zm-.47-10h-3.74l-1.25-.47a1 1 0 0 1 .78-.78h4.67zm.31 3.75l.63.63-.63.62h-4.06l-.63-.69.63-.63zm0-.47v-3.32l.47-1.25a1 1 0 0 1 .78.78v4.38l-.31.31zm.94 1.25l.31.31v4.38a1 1 0 0 1-.78.78l-.47-1.25v-3.32z"/></g><path d="M90.33 71.33H59.6a2.07 2.07 0 0 1 0-4.14h9.57a21.69 21.69 0 0 1 5.24-11.3 91 91 0 0 0 15.92 4.54z" fill="#0071bc"/><path d="M90.33 60.43A91.1 91.1 0 0 0 107.25 62c1.18 0 2.34 0 3.5-.09a21.68 21.68 0 0 1 1.68 8.38c0 .35 0 .69-.05 1H90.33z" fill="#0088d3"/><path d="M128.46 44.49v-.61a.48.48 0 0 0-.48-.48h-.61v1.09z" fill="#374546"/><path d="M127.37 43.39h-.88a.48.48 0 0 0-.48.48v.61h1.37z" fill="#516666"/><path d="M126 45h-1.65a1.57 1.57 0 0 0-1.57 1.57v1.78a1.56 1.56 0 0 0 .2.77h4.39V45z" fill="#565758"/><path class="cls-17" d="M130.5 45h-3.13v4.11h4.5a1.56 1.56 0 0 0 .2-.77V46.6a1.57 1.57 0 0 0-1.57-1.6z"/><path d="M123.45 49.66h-1.3a1.89 1.89 0 0 0-1.89 1.89v23a1.89 1.89 0 0 0 1.89 1.89h5.23V49.66z" fill="#aae1f7"/><path d="M132.6 49.66h-5.23v26.79h5.23a1.89 1.89 0 0 0 1.89-1.89v-23a1.89 1.89 0 0 0-1.89-1.9z" fill="#87cfe4"/><path class="cls-17" d="M132.6 49.14h-.13a2.1 2.1 0 0 0 .15-.77V46.6a2.12 2.12 0 0 0-2.11-2.11H129v-.61a1 1 0 0 0-1-1h-1.49a1 1 0 0 0-1 1v.61h-1.11a2.12 2.12 0 0 0-2.11 2.11v1.78a2.1 2.1 0 0 0 .15.77h-.24a2.4 2.4 0 0 0-2.4 2.4v23a2.4 2.4 0 0 0 2.4 2.4h10.4a2.4 2.4 0 0 0 2.4-2.4v-23a2.4 2.4 0 0 0-2.4-2.41zm1.89 25.42a1.89 1.89 0 0 1-1.89 1.89h-10.46a1.89 1.89 0 0 1-1.89-1.89v-23a1.89 1.89 0 0 1 1.89-1.89h10.46a1.89 1.89 0 0 1 1.89 1.89zm-11.7-26.18V46.6a1.57 1.57 0 0 1 1.56-1.6h6.15a1.57 1.57 0 0 1 1.57 1.57v1.78a1.56 1.56 0 0 1-.2.77H123a1.56 1.56 0 0 1-.22-.74zm3.22-4.5a.48.48 0 0 1 .48-.48H128a.48.48 0 0 1 .48.48v.61H126z"/></svg>