<svg id="图层_1" data-name="图层 1" xmlns="http://www.w3.org/2000/svg" viewBox="0 0 150 90"><defs><style>.cls-1{fill:#e6e6e6}.cls-2{fill:#ccc}.cls-3{opacity:.14}.cls-9{fill:#0071bc}.cls-10{fill:#0088d3}</style></defs><path class="cls-1" d="M27.76 85.63zM26 82h48.65V31.82H21.43V79a6.75 6.75 0 0 0 .37 2.2 6.38 6.38 0 0 1-.22-.87A6.45 6.45 0 0 0 26 82z"/><path class="cls-2" d="M74.65 82h49.15a6.4 6.4 0 0 0 3.84-1.3 6.76 6.76 0 0 0 .24-1.77V31.82H74.65z"/><path class="cls-3" d="M28.09 85.66h.27-.6c.11-.03.24 0 .33 0zM21.92 81a6.46 6.46 0 0 0 5.67 4.56A6.84 6.84 0 0 1 21.92 81zM120.87 85.66h.75a6.49 6.49 0 0 0 6.38-5.48 6.62 6.62 0 0 1-.57.44 6.83 6.83 0 0 1-6.56 5.04zM21.43 27.3h106.45v8.11H21.43z"/><path class="cls-1" d="M26.1 81.92a6.43 6.43 0 0 1-4.39-1.74 6.36 6.36 0 0 0 .22.87 6.84 6.84 0 0 0 5.67 4.56h47.01v-3.69z"/><path class="cls-2" d="M127.43 80.62a6.38 6.38 0 0 1-3.82 1.3h-49v3.74h46.26a6.83 6.83 0 0 0 6.56-5.04z"/><path class="cls-3" d="M25.85 81.91a6.48 6.48 0 0 1-4.42-1.75 6.4 6.4 0 0 0 .22.88 6.88 6.88 0 0 0 5.71 4.6h47.33v-3.73zM127.88 80.6a6.42 6.42 0 0 1-3.88 1.31H74.69v3.76h46.57a6.87 6.87 0 0 0 6.62-5.07z"/><path d="M74.65 10.23h-46.4a6.85 6.85 0 0 0-6.83 6.83v14.76h53.23z" fill="#d82e3a"/><path d="M127.88 31.82V17.06a6.85 6.85 0 0 0-6.83-6.83h-46.4v21.59z" fill="#c1272d"/><rect x="34.5" y="3.84" width="11.83" height="17.58" rx="3.46" ry="3.46" fill="#ef9f50"/><rect x="103.1" y="3.84" width="11.83" height="17.58" rx="3.46" ry="3.46" fill="#e59033"/><path d="M57.79 71.14a6.17 6.17 0 0 1 0-12.35h34.42a8.79 8.79 0 1 0 0-17.58H49v2.62h43.21a6.17 6.17 0 0 1 0 12.34H57.33a8.79 8.79 0 0 0 .46 17.56H101v-2.59H57.79z" fill="#4d4d4d" opacity=".2"/><path class="cls-9" d="M48.71 39.34l-1 1-3 3-3.18 3.18a5.07 5.07 0 0 0 7.18-7.18z"/><path class="cls-10" d="M48.71 39.34a5.07 5.07 0 0 0-7.18 7.18l3.18-3.18 3-3 1-1z"/><path class="cls-9" d="M103.71 46.34l-1 1-3 3-3.18 3.18a5.07 5.07 0 0 0 7.18-7.18z"/><path class="cls-10" d="M103.71 46.34a5.09 5.09 0 0 0-8.18 1.39 5 5 0 0 0 1 5.79l3.18-3.18 3-3 1-1z"/><path class="cls-9" d="M52.71 61.34l-1 1-3 3-3.18 3.18a5.07 5.07 0 0 0 7.18-7.18z"/><path class="cls-10" d="M52.71 61.34a5.07 5.07 0 1 0-7.18 7.18l3.18-3.18 3-3 1-1z"/><path class="cls-9" d="M108.71 68.34l-1 1-3 3-3.18 3.18a5.07 5.07 0 0 0 7.18-7.18z"/><path class="cls-10" d="M108.71 68.34a5.07 5.07 0 1 0-7.18 7.18l3.18-3.18 3-3 1-1z"/></svg>