<svg xmlns="http://www.w3.org/2000/svg" viewBox="0 0 150 90"><defs><style>.d{fill:none}.e{fill:#666}</style></defs><path d="M116.92 11H110L41.89 79.11h75a6.17 6.17 0 0 0 6.18-6.11V17.15a6.17 6.17 0 0 0-6.15-6.15z" fill="#ccc"/><path d="M75.09 11H33.26a6.17 6.17 0 0 0-6.16 6.15V73a6.18 6.18 0 0 0 6.16 6.16h8.63L110 11z" fill="#e6e6e6"/><path d="M119.39 75.73H31.22a5.8 5.8 0 0 1-4-1.58 5.87 5.87 0 0 0 5.78 5h84.57a5.87 5.87 0 0 0 5.78-5 5.8 5.8 0 0 1-3.96 1.58z" opacity=".14"/><path class="d" d="M54.57 68.95v-2.52l-.84.84v1.68h.84zm12.31-5.31v-7.85h-1.67l-.69.69v7.16h2.36zM54 56.71h1.72a.33.33 0 0 0 .35-.35v-5.21H54z"/><path class="d" d="M64.52 55.79v.69l.69-.69h-.69z"/><path class="e" d="M52.85 42.43h10.27a.75.75 0 0 0 .42-.14c.14-.07.14-.21.14-.42s-.07-.36-.14-.43a3 3 0 0 0-.35-.07l-.43-.07a2.42 2.42 0 0 1-.84-.21 1.91 1.91 0 0 1-.84-.63 2.07 2.07 0 0 1-.43-.91 7 7 0 0 1-.14-1.24V22.45a5.4 5.4 0 0 1 .14-1.05 2.63 2.63 0 0 1 .43-.92 3.32 3.32 0 0 1 .7-.7 2.16 2.16 0 0 1 .84-.35l.43-.07a.53.53 0 0 0 .35-.14c.07-.14.14-.21.14-.35a.6.6 0 0 0-.14-.43 1 1 0 0 0-.4-.14H53a1 1 0 0 0-.42.14.49.49 0 0 0-.22.43.59.59 0 0 0 .14.42c.15.07.22.14.36.14l.35.07a2.9 2.9 0 0 1 .84.28 2.09 2.09 0 0 1 .85.7 2.77 2.77 0 0 1 .42 1.13 7.25 7.25 0 0 1 .07 1.12v15.44a4.73 4.73 0 0 1-.21 1.3 2.77 2.77 0 0 1-.57 1.06 2 2 0 0 1-.77.56 1.56 1.56 0 0 1-.7.21l-.35.07a.6.6 0 0 0-.29.14c-.14.08-.21.15-.21.29s0 .42.14.49a.62.62 0 0 0 .42.14z"/><path d="M81.75 39.25c1.87 1.41 4.09 3 6.76 4.87 9-6.51 13.08-9.08 15.09-14.91 1.37-4.34.21-7.73-2-9.82z" fill="#cc2e41"/><path d="M88.51 21.71c-4.22-9.07-18.78-4.22-15.09 7.5 1.42 4.14 3.84 6.65 8.33 10l19.86-19.86c-3.74-3.51-10.49-3.35-13.1 2.36z" fill="#e53553"/><path d="M98.21 68.17c.07.5-.14.71-.63.64h-5.2V47.46h-4.22v21.31h-6V49.43h-4.27v22.79h21.2c2.29.14 3.34-.92 3.2-3.27V49.46h-4.08zM71.28 51.43v11.85c0 .64-.36.92-1.06.85v3.06h1c2.36 0 3.49-1.3 3.42-3.94V48.48h-2.1l-3 3z"/><path class="e" d="M53.73 60.86H50.6v9.54l3.13-3.13v-6.41zm7.42-1.01l3.37-3.37v-.69h.69l2.71-2.7h-6.77v6.76zM67 47.25h-3.85c-.84 2.07-1.58 3-2.14 2.71v2.32h.84c1.48.07 2.5-.21 2.92-.85h4.8l3-3h-6.32z"/><path d="M54.57 68.95h-.84v-1.68L50.6 70.4v1.26h9.49v-2.71h-2v-3.52h1.79v-2.92h-1.39l-3.92 3.92v2.52z"/><path class="e" d="M58.09 59.87a1.52 1.52 0 0 0 1.72-1.72V47.81h-8.9v12.06h3.66v6.56l3.92-3.92h-.4zm-2-3.51a.33.33 0 0 1-.35.35H54v-5.56h2.07z"/><path d="M66.88 55.79v7.85h-2.36v-7.16l-3.37 3.37V69c0 1.79.84 2.71 2.56 2.71h10.8V69h-9.42a.74.74 0 0 1-.64-.64v-1.63H67c2.14.14 3.13-.91 3-3.2V53.09h-2.1l-2.7 2.7z"/></svg>