<svg id="图层_1" data-name="图层 1" xmlns="http://www.w3.org/2000/svg" viewBox="0 0 150 90"><defs><style>.cls-3{fill:#e59033}.cls-4{fill:#c1772d}.cls-6{opacity:.52}.cls-7{fill:#e2e2e2}.cls-15{fill:#992029}.cls-16{fill:#c1272d}</style></defs><path d="M126 65.5c0 1.62-.93 2.45-3.14 2.95l-31.44 7.38L60 67l-28.3 7.37a3.26 3.26 0 0 1-3.14-2.95v-53.1a3.06 3.06 0 0 1 3.14-2.95L46 11.64 60 8l31.44 8.85 31.44-7.37a3.06 3.06 0 0 1 3.12 2.94z" fill="#7acc7a"/><path d="M91.87 75.83L60.31 67V8l31.56 8.85V75.83z" fill="#6a996a"/><path class="cls-3" d="M40.61 58.77h-.14a1.5 1.5 0 0 1-1.36-1.63l.36-3.94a1.5 1.5 0 1 1 3 .28l-.36 3.94a1.5 1.5 0 0 1-1.5 1.35z"/><path class="cls-4" d="M87.82 53.2q-1 0-2.14-.06a1.5 1.5 0 1 1 .17-3 32 32 0 0 0 3.77 0 1.5 1.5 0 1 1 .18 3q-.96.06-1.98.06zM80 51.85a1.5 1.5 0 0 1-.56-.11 13.86 13.86 0 0 1-3.78-2.26 1.5 1.5 0 1 1 1.94-2.29 10.81 10.81 0 0 0 3 1.77 1.5 1.5 0 0 1-.6 2.89z"/><path class="cls-3" d="M97.46 51.79a1.5 1.5 0 0 1-.54-2.9 12.3 12.3 0 0 0 3.08-1.68 1.5 1.5 0 0 1 1.82 2.38 15.23 15.23 0 0 1-3.82 2.1 1.48 1.48 0 0 1-.54.1zM41.83 47.81h-.14a1.5 1.5 0 0 1-.95-1.9L42 42.12a1.5 1.5 0 1 1 2.84 1l-1.25 3.75a1.5 1.5 0 0 1-1.76.94z"/><path class="cls-4" d="M72.91 44.12a1.5 1.5 0 0 1-1.43-1 19.44 19.44 0 0 1-.85-4.19 1.5 1.5 0 1 1 3-.28 16.44 16.44 0 0 0 .72 3.54 1.5 1.5 0 0 1-1 1.89 1.52 1.52 0 0 1-.44.04z"/><path class="cls-3" d="M104.22 44.09H104a1.5 1.5 0 0 1-1.31-1.67l.48-3.93a1.5 1.5 0 0 1 3 .37l-.48 3.93a1.5 1.5 0 0 1-1.47 1.3zM44.56 38.23l-.12-.1a1.5 1.5 0 0 1 0-2.12c1-1.08 1.88-1.93 2.4-2.44l.44-.42a1.5 1.5 0 0 1 2 2.2l-.37.36c-.51.5-1.33 1.34-2.36 2.4a1.5 1.5 0 0 1-1.99.12z"/><path class="cls-4" d="M69.21 35.52a1.5 1.5 0 0 1-2.07.46l-.24-.15a14.13 14.13 0 0 0-3-1.4 1.5 1.5 0 0 1 .93-2.85 17.19 17.19 0 0 1 3.61 1.69l.29.18a1.5 1.5 0 0 1 .48 2.07z"/><path class="cls-3" d="M105.54 33.29h-.18a1.5 1.5 0 0 1-1.36-1.68l.48-3.93a1.5 1.5 0 0 1 3 .36L107 32a1.5 1.5 0 0 1-1.46 1.29zM52.91 31.14a1.49 1.49 0 0 1 1-.27 10.35 10.35 0 0 0 3.41-.35 1.5 1.5 0 0 1 .76 2.9 13.34 13.34 0 0 1-4.4.44 1.5 1.5 0 0 1-.75-2.73zM106.87 22.44h-.18a1.5 1.5 0 0 1-1.31-1.67l.24-2a1.5 1.5 0 0 1 3 .36l-.24 2a1.5 1.5 0 0 1-1.51 1.31z"/><path d="M122.86 66.63L91.42 74 60 65.17 31.68 72.5a3 3 0 0 1-3.14-2.93v1.86a3.26 3.26 0 0 0 3.14 2.93L60 67l31.44 8.8 31.44-7.34c2.22-.49 3.14-1.32 3.14-2.93V63.7c-.02 1.61-.95 2.44-3.16 2.93z" opacity=".14"/><g class="cls-6"><path class="cls-7" d="M45.89 66.41l14.16-3.65v-3.93L57 57l-6.34 3.16L44 60l-4.39 3.01L37 59l-4 6.2v4.54l12.89-3.33z"/></g><path fill="#666" d="M74.01 67.44l-13.94-4.43.22-3.93 6.41-.94 2.89 2.8L76 55l4.46 9.39L84 63l2.94 3.95-.25 4.53-12.68-4.04z"/><g class="cls-6"><path class="cls-7" d="M109.89 67.41l14.16-3.65v-3.93l-6.34-1.3-3.05 2.63-6.74-1.4-4.31 4.25-3.4-.96L97 66.2v4.54l12.89-3.33z"/></g><path d="M88.93 67.71a.34.34 0 0 1-.35-.26.28.28 0 0 1 .22-.39l18.13-8.38a.3.3 0 0 1 .39 0l3.2-3.2a15.46 15.46 0 0 0-21.86 21.9l9.68-9.68z" fill="#e53553"/><path d="M110.52 77.38a15.46 15.46 0 0 0 0-21.86l-3.2 3.2a.3.3 0 0 1 0 .39L99 77.26a.31.31 0 0 1-.3.22h-.09a.34.34 0 0 1-.26-.35v-9.42l-9.68 9.68a15.46 15.46 0 0 0 21.85-.01z" fill="#cc2e41"/><path d="M98.35 67.71v9.43a.34.34 0 0 0 .26.35h.09a.31.31 0 0 0 .3-.22l8.37-18.15a.3.3 0 0 0 0-.39l-9 9z" fill="#cc832b"/><path class="cls-3" d="M106.94 58.67L88.8 67.05a.28.28 0 0 0-.22.39.34.34 0 0 0 .35.26h9.41l9-9a.3.3 0 0 0-.4-.03z"/><path d="M37 14c3 4-1 7.76 3 9 3.06 1 7.39-1.8 7 0-1.2 5.55 9.47 5.39 13 4 .64-.25 8 5 13 2s1-8 1-10 3-1 4-2 0-4 0-4L60 8l-23 6z" fill="#29abe2" opacity=".65"/><path d="M105.59 19.59a2 2 0 0 1 2.83 0l.65-.65a2.92 2.92 0 1 0-4.12 4.12l.65-.65a2 2 0 0 1-.01-2.82z" fill="#fff"/><path d="M109.06 23.06a2.92 2.92 0 0 0 0-4.12l-.65.65a2 2 0 1 1-2.83 2.83l-.65.65a2.92 2.92 0 0 0 4.13-.01z" fill="#ccc"/><path class="cls-15" d="M109.89 18.11l-.41.41-.41.41a2.92 2.92 0 1 1-4.12 4.12l-.41.41-.41.41a4.08 4.08 0 0 0 5.77-5.77z"/><path class="cls-16" d="M104.11 18.11a4.09 4.09 0 0 0 0 5.77l.41-.41.41-.41a2.92 2.92 0 1 1 4.12-4.12l.41-.41.41-.41a4.09 4.09 0 0 0-5.76-.01z"/><path class="cls-16" d="M105.59 19.59a2 2 0 0 0 0 2.83l2.83-2.83a2 2 0 0 0-2.83 0z"/><path class="cls-15" d="M108.41 22.41a2 2 0 0 0 0-2.83l-2.83 2.83a2 2 0 0 0 2.83 0z"/></svg>