<svg id="图层_1" data-name="图层 1" xmlns="http://www.w3.org/2000/svg" viewBox="0 0 150 90"><defs><style>.cls-4{opacity:.22}.cls-5{fill:none}.cls-8{fill:#39b54a}.cls-9{fill:#31993b}.cls-10{fill:#cc832b}.cls-11{fill:#e59033}</style></defs><path d="M50.7 49.88a9.4 9.4 0 0 0-6.34 2.8L22.71 78.13c-1.31 1.54.92 2.81 5 2.81h50l-.09-31z" fill="#e6e6e6"/><path d="M104.39 50l-26.84-.05.09 31h50c4 0 6.27-1.26 4.95-2.8l-21.8-25.35a9.53 9.53 0 0 0-6.4-2.8z" fill="#ccc"/><path d="M128.87 79.26H26.12a7.65 7.65 0 0 1-3.93-.81c-.72 1.43 1.23 2.55 4.72 2.55h101.18c3.48 0 5.44-1.11 4.71-2.55a7.67 7.67 0 0 1-3.93.81z" opacity=".14"/><path d="M77 74.93l2.01-.01.95-2.29-11.54 2.31 2.01-.01-9.49 1.68h5.94l-3.1 1.08H68.67l2.78-1.09h5.94L77 74.93zM109.81 68.51l1.71-.01.81-1.95-9.83 1.97 1.7-.01-8.08 1.43h5.06l-2.64.92h4.16l2.38-.92h5.06l-.33-1.43z"/><path class="cls-5" d="M70.38 28.53A7.45 7.45 0 0 0 77.83 36h.23V21.09h-.23a7.45 7.45 0 0 0-7.45 7.44zM85.28 28.53a7.44 7.44 0 0 0-7.22-7.44V36a7.44 7.44 0 0 0 7.22-7.47z"/><path d="M96 28.53a18.16 18.16 0 0 0-17.94-18.16v10.72a7.44 7.44 0 0 1 0 14.87V64.3l14-24.51A18.09 18.09 0 0 0 96 28.53z" fill="#c1272d"/><path d="M77.83 36a7.45 7.45 0 1 1 0-14.9h.23V10.37h-.23a18.16 18.16 0 0 0-14.25 29.42l14.25 24.92.23-.4V36z" fill="#e5303e"/><path class="cls-8" d="M66.22 59.03l-6.35 8.48h2.41l-4.86 6.18h8.8V59.03z"/><path class="cls-9" d="M70.17 67.51h2.4l-6.35-8.48v14.66h8.81l-4.86-6.18z"/><path class="cls-10" d="M66.22 73.69h2.44v4h-2.44z"/><path class="cls-11" d="M63.78 73.69h2.44v4h-2.44z"/><path d="M64.58 54.08h.96l.46-1.1-5.55 1.11.97-.01-4.56.81h2.85l-1.49.52H60.57l1.34-.53h2.85l-.18-.8zM112.64 61.71h1.3l.62-1.49-7.51 1.5h1.31l-6.18 1.09h3.87l-2.02.7h3.18l1.81-.71h3.87l-.25-1.09z"/><path class="cls-8" d="M59.4 46.44l-3.06 4.08h1.16l-2.34 2.96h4.24v-7.04z"/><path class="cls-9" d="M61.29 50.52h1.16l-3.05-4.08v7.04h4.23l-2.34-2.96z"/><path class="cls-10" d="M59.4 53.49h1.17v1.92H59.4z"/><path class="cls-11" d="M58.22 53.49h1.17v1.92h-1.17z"/><path class="cls-8" d="M105.62 51.36l-4.13 5.53h1.56l-3.16 4.02H105.62v-9.55z"/><path class="cls-9" d="M108.19 56.89h1.56l-4.13-5.53v9.55H111.35l-3.16-4.02z"/><path class="cls-10" d="M105.62 60.91h1.59v2.6h-1.59z"/><path class="cls-11" d="M104.03 60.91h1.59v2.6h-1.59z"/><path class="cls-8" d="M100.6 55.09l-5.43 7.25h2.06l-4.15 5.28h7.52V55.09z"/><path class="cls-9" d="M103.97 62.34h2.06l-5.43-7.25v12.53h7.53l-4.16-5.28z"/><path class="cls-10" d="M100.6 67.62h2.09v3.42h-2.09z"/><path class="cls-11" d="M98.51 67.62h2.09v3.42h-2.09z"/><path d="M48.27 67.69h1.46l.7-1.67-8.41 1.68h1.46l-6.9 1.22 4.32-.01-2.26.79h3.56l2.03-.79h4.33l-.29-1.22z"/><path class="cls-8" d="M40.4 56.29l-4.65 6.22h1.77l-3.57 4.52h6.45V56.29z"/><path class="cls-9" d="M43.29 62.51h1.76l-4.65-6.22v10.74h6.45l-3.56-4.52z"/><path class="cls-10" d="M40.4 67.03h1.79v2.93H40.4z"/><path class="cls-11" d="M38.61 67.03h1.79v2.93h-1.79z"/></svg>