<svg id="图层_1" data-name="图层 1" xmlns="http://www.w3.org/2000/svg" viewBox="0 0 150 90"><defs><style>.cls-1{fill:#e6e6e6}.cls-18{fill:#fff}.cls-15{fill:#424242}.cls-16{fill:#262626}.cls-17{fill:#e5e5e5}.cls-19{fill:#999}.cls-20{fill:#bbb}.cls-27{fill:#939490}</style></defs><path class="cls-1" d="M48.2 48.88a9.4 9.4 0 0 0-6.34 2.8L20.21 77.13c-1.31 1.54.92 2.81 5 2.81h50l-.09-31z"/><path d="M101.89 49L75 48.94l.09 31h50c4 0 6.27-1.26 4.95-2.8l-21.8-25.35a9.53 9.53 0 0 0-6.35-2.79z" fill="#ccc"/><path d="M126.37 78.26H23.62a7.65 7.65 0 0 1-3.93-.81C19 78.88 20.92 80 24.41 80h101.18c3.48 0 5.44-1.11 4.71-2.55a7.67 7.67 0 0 1-3.93.81z" opacity=".14"/><path d="M125 41.93a5.88 5.88 0 0 0-2.32-4.17l-.4-.27-6-4.08v-.08l-7.78-12.09-32.08 20.69z" fill="#fabd2e"/><path d="M108.5 21.24l-4-6.26a7.3 7.3 0 0 0-6.76-3.34H39a3.14 3.14 0 0 0-3.14 3.14v27.15h40.56z" fill="#f9d530"/><path d="M125 41.93H76.42L50.14 58.87h69A5.89 5.89 0 0 0 125 53V41.93z" fill="#eeaa21"/><path d="M35.84 41.93v13.8A3.14 3.14 0 0 0 39 58.87h11.14l26.28-16.94z" fill="#f9be2c"/><rect x="43.86" y="19.73" width="36.56" height="17.29" rx="2.89" ry="2.89" opacity=".59" fill="#fff"/><rect x="43.86" y="19.73" width="36.56" height="17.29" rx="2.89" ry="2.89" fill="#f59d00"/><path d="M116.08 50.4a2.45 2.45 0 0 0-2.23 2.44v6h7.36a3.79 3.79 0 0 0 3.79-3.76V50.4z" fill="#968b84"/><path class="cls-1" d="M121.74 45a2.54 2.54 0 0 0-2.54 2.54v2.86h5.8V45z"/><path d="M41.63 47.95a2.9 2.9 0 0 0-2.9-2.9h-2.9v5.8h5.8z" fill="#e53553"/><path d="M35.84 50.84V56a2.9 2.9 0 0 0 2.9 2.9h2.9v-8z" fill="#c1272d"/><path d="M104.62 20.87a1.92 1.92 0 0 0-1.55-.79H90.81A1.92 1.92 0 0 0 88.89 22v11.89L106 22.83z" fill="#00adea"/><path d="M106 22.83L88.89 33.89v.78a1.92 1.92 0 0 0 1.92 1.92h18.46a1.92 1.92 0 0 0 1.92-1.92v-4.16a1.92 1.92 0 0 0-.37-1.13z" fill="#0088d3"/><path class="cls-15" d="M46.68 55.34a7.65 7.65 0 0 1 12.71-5.75l1.69-1.69a10.09 10.09 0 0 0-6.73-2.54A9.94 9.94 0 0 0 46.93 62l1.66-1.66a7.61 7.61 0 0 1-1.91-5z"/><path class="cls-16" d="M61.07 47.91l-1.69 1.69a7.65 7.65 0 1 1-10.79 10.79L46.93 62a10 10 0 0 0 17.44-6.76 9.81 9.81 0 0 0-3.3-7.33z"/><path class="cls-17" d="M60.43 55.34a6.09 6.09 0 0 1-10.74 3.94l-1.1 1.1a7.65 7.65 0 1 0 10.79-10.79l-1.1 1.11a6.08 6.08 0 0 1 2.15 4.64z"/><path class="cls-18" d="M46.68 55.34a7.61 7.61 0 0 0 1.91 5l1.1-1.1a6.09 6.09 0 0 1 8.59-8.59l1.11-1.11a7.65 7.65 0 0 0-12.71 5.75z"/><path class="cls-19" d="M54.33 61.43a6.09 6.09 0 0 0 3.95-10.73l-8.59 8.59a6.08 6.08 0 0 0 4.64 2.14z"/><path class="cls-20" d="M54.34 49.24a6.09 6.09 0 0 0-4.64 10l8.59-8.59a6.06 6.06 0 0 0-3.95-1.41z"/><path class="cls-15" d="M93.49 55.34a7.65 7.65 0 0 1 12.71-5.75l1.69-1.69a10.09 10.09 0 0 0-6.73-2.54A9.94 9.94 0 0 0 93.74 62l1.66-1.66a7.61 7.61 0 0 1-1.91-5z"/><path class="cls-16" d="M107.88 47.91l-1.69 1.69A7.65 7.65 0 1 1 95.4 60.39L93.74 62a10 10 0 0 0 17.44-6.76 9.81 9.81 0 0 0-3.3-7.33z"/><path class="cls-17" d="M107.24 55.34a6.09 6.09 0 0 1-10.74 3.94l-1.1 1.1a7.65 7.65 0 1 0 10.79-10.79l-1.11 1.11a6.08 6.08 0 0 1 2.16 4.64z"/><path class="cls-18" d="M93.49 55.34a7.61 7.61 0 0 0 1.91 5l1.1-1.1a6.09 6.09 0 0 1 8.59-8.59l1.11-1.11a7.65 7.65 0 0 0-12.71 5.75z"/><path class="cls-19" d="M101.14 61.43a6.09 6.09 0 0 0 3.94-10.74l-8.58 8.59a6.08 6.08 0 0 0 4.64 2.15z"/><path class="cls-20" d="M101.15 49.24a6.09 6.09 0 0 0-4.64 10l8.59-8.59a6.06 6.06 0 0 0-3.95-1.41z"/><path fill="#1a1a1a" opacity=".27" d="M27.95 69.26l13.66 8.69 29.8-11.18-17.39-8.69-9.93 1.24-16.14 9.94z"/><path fill="#c2a174" d="M59.19 56.67v12.29L42.65 78.6V66.31l16.54-9.64z"/><path fill="#ccba89" d="M26.12 56.67v12.29l16.53 9.64V66.31l-16.53-9.64z"/><path d="M27.67 58.8v9.9L41 76.46v-9.9zm12.24 15.68c0-.21.13-.3.29-.2a.77.77 0 0 1 .29.58c0 .22-.13.31-.29.2a.78.78 0 0 1-.29-.58zm0-2.23c0-.21.13-.31.29-.22a.69.69 0 0 1 .29.56c0 .22-.13.32-.29.22a.71.71 0 0 1-.29-.56zm0-2.23c0-.21.13-.32.3-.25a.62.62 0 0 1 .3.53c0 .22-.13.33-.3.25a.64.64 0 0 1-.31-.55zm0-2.23c0-.21.13-.33.3-.27a.56.56 0 0 1 .3.51c0 .22-.13.34-.3.27a.58.58 0 0 1-.31-.5zM28 67.6c0-.21.13-.3.29-.2a.77.77 0 0 1 .29.58c0 .22-.13.31-.29.2a.78.78 0 0 1-.29-.58zm0-2.23c0-.21.13-.31.29-.22a.69.69 0 0 1 .29.56c0 .22-.13.32-.29.22a.71.71 0 0 1-.29-.56zm0-2.23c0-.21.13-.32.3-.25a.62.62 0 0 1 .3.53c0 .22-.13.33-.3.25a.64.64 0 0 1-.3-.53zm0-2.23c0-.21.13-.33.3-.27a.56.56 0 0 1 .3.51c0 .22-.13.34-.3.27a.58.58 0 0 1-.3-.5z" fill="#fffbfb"/><path fill="#e4d0a1" d="M59.19 56.65l-16.54 9.66-16.53-9.66L42.65 47l16.54 9.65z"/><path stroke="#ccc" stroke-width=".22" fill="none" stroke-miterlimit="10" d="M27.67 58.76l13.32 7.77"/><path class="cls-27" d="M35.84 66.08l-.23-.14v-1.18l.23.14v1.18zm.33.19l-.23-.14v-1.18l.23.14v1.18zm.19.11l-.1-.06v-1.18l.1.06v1.18zm.32.15h-.06l-.03-.02v-1.18l.09.06v1.14zm-1.16-.64l-.1-.06v-1.18l.1.06v1.18z"/><path class="cls-27" d="M36.59 66.53v-.02l.03.02h-.03zm-2.29-1.35l-.23-.14v-1.18l.23.14v1.18zm.65.38l-.23-.14v-1.17l.23.13v1.18zm.38.22l-.1-.06v-1.18l.1.06v1.18zm-.19-.11l-.09-.06v-1.17l.09.05v1.18zm-.65-.38l-.1-.06v-1.18l.1.06v1.18zm-1.54-.9l-.24-.14v-1.18l.24.14v1.18zm.84.49l-.1-.06v-1.17l.1.05v1.18zm-.52-.3l-.09-.06v-1.17l.09.05v1.18zm.33.19l-.23-.14v-1.18l.23.14v1.18zm.37.22l-.09-.06v-1.17l.09.05v1.18zm-2.52-1.47l-.09-.06v-1.18l.09.06v1.18zm1.17.68l-.1-.06v-1.17l.1.05v1.18zm-.19-.11l-.23-.14v-1.18l.23.14v1.18zm-.33-.19l-.23-.14v-1.18l.23.14v1.18zm-.46-.28l-.1-.05v-1.18l.1.06v1.17zm-1.54-.89l-.1-.06v-1.18l.1.06v1.18zm1.16.68l-.09-.06v-1.18l.09.06v1.18zm-.51-.3l-.23-.14v-1.18l.23.14v1.18zm.19.11l-.1-.06v-1.18l.1.06v1.18zm-.52-.3l-.23-.14V61.6l.23.14v1.18z"/><path fill="#fac1c5" d="M29.72 63.2l3.06 1.78v5.75l-3.06-1.79V63.2z"/><path fill="#ffbec0" d="M38.71 68.44v5.75l-2.27-1.33v-5.74l2.27 1.32z"/><path fill="#e7e7e7" d="M36.44 67.12v5.74l-3.66-2.13v-5.75l3.66 2.14z"/><path stroke="#ae9565" stroke-width=".11" fill="none" stroke-miterlimit="10" d="M34.77 51.66l16.21 9.99"/><path opacity=".33" fill="#ae9364" d="M32.49 52.88l4.13-2.41 16.24 9.96-3.99 2.22-16.38-9.77z"/><path fill="#ae9364" d="M48.98 69.39v-6.75l3.77-2.2v6.75l-3.77 2.2z"/></svg>