<svg id="1" data-name="1" xmlns="http://www.w3.org/2000/svg" viewBox="0 0 150 90"><defs><style>.cls-4{fill:#00adea}.cls-5{fill:none}.cls-6{fill:#e53553}.cls-7{fill:#cc2e41}.cls-8{fill:#0088d3}</style><linearGradient id="2" x1="123.1" y1="-616.5" x2="104.8" y2="-648.2" gradientTransform="matrix(1 0 0 -1 0 -567)" gradientUnits="userSpaceOnUse"><stop offset="0" stop-color="#39a7cf"/><stop offset="1" stop-color="#09609c"/></linearGradient></defs><path d="M116 9h-7L40.9 77.1h75A6.2 6.2 0 0 0 122 71V15.1a6.2 6.2 0 0 0-6.2-6.1z" fill="#ccc"/><path d="M74 9H32.4a6.2 6.2 0 0 0-6.2 6.2V71a6.2 6.2 0 0 0 6.2 6.2H41L109 9z" fill="#e6e6e6"/><path d="M118.4 73.7H30.2a5.8 5.8 0 0 1-4-1.5 5.9 5.9 0 0 0 5.8 5h84.6a5.9 5.9 0 0 0 5.7-5 5.8 5.8 0 0 1-4 1.5z" opacity=".1"/><path class="cls-4" d="M46.5 26.4l-1.4 9h-1.2l-1-5.9-1 5.9h-1.2l-1.4-9h1.4l.7 5.7 1-5.7h1l1 5.9.6-5.9zm-.2 9l2-9h1l2 9h-1.2l-.4-1.9H48l-.4 2zm3.2-3.1l-.6-3.3-.7 3.3zm2.5 3.1v-9h1.2l2 5.5v-5.5h1.3v9h-1.2l-2-5.4v5.4zm5.6-6.9a2.3 2.3 0 0 1 .2-1 2 2 0 0 1 .5-.7 2.1 2.1 0 0 1 .7-.4 2.3 2.3 0 0 1 1.6 0 2.3 2.3 0 0 1 .7.4 2.1 2.1 0 0 1 .5.7 2.3 2.3 0 0 1 .2 1v.5h-1.3v-.5a.9.9 0 0 0-.3-.7 1 1 0 0 0-1.2 0 .9.9 0 0 0-.3.7v4.8a.9.9 0 0 0 .3.7 1 1 0 0 0 1.2 0 .9.9 0 0 0 .3-.7v-1.7h-1v-1.1H62v2.8a2.3 2.3 0 0 1-.2 1 2 2 0 0 1-.5.7 2.2 2.2 0 0 1-.7.4 2.3 2.3 0 0 1-1.6 0 2 2 0 0 1-.7-.4 2 2 0 0 1-.5-.7 2.3 2.3 0 0 1-.1-1z"/><path class="cls-5" d="M102.2 32l-.6-3.2h-.1l-.6 3.2h1.3zm-16.4-3.2l-.6 3.2h.8l.4-.4-.6-2.8zm5.3 5.2a1 1 0 0 0 .6-.2.9.9 0 0 0 .3-.8v-4.7a.9.9 0 0 0-.3-.7 1 1 0 0 0-1.2 0 .9.9 0 0 0-.3.7V33a.9.9 0 0 0 .3.7 1 1 0 0 0 .6.3zm9.2 16h-3.9l-1 .8h6a2 2 0 0 1-.7-.5 2.3 2.3 0 0 1-.4-.3z"/><path class="cls-5" d="M86.5 32l-.1-.4-.4.4h.5zm10.2 15.2h3.3v.8h-3.3zm0-2.4h3.3v.7h-3.3zm6.4-1.9h1.7v-1H91.9v1h1.6v-.8h3.2v.8h3.2v-.8h3.2v.8z"/><path class="cls-6" d="M59.3 54.4h-7.8v-3.9h5.9v-3.3h-5.9v-3.7h6.9v-3.3H40.9v3.3h6.9v3.7h-5.9v3.3h5.9v3.9h-7.7v3.1h19.2v-3.1zm19.8-15.5h-3.7v3.7l3.7-3.7z"/><path class="cls-7" d="M75.4 42.6v10.8q.1 1.4-1.4 1.4h-2.8l.3.7a16 16 0 0 1 .5 2.6h3.5q3.8 0 3.6-3.6V38.9zm8.4.2l-3.5 1q1.9 5 3.4 10l3.5-1.1-1.2-3.6-2.3-6.3zm-17 10L70 54l3-9-5.5 5.4-.8 2.4z"/><path class="cls-6" d="M69.8 43l-2.2 7.5L73 45l.3-1.2z"/><path class="cls-7" d="M108 50v-2h-5v-.8h3.5v-1.8h-3.4v-.6h3v-1.3h1.8v-3.7h-7.5a6.3 6.3 0 0 0-.2-1.3l-4.1.2a.8.8 0 0 0 .2.4 5.5 5.5 0 0 0 .1.7h-7.7v3.8h1.9v1.2h2.9v.7h-3.3v1.7h3.3v.8h-5v2h3.7a21.5 21.5 0 0 1-4.1 1.5l1 2.6 2.4-1a.7.7 0 0 1 .2-.1v2h3v-2h7.3v2h3v-2a19.8 19.8 0 0 0 2.4 1 17.2 17.2 0 0 1 1-2.2 1 1 0 0 1 .1-.4 17.6 17.6 0 0 1-4-1.4zm-12.7.8l1.1-.8h4a2.3 2.3 0 0 0 .3.3 2 2 0 0 0 .6.5zm4.6-3.6v.8h-3.2v-.8zm-3.2-1.8v-.6h3.2v.6zm3.2-3.3v.7h-3.2v-.7h-3.2v.7h-1.6v-1h12.8v1h-1.6v-.7z"/><path class="cls-7" d="M99.8 54.7a3.6 3.6 0 0 0 .2-1.4h-3.2q.6 2.9-8 2.9a22.3 22.3 0 0 1 1.2 2.6q6.6-.8 8.3-2.2l2.5.7 5.8 1.4 1.2-2.5a9 9 0 0 1-1.9-.3z"/><path class="cls-4" d="M77.1 35.2l1.1-3.1 1.1 3.1h1.4l-1.9-4.8 1.7-4.3h-1.3l-1 2.7-1-2.7h-1.4l1.7 4.3-1.8 4.8h1.4zm4.2-9.1h1.3v9h-1.3z"/><path class="cls-8" d="M84.6 35.2l.4-2h1.7l.4 2h1.3l-1-4.6-1 1 .1.4H86l-2.6 2.6-.1.6h1.3z"/><path class="cls-4" d="M85.2 32l.6-3.2.6 2.8 1-1-1-4.5h-1.1l-1.9 8.5L86 32h-.8zm5.9-6a2.3 2.3 0 0 0-.8.2 2.1 2.1 0 0 0-.6.4 2 2 0 0 0-.6.7 2.3 2.3 0 0 0-.1 1v.8l2.8-2.9a2.3 2.3 0 0 0-.7-.1z"/><path class="cls-8" d="M89.1 34a2 2 0 0 0 .6.7 2 2 0 0 0 .6.4 2.3 2.3 0 0 0 1.6 0 2.2 2.2 0 0 0 .7-.4 2 2 0 0 0 .5-.7 2.3 2.3 0 0 0 .2-1v-4.7a2.3 2.3 0 0 0-.2-1 2.1 2.1 0 0 0-.5-.7 2.3 2.3 0 0 0-.7-.4l-3 2.8v4a2.3 2.3 0 0 0 .2 1zm1.1-5.8a.9.9 0 0 1 .3-.6 1 1 0 0 1 1.2 0 .9.9 0 0 1 .3.6V33a.9.9 0 0 1-.3.7 1 1 0 0 1-1.2 0 .9.9 0 0 1-.3-.7zm8.4.6V28a2 2 0 0 0-.6-1.4 2.3 2.3 0 0 0-.6-.4 2.1 2.1 0 0 0-1-.2 2.3 2.3 0 0 0-1 .2 2 2 0 0 0-.6.5 2.2 2.2 0 0 0-.4.8 3.3 3.3 0 0 0-.2 1 3.1 3.1 0 0 0 .3 1.4 2 2 0 0 0 1.2 1l.9.3a3.2 3.2 0 0 1 .4.2.7.7 0 0 1 .2.2 1 1 0 0 1 .1.4 5.6 5.6 0 0 1 0 .6v.5a1 1 0 0 1-.1.4.7.7 0 0 1-.3.3 1.1 1.1 0 0 1-.5.1.8.8 0 0 1-.7-.3 1 1 0 0 1-.2-.6v-.4h-1.3v.4a2 2 0 0 0 .2.9 2.2 2.2 0 0 0 .4.7 2 2 0 0 0 .7.4 2.3 2.3 0 0 0 .9.2 2.5 2.5 0 0 0 1-.2 1.8 1.8 0 0 0 .7-.6 2.2 2.2 0 0 0 .4-.8 4.6 4.6 0 0 0 .1-1 7 7 0 0 0 0-1 2.4 2.4 0 0 0-.2-.6 1.7 1.7 0 0 0-.4-.5 2.5 2.5 0 0 0-.7-.4l-1-.4a2 2 0 0 1-.4-.2.7.7 0 0 1-.3-.3.8.8 0 0 1 0-.3 4.3 4.3 0 0 1 0-.4 2.5 2.5 0 0 1 0-.5 1 1 0 0 1 0-.3.9.9 0 0 1 .4-.3.8.8 0 0 1 .4 0 .8.8 0 0 1 .7.2 1.4 1.4 0 0 1 .2.8v.3zm.4 6.4h1.3l.4-2h1.7l.4 2h1.3l-2-9H101zm2.6-6.5l.6 3.3h-1.3l.6-3.3zm3.2-2.6h1.3v9h-1.3z"/><path id="SVGID" d="M108.9 51.2l-1.6.7a21.2 21.2 0 0 0-8.2 6.5l-1.6 2.2c-4.8 7.7.5 17.5 8.5 21.3a23.6 23.6 0 0 0 5.6 1.8l2.6.2h1l1.5-.1a13 13 0 0 0 7-3.5 22.3 22.3 0 0 0 6.3-15.8v-.7a25.7 25.7 0 0 0-.2-2.8l-.2-1.7a18 18 0 0 0-1.7-5 11.1 11.1 0 0 0-.8-1.4 8.6 8.6 0 0 0-6.7-3.9 11.4 11.4 0 0 0-1.3 0 27.2 27.2 0 0 0-10.2 2.2" fill="url(#2)"/><path d="M100 75.3v-1l6.6-2.7.2-.1 2.3 1.3 5.1-3.2 2.6 2.8 2.8-1.4 8.4 3.4v1l-8.5-3.3-2.9 1.4-2.5-2.7-5 3.2-2.3-1.4c-6.4 2.8-6.7 2.8-6.8 2.8" fill="#fff"/><path d="M123 61.3a9 9 0 0 1 1.4-.7c.7-.2 1.4-.4.7.8s-2.5 1-2.6.7.4-.8.4-.8m-4.4-5.6s.7-1.3 1.2-1.2.4.6.3 1.2-.5.8-1.1 1.1-.8.3-1 0 .6-1.1.6-1.1m-10.8-.7c0-.3 1 0 1.5.2s.7 1.3.7 1.3.3.6-.1.8-.8-.4-.8-.4a3.8 3.8 0 0 0-.8-.7 1.1 1.1 0 0 1-.6-1.2m-5.4 6.2c0-.5 1.3.1 1.3.1s2 1.2 2 1.4-.5.3-.9.4-1.6-.5-2-.8a1.3 1.3 0 0 1-.4-1.1m-1.6 11.5c-.7.2-.8 0-.9-.5s1-1 1-1a9.4 9.4 0 0 1 1.2-.6.7.7 0 0 1 .8.6c0 .5-1.5 1.4-2.1 1.5m26-1.2l-1.5-.5c-.5-.2-.7-1.2-.7-1.2 0-.4 1 .1 1.2.2a3.7 3.7 0 0 1 1.3 1c.3.4-.2.5-.2.5m-5.4-3.3c-.2.4-.4.7-1 .5a7.3 7.3 0 0 1-2-1.5 1.8 1.8 0 0 0-1.3-.7c-.8-.3-2.6.8-2.9 1a1.7 1.7 0 0 1-.8 0l-.6.6a10.6 10.6 0 0 1-3.3 1.7c-.8 0-2.3-1.1-2.5-1.3l-.8-.4a6.9 6.9 0 0 1-.4 1c-.3.4-1.1.1-1.4-.3s0-1.2 0-1.2l1-1.5c0-.1 0-.3.3-.3s.4.4.8.6l2.5 1.4.7-.4 1.4-.9a1.1 1.1 0 0 0 .2-.4 19.5 19.5 0 0 0-.3-2.3c0-.6 0-.9-.7-1s-.7.1-.8.5l-.6 1.8c-.2 0-.2-.1-.4-.3s-.2.5-.2.7-.3.4-1 .3a1.2 1.2 0 0 1-.8-1.4c.2-.5 1.2-.5 1.2-.5l.1-.4a8 8 0 0 0 .6-1.7c0-.7.8-.7 1.5-.7a14 14 0 0 1 2 .4c.2 0-.1-.6-.5-1.1a1.5 1.5 0 0 1-.3-1.4c.1-.4 1.2-.5 1.8-.5s1.2 1 1.3 1.3a.7.7 0 0 1-.2.8c-.2.3-.1.4 0 .7s.4 0 .6 0l1.5-.7a3.8 3.8 0 0 1-.4-.8 4.8 4.8 0 0 0-.6-1.1 1.5 1.5 0 0 0-.9-.5 2.2 2.2 0 0 1-1.2-.3c-.3-.3-.1-1 .5-1.4a1 1 0 0 1 1.5 0 1.3 1.3 0 0 1 .4.8c1.3.7 2.6 3 2.6 3.8s-1.7 1.2-2.4 1.3a2.3 2.3 0 0 0-1.2.4c-.2.2.3 1.6.4 1.8s.5-.1.5-.1a4.9 4.9 0 0 1 2.1-.4c.6 0 2.6 2 2.8 2.1s.5-.5.5-.7.5-.3.5-.3c.3-.1.8-.2 1 .6s-.7 2-.8 2.5" fill="#f0b727"/></svg>