<svg id="图层_1" data-name="图层 1" xmlns="http://www.w3.org/2000/svg" viewBox="0 0 150 90"><defs><style>.cls-1{fill:#e6e6e6}.cls-2{fill:#ccc}.cls-4{fill:#e59033}.cls-7{fill:#666}</style></defs><path class="cls-1" d="M28.27 7a6.89 6.89 0 0 0-6.87 6.87v62.26A6.89 6.89 0 0 0 28.27 83h46.67V7z"/><path class="cls-2" d="M121.62 7H74.94v76h46.68a6.89 6.89 0 0 0 6.87-6.87V13.87A6.89 6.89 0 0 0 121.62 7z"/><path d="M123.94 79.24h-98a6.47 6.47 0 0 1-4.42-1.75A6.52 6.52 0 0 0 27.94 83h94a6.52 6.52 0 0 0 6.42-5.51 6.47 6.47 0 0 1-4.42 1.75z" opacity=".14"/><path class="cls-2" d="M52.12 47.56a22.83 22.83 0 0 0 22.82 22.83V24.73a22.83 22.83 0 0 0-22.82 22.83z"/><path class="cls-1" d="M74.94 24.73v45.66a22.83 22.83 0 0 0 0-45.65z"/><path class="cls-4" d="M58.44 47.46c0-.47 0-.93.06-1.39H56v3h2.54c-.07-.54-.1-1.07-.1-1.61zM87.22 37.39l2.18-2.18-2.1-2.11-2.14 2.14a16.24 16.24 0 0 1 2.06 2.15zM74.59 31.3a16.31 16.31 0 0 1 1.84.11V28.6h-3v2.75c.4-.03.78-.05 1.16-.05zM64.41 34.92l-1.82-1.82-2.11 2.11 1.8 1.8a16.25 16.25 0 0 1 2.13-2.09zM90.68 46.07c0 .46.06.92.06 1.39s0 1.07-.08 1.6h3.24v-3zM62.38 58l-1.9 1.9 2.11 2.1 1.94-1.94A16.24 16.24 0 0 1 62.38 58zM85 59.77L87.3 62l2.11-2.11-2.28-2.28A16.25 16.25 0 0 1 85 59.77zM74.59 63.61h-1.14v3h3v-3a16.31 16.31 0 0 1-1.86 0z"/><path d="M85.13 37.38a14.35 14.35 0 0 0-10.18-4.22V62a14.4 14.4 0 0 0 10.18-24.62z" fill="#e53553"/><path d="M64.76 57.74A14.35 14.35 0 0 0 74.94 62V47.56z" fill="#cc2e41"/><path class="cls-7" d="M76.56 23.57v-3.35h8.55V17.3H64.78v2.92h8.86v3.32a24.1 24.1 0 1 0 2.92 0zm-1.62 45.59a21.6 21.6 0 1 1 21.6-21.6 21.62 21.62 0 0 1-21.6 21.6z"/><rect class="cls-7" x="93.23" y="25.86" width="2.92" height="5.46" rx=".87" ry=".87" transform="rotate(-45 94.691 28.588)"/></svg>